<svg width="25" height="24" viewBox="0 0 25 24" fill="none" xmlns="http://www.w3.org/2000/svg">
<path fill-rule="evenodd" clip-rule="evenodd" d="M3.5 3.73469C3.5 3.32893 3.82893 3 4.23469 3H10.8469C11.2527 3 11.5816 3.32893 11.5816 3.73469V10.3469C11.5816 10.7527 11.2527 11.0816 10.8469 11.0816H4.23469C3.82893 11.0816 3.5 10.7527 3.5 10.3469V3.73469ZM4.96939 4.46939V9.61225H10.1122V4.46939H4.96939ZM13.4184 3.73469C13.4184 3.32893 13.7473 3 14.1531 3H20.7653C21.1711 3 21.5 3.32893 21.5 3.73469V10.3469C21.5 10.7527 21.1711 11.0816 20.7653 11.0816H14.1531C13.7473 11.0816 13.4184 10.7527 13.4184 10.3469V3.73469ZM14.8878 4.46939V9.61225H20.0306V4.46939H14.8878ZM3.5 13.6531C3.5 13.2473 3.82893 12.9184 4.23469 12.9184H10.8469C11.2527 12.9184 11.5816 13.2473 11.5816 13.6531V20.2653C11.5816 20.6711 11.2527 21 10.8469 21H4.23469C3.82893 21 3.5 20.6711 3.5 20.2653V13.6531ZM4.96939 14.3878V19.5306H10.1122V14.3878H4.96939ZM13.4184 13.6531C13.4184 13.2473 13.7473 12.9184 14.1531 12.9184H20.7653C21.1711 12.9184 21.5 13.2473 21.5 13.6531V20.2653C21.5 20.6711 21.1711 21 20.7653 21H14.1531C13.7473 21 13.4184 20.6711 13.4184 20.2653V13.6531ZM14.8878 14.3878V19.5306H20.0306V14.3878H14.8878Z" fill="#E7A257"/>
</svg>
