<svg width="13" height="13" viewBox="0 0 13 13" fill="none" xmlns="http://www.w3.org/2000/svg">
<path d="M10.8906 1.92969C12.0391 3.07812 12.75 4.58203 12.75 6.22266C12.75 9.55859 9.96094 12.293 6.59766 12.293C5.58594 12.293 4.60156 12.0195 3.69922 11.5547L0.5 12.375L1.34766 9.23047C0.828125 8.32812 0.527344 7.28906 0.527344 6.19531C0.527344 2.85938 3.26172 0.125 6.59766 0.125C8.23828 0.125 9.76953 0.78125 10.8906 1.92969ZM6.59766 11.2539C9.38672 11.2539 11.7109 8.98438 11.7109 6.22266C11.7109 4.85547 11.1367 3.59766 10.1797 2.64062C9.22266 1.68359 7.96484 1.16406 6.625 1.16406C3.83594 1.16406 1.56641 3.43359 1.56641 6.19531C1.56641 7.15234 1.83984 8.08203 2.33203 8.90234L2.46875 9.09375L1.94922 10.9531L3.86328 10.4336L4.02734 10.543C4.82031 11.0078 5.69531 11.2539 6.59766 11.2539ZM9.38672 7.48047C9.52344 7.5625 9.63281 7.58984 9.66016 7.67188C9.71484 7.72656 9.71484 8.02734 9.57812 8.38281C9.44141 8.73828 8.83984 9.06641 8.56641 9.09375C8.07422 9.17578 7.69141 9.14844 6.73438 8.71094C5.20312 8.05469 4.21875 6.52344 4.13672 6.44141C4.05469 6.33203 3.53516 5.62109 3.53516 4.85547C3.53516 4.11719 3.91797 3.76172 4.05469 3.59766C4.19141 3.43359 4.35547 3.40625 4.46484 3.40625C4.54688 3.40625 4.65625 3.40625 4.73828 3.40625C4.84766 3.40625 4.95703 3.37891 5.09375 3.67969C5.20312 3.98047 5.53125 4.71875 5.55859 4.80078C5.58594 4.88281 5.61328 4.96484 5.55859 5.07422C5.28516 5.64844 4.95703 5.62109 5.12109 5.89453C5.72266 6.90625 6.29688 7.26172 7.19922 7.69922C7.33594 7.78125 7.41797 7.75391 7.52734 7.67188C7.60938 7.5625 7.91016 7.20703 7.99219 7.07031C8.10156 6.90625 8.21094 6.93359 8.34766 6.98828C8.48438 7.04297 9.22266 7.39844 9.38672 7.48047Z" fill="#D3D3D3"/>
</svg>
