<svg width="31" height="31" viewBox="0 0 31 31" fill="none" xmlns="http://www.w3.org/2000/svg">
<path d="M29.9 14.1126C28.7917 11.8737 27.1413 9.94728 25.099 8.50851C23.1573 7.21504 20.8713 6.53581 18.5383 6.55923H12.6906C10.3576 6.53581 8.07158 7.21504 6.12988 8.50851C4.08575 9.94528 2.43515 11.8722 1.3291 14.1126" stroke="#565656" stroke-linecap="round" stroke-linejoin="round"/>
<path d="M13.1061 8.94174H18.0516C23.7008 8.94174 27.2293 13.9232 28.8808 19.4641L29.5935 21.9278C30.7757 26.0248 26.1734 29.7067 22.0042 29.7067H9.24386C5.07463 29.7067 0.47208 26.0338 1.65427 21.9278L2.36722 19.4641C3.97355 13.9142 7.50202 8.94174 13.1512 8.94174H13.1061Z" stroke="#565656" stroke-linecap="round" stroke-linejoin="round"/>
<path d="M12.5739 0.549072C12.9719 0.549072 13.3609 0.667072 13.6918 0.8882C14.0228 1.10933 14.2809 1.42363 14.4332 1.79135C14.5855 2.15907 14.6252 2.56372 14.5476 2.95409C14.4699 3.34446 14.2784 3.70303 13.997 3.98447C13.7155 4.26592 13.3569 4.45762 12.9665 4.53527C12.5762 4.61292 12.1714 4.57302 11.8037 4.42071C11.436 4.26839 11.1217 4.01049 10.9006 3.67955C10.6795 3.34861 10.5615 2.9595 10.5615 2.56148C10.5615 2.02775 10.7735 1.51589 11.1509 1.13848C11.5283 0.761082 12.0402 0.549072 12.5739 0.549072Z" stroke="#565656" stroke-linecap="round" stroke-linejoin="round"/>
<path d="M18.5837 0.549072C18.9817 0.549072 19.3709 0.667072 19.7018 0.8882C20.0328 1.10933 20.2907 1.42363 20.443 1.79135C20.5953 2.15907 20.6352 2.56372 20.5575 2.95409C20.4799 3.34446 20.2882 3.70303 20.0067 3.98447C19.7253 4.26592 19.3667 4.45762 18.9763 4.53527C18.5859 4.61292 18.1814 4.57302 17.8137 4.42071C17.446 4.26839 17.1315 4.01049 16.9104 3.67955C16.6892 3.34861 16.5713 2.9595 16.5713 2.56148C16.5713 2.02775 16.7832 1.51589 17.1606 1.13848C17.538 0.761082 18.05 0.549072 18.5837 0.549072Z" stroke="#565656" stroke-linecap="round" stroke-linejoin="round"/>
</svg>
