<svg width="31" height="29" viewBox="0 0 31 29" fill="none" xmlns="http://www.w3.org/2000/svg">
<path d="M9.70235 13.5317L16.7594 7.01606L19.214 2.10689C19.7465 1.03299 21.8401 1.40294 22.2642 2.51294C22.6884 3.62293 22.2643 6.56489 21.6326 7.62073L19.3945 11.6546L27.6157 11.1493C27.9018 11.1234 28.19 11.1554 28.4634 11.2434C28.7368 11.3313 28.9897 11.4734 29.207 11.6612C29.4243 11.849 29.6015 12.0787 29.7281 12.3365C29.8548 12.5943 29.9282 12.8749 29.944 13.1617C29.9701 13.7321 29.7772 14.2909 29.4047 14.7238C29.0323 15.1566 28.5085 15.4306 27.9406 15.4899C28.1669 15.6766 28.3531 15.9072 28.4881 16.1677C28.623 16.4283 28.7039 16.7135 28.7257 17.0061C28.7626 17.5276 28.6119 18.0453 28.3008 18.4656C27.9897 18.8859 27.5387 19.1812 27.0291 19.2983C27.3227 19.4772 27.5692 19.7236 27.7481 20.0172C27.9271 20.3107 28.0333 20.6429 28.0579 20.9858C27.6352 21.0823 27.2507 21.3024 26.9535 21.6182C26.6564 21.934 26.4601 22.3311 26.3894 22.7589C26.3188 23.1868 26.377 23.6259 26.5569 24.0205C26.7367 24.4151 27.0298 24.7472 27.399 24.9745C27.4249 25.2598 27.3932 25.5475 27.3058 25.8203C27.2184 26.0931 27.0772 26.3456 26.8903 26.5628C26.7034 26.7799 26.4749 26.9574 26.2181 27.0845C25.9614 27.2116 25.6816 27.2859 25.3957 27.3028L16.5789 27.5013C15.0597 27.5028 13.5646 27.1226 12.2306 26.3957C10.8967 25.6688 9.76665 24.6185 8.94434 23.3411" stroke="#565656" stroke-linecap="round" stroke-linejoin="round"/>
<path d="M2.97075 10.8154H6.99556C7.44312 10.8154 7.87245 10.9932 8.18892 11.3097C8.5054 11.6262 8.6831 12.0554 8.6831 12.503V25.7958C8.68072 26.2418 8.50195 26.6687 8.18573 26.9832C7.86951 27.2977 7.44157 27.4743 6.99556 27.4743H2.97075C2.52474 27.4743 2.09691 27.2977 1.78069 26.9832C1.46447 26.6687 1.28559 26.2418 1.2832 25.7958V12.503C1.2832 12.0554 1.46102 11.6262 1.77749 11.3097C2.09397 10.9932 2.52318 10.8154 2.97075 10.8154Z" stroke="#565656" stroke-linecap="round" stroke-linejoin="round"/>
<path d="M4.86519 22.7817C5.06467 22.7841 5.25518 22.8649 5.39539 23.0068C5.53561 23.1487 5.61429 23.3402 5.61428 23.5397C5.61428 23.7383 5.53531 23.9289 5.39484 24.0693C5.25437 24.2098 5.06384 24.2887 4.86519 24.2887C4.66654 24.2887 4.47601 24.2098 4.33554 24.0693C4.19507 23.9289 4.11621 23.7383 4.11621 23.5397C4.1162 23.3402 4.19477 23.1487 4.33499 23.0068C4.4752 22.8649 4.66571 22.7841 4.86519 22.7817Z" stroke="#565656" stroke-linecap="round" stroke-linejoin="round"/>
</svg>
