<svg width="31" height="29" viewBox="0 0 31 29" fill="none" xmlns="http://www.w3.org/2000/svg">
<path d="M6.5854 1.17737V5.32853M12.6046 1.17737V5.32853M18.6329 1.17737V5.32853M24.6521 1.17737V5.32853M6.10709 11.8983V12.9451M10.8629 11.8983V12.9451M15.6278 11.8983V12.9451M20.3925 11.8983V12.9451M6.10709 22.4297V23.4855M10.8629 22.4297V23.4855M15.6278 22.4297V23.4855M25.1303 11.8892V12.9271M6.10709 17.1594V18.2243M25.1303 17.1594V18.2243M15.6007 17.1594V18.2243M10.8358 17.1594V18.2243M2.56951 3.16267H28.6589C29.1375 3.16267 29.5966 3.35286 29.9351 3.69133C30.2735 4.02981 30.4637 4.48886 30.4637 4.96754V25.7235C30.4637 26.2022 30.2735 26.6613 29.9351 26.9998C29.5966 27.3383 29.1375 27.5283 28.6589 27.5283H2.56951C2.09083 27.5283 1.63178 27.3383 1.29331 26.9998C0.954829 26.6613 0.764648 26.2022 0.764648 25.7235V4.96754C0.764648 4.48886 0.954829 4.02981 1.29331 3.69133C1.63178 3.35286 2.09083 3.16267 2.56951 3.16267ZM19.2916 15.8238H21.3672C21.6066 15.8238 21.8361 15.919 22.0053 16.0882C22.1745 16.2574 22.2697 16.4869 22.2697 16.7263V18.7838C22.2697 19.0232 22.1745 19.2526 22.0053 19.4219C21.8361 19.5911 21.6066 19.6863 21.3672 19.6863H19.2916C19.0602 19.6747 18.842 19.5745 18.6824 19.4065C18.5228 19.2385 18.4341 19.0156 18.4343 18.7838V16.7263C18.4341 16.4945 18.5228 16.2716 18.6824 16.1036C18.842 15.9356 19.0602 15.8354 19.2916 15.8238Z" stroke="#565656" stroke-linecap="round" stroke-linejoin="round"/>
<path d="M0.783203 7.86443H30.4552" stroke="#565656" stroke-linecap="round" stroke-linejoin="round"/>
</svg>
