<svg width="33" height="30" viewBox="0 0 33 30" fill="none" xmlns="http://www.w3.org/2000/svg">
<path d="M30.8829 15.8431V27.7733C30.8782 28.0534 30.7642 28.3206 30.5652 28.5179C30.3663 28.7151 30.0983 28.8268 29.8181 28.8291H3.431C3.29234 28.8291 3.15503 28.8018 3.02693 28.7488C2.89883 28.6957 2.78237 28.6179 2.68433 28.5199C2.58629 28.4218 2.50848 28.3055 2.45542 28.1774C2.40236 28.0493 2.375 27.912 2.375 27.7733V16.0417" stroke="#565656" stroke-linecap="round" stroke-linejoin="round"/>
<path d="M11.8408 5.60948V2.56829C11.8432 2.10949 12.0267 1.67016 12.3511 1.34573C12.6755 1.0213 13.1148 0.838003 13.5736 0.835632H19.6831C20.1412 0.840331 20.5791 1.02439 20.903 1.34832C21.227 1.67224 21.411 2.11021 21.4157 2.56829V5.60948" stroke="#565656" stroke-linecap="round" stroke-linejoin="round"/>
<path d="M13.709 18.2075C9.25174 18.0624 4.86918 17.022 0.822266 15.1483V6.72855C0.822256 6.44769 0.93318 6.17819 1.13093 5.97875C1.32869 5.7793 1.59741 5.66602 1.87826 5.66364H31.3426C31.625 5.66364 31.8959 5.77585 32.0956 5.97555C32.2953 6.17526 32.4074 6.44613 32.4074 6.72855V14.9317C28.3393 16.9544 23.8814 18.072 19.3402 18.2075" stroke="#565656" stroke-linecap="round" stroke-linejoin="round"/>
<path d="M14.7195 16.6914H18.5278C18.6833 16.6914 18.8324 16.7533 18.9424 16.8633C19.0524 16.9733 19.1143 17.1225 19.1143 17.278V19.8951C19.1119 20.05 19.0495 20.1977 18.94 20.3072C18.8305 20.4167 18.6826 20.4793 18.5278 20.4816H14.7195C14.5647 20.4793 14.4168 20.4167 14.3073 20.3072C14.1978 20.1977 14.1351 20.05 14.1328 19.8951V17.278C14.1351 17.1232 14.1978 16.9753 14.3073 16.8658C14.4168 16.7563 14.5647 16.6938 14.7195 16.6914Z" stroke="#565656" stroke-linecap="round" stroke-linejoin="round"/>
</svg>
