<svg width="33" height="37" viewBox="0 0 33 37" fill="none" xmlns="http://www.w3.org/2000/svg">
<path d="M28.397 14.9598C29.8079 17.7236 30.2767 20.8729 29.732 23.9279C29.1874 26.9829 27.6591 29.7761 25.38 31.8821C23.101 33.9882 20.1961 35.2916 17.1077 35.5939C14.0193 35.8961 10.9167 35.1806 8.27261 33.5564C5.62849 31.9321 3.58779 29.4881 2.46122 26.5967C1.33465 23.7052 1.18399 20.5249 2.03226 17.5399C2.88052 14.555 4.68121 11.929 7.15999 10.0622C9.63877 8.1953 12.6598 7.18986 15.763 7.19887C16.5217 7.19436 17.2796 7.2547 18.0281 7.37932" stroke="#565656" stroke-linecap="round" stroke-linejoin="round"/>
<path d="M1.49512 21.4662H29.9488" stroke="#565656" stroke-linecap="round" stroke-linejoin="round"/>
<path d="M20.5364 14.2017C18.9595 14.6087 17.3369 14.8118 15.7084 14.8063C11.5211 14.8063 7.83014 13.5249 5.65527 11.5666" stroke="#565656" stroke-linecap="round" stroke-linejoin="round"/>
<path d="M25.7796 31.375C23.6047 29.4167 19.9047 28.1172 15.7084 28.1172C11.5121 28.1172 7.83014 29.4077 5.65527 31.357" stroke="#565656" stroke-linecap="round" stroke-linejoin="round"/>
<path d="M15.6457 35.5352C12.3157 32.5031 10.1318 27.3501 10.1318 21.4933C10.1318 15.6366 12.3067 10.5017 15.6186 7.46951" stroke="#565656" stroke-linecap="round" stroke-linejoin="round"/>
<path d="M16.0068 35.5352C19.3278 32.5031 21.5116 27.3501 21.5116 21.4933C21.5116 15.6366 19.3367 10.5017 16.0248 7.46951" stroke="#565656" stroke-linecap="round" stroke-linejoin="round"/>
<path d="M25.0577 1.35113C26.1958 1.34917 27.3156 1.63849 28.3104 2.19165C29.3051 2.74481 30.1417 3.54339 30.7405 4.5113C31.3393 5.4792 31.6805 6.58422 31.7315 7.72125C31.7825 8.85829 31.5416 9.98949 31.0318 11.0071C30.1293 12.7217 25.8247 15.7088 25.0577 18.9576C23.8123 15.8081 19.9499 12.7217 19.0836 11.0071C18.6261 10.0778 18.3884 9.05589 18.3887 8.02012C18.3887 7.14434 18.5613 6.27704 18.8964 5.46793C19.2315 4.65881 19.7228 3.92365 20.342 3.30438C20.9613 2.68511 21.6965 2.1939 22.5056 1.85875C23.3147 1.5236 24.1819 1.35113 25.0577 1.35113Z" stroke="#565656" stroke-linecap="round" stroke-linejoin="round"/>
<path d="M25.0577 4.64491C25.711 4.64491 26.3496 4.83862 26.8928 5.20155C27.4359 5.56448 27.8593 6.08034 28.1093 6.68387C28.3592 7.28739 28.4246 7.95147 28.2972 8.59217C28.1697 9.23287 27.8551 9.82143 27.3932 10.2834C26.9313 10.7453 26.3428 11.0599 25.7021 11.1873C25.0614 11.3148 24.3973 11.2494 23.7937 10.9994C23.1902 10.7494 22.6744 10.3261 22.3115 9.78289C21.9486 9.23973 21.7549 8.6011 21.7549 7.94785C21.7549 7.07186 22.1028 6.23175 22.7222 5.61234C23.3416 4.99293 24.1817 4.64491 25.0577 4.64491Z" stroke="#565656" stroke-linecap="round" stroke-linejoin="round"/>
</svg>
