<svg width="25" height="33" viewBox="0 0 25 33" fill="none" xmlns="http://www.w3.org/2000/svg">
<path d="M1.87951 0.999023H23.3484C23.6045 0.999023 23.8501 1.10077 24.0312 1.28186C24.2123 1.46295 24.3141 1.70854 24.3141 1.96463V30.9056C24.3118 31.1619 24.2095 31.4071 24.0292 31.5891C23.8489 31.7711 23.6046 31.8756 23.3484 31.8803H1.87951C1.62332 31.8756 1.37905 31.7711 1.19872 31.5891C1.01838 31.4071 0.91637 31.1619 0.914062 30.9056V1.96463C0.916416 1.70927 1.0188 1.46503 1.19938 1.28445C1.37996 1.10387 1.62414 1.00138 1.87951 0.999023Z" stroke="#565656" stroke-linecap="round" stroke-linejoin="round"/>
<path d="M6.75293 11.6297V16.9631" stroke="#565656" stroke-linecap="round" stroke-linejoin="round"/>
<path d="M4.09082 14.292H9.41517" stroke="#565656" stroke-linecap="round" stroke-linejoin="round"/>
<path d="M20.1264 12.4239L16.3633 16.187" stroke="#565656" stroke-linecap="round" stroke-linejoin="round"/>
<path d="M4.86621 24.1826L8.62935 27.9457" stroke="#565656" stroke-linecap="round" stroke-linejoin="round"/>
<path d="M4.86621 27.9457L8.62935 24.1826" stroke="#565656" stroke-linecap="round" stroke-linejoin="round"/>
<path d="M1.03125 20.0224H24.1967" stroke="#565656" stroke-linecap="round" stroke-linejoin="round"/>
<path d="M12.6094 8.4352V31.6006" stroke="#565656" stroke-linecap="round" stroke-linejoin="round"/>
<path d="M15.7949 24.6338H21.1193" stroke="#565656" stroke-linecap="round" stroke-linejoin="round"/>
<path d="M15.7949 27.4946H21.1193" stroke="#565656" stroke-linecap="round" stroke-linejoin="round"/>
<path fill-rule="evenodd" clip-rule="evenodd" d="M15.921 11.7832C15.8309 11.8726 15.7693 11.9868 15.7441 12.1112C15.719 12.2356 15.7315 12.3647 15.7798 12.4821C15.8281 12.5995 15.9103 12.6999 16.0158 12.7705C16.1212 12.8411 16.2453 12.8788 16.3722 12.8788C16.4992 12.8788 16.6232 12.8411 16.7287 12.7705C16.8342 12.6999 16.9163 12.5995 16.9647 12.4821C17.013 12.3647 17.0255 12.2356 17.0004 12.1112C16.9752 11.9868 16.9136 11.8726 16.8235 11.7832C16.7023 11.6663 16.5406 11.601 16.3722 11.601C16.2039 11.601 16.0422 11.6663 15.921 11.7832Z" fill="#565656" stroke="#565656" stroke-miterlimit="22.93"/>
<path fill-rule="evenodd" clip-rule="evenodd" d="M19.9102 15.7809C19.8078 15.9037 19.7552 16.0604 19.7624 16.2202C19.7696 16.3799 19.8361 16.5312 19.9492 16.6443C20.0623 16.7574 20.2138 16.8241 20.3735 16.8313C20.5333 16.8385 20.6898 16.7858 20.8126 16.6833C20.9295 16.5622 20.9948 16.4004 20.9948 16.2321C20.9948 16.0638 20.9295 15.902 20.8126 15.7809C20.7538 15.7209 20.6837 15.6732 20.6062 15.6406C20.5287 15.608 20.4455 15.5913 20.3614 15.5913C20.2774 15.5913 20.1943 15.608 20.1169 15.6406C20.0394 15.6732 19.969 15.7209 19.9102 15.7809Z" fill="#565656" stroke="#565656" stroke-miterlimit="22.93"/>
<path d="M1.03125 8.16441H24.1967" stroke="#565656" stroke-linecap="round" stroke-linejoin="round"/>
</svg>
