<svg width="33" height="31" viewBox="0 0 33 31" fill="none" xmlns="http://www.w3.org/2000/svg">
<path d="M15.5717 5.5127C15.3112 7.06152 14.5739 8.49044 13.4625 9.60019C12.3512 10.7099 10.9213 11.4452 9.37207 11.7034" stroke="#565656" stroke-linecap="round" stroke-linejoin="round"/>
<path d="M15.8613 18.3001C16.1232 16.7655 16.8551 15.35 17.9559 14.2492C19.0568 13.1484 20.4723 12.4165 22.0069 12.1546" stroke="#565656" stroke-linecap="round" stroke-linejoin="round"/>
<path d="M15.5904 18.1467L9.46288 12.0282C9.16843 11.7339 8.76919 11.5686 8.3529 11.5686C7.93661 11.5686 7.53738 11.7339 7.24293 12.0282L5.63657 13.6255C5.34607 13.9237 5.18359 14.3236 5.18359 14.74C5.18359 15.1563 5.34607 15.5563 5.63657 15.8545L11.7551 21.973C12.0511 22.2678 12.4519 22.4333 12.8697 22.4333C13.2875 22.4333 13.6881 22.2678 13.9841 21.973L15.5904 20.3667C15.8804 20.07 16.0427 19.6715 16.0427 19.2567C16.0427 18.8418 15.8804 18.4434 15.5904 18.1467Z" stroke="#565656" stroke-linecap="round" stroke-linejoin="round"/>
<path d="M25.788 7.88603L19.6695 1.75854C19.3712 1.46803 18.9715 1.30545 18.5551 1.30545C18.1388 1.30545 17.7388 1.46803 17.4405 1.75854L15.8342 3.36484C15.5442 3.66157 15.3818 4.05995 15.3818 4.47481C15.3818 4.88968 15.5442 5.28811 15.8342 5.58484L21.9617 11.7123C22.2584 12.0023 22.6568 12.1646 23.0717 12.1646C23.4865 12.1646 23.8849 12.0023 24.1817 11.7123L25.788 10.106C26.0823 9.81159 26.2476 9.4123 26.2476 8.99601C26.2476 8.57972 26.0823 8.18048 25.788 7.88603Z" stroke="#565656" stroke-linecap="round" stroke-linejoin="round"/>
<path d="M17.3047 15.9447L28.3864 27.5861C29.9476 29.2286 33.0069 26.0159 31.3644 24.4547L19.8044 13.445" stroke="#565656" stroke-linecap="round" stroke-linejoin="round"/>
<path d="M3.14551 26.8912H18.3876" stroke="#565656" stroke-linecap="round" stroke-linejoin="round"/>
<path d="M1.39453 30.0318H20.6073" stroke="#565656" stroke-linecap="round" stroke-linejoin="round"/>
</svg>
