<svg width="46" height="50" viewBox="0 0 46 50" fill="none" xmlns="http://www.w3.org/2000/svg">
<path d="M22.9901 24.8135V13.0496C19.7897 14.671 16.6808 16.2511 13.497 17.8643C13.6799 17.9719 13.7298 18.0132 13.7713 18.0215C15.118 18.0877 15.118 18.0877 15.0348 19.3948C14.7772 23.5808 14.5167 27.7696 14.2535 31.9612C14.187 32.9622 13.9791 33.9384 14.029 34.9642C14.0706 35.7501 14.0124 35.899 14.9351 35.6343C18.8836 34.4926 22.8155 33.2931 26.6227 31.7295C30.4715 30.1412 34.1872 28.3294 37.3543 25.5663C39.4907 23.7049 41.228 21.5788 41.8515 18.7247C42.6911 14.9027 41.095 11.0806 37.7866 8.97108C34.7109 7.00215 31.2861 6.7457 27.7698 6.93597C25.4506 7.06834 23.1813 7.60607 21.0033 8.29271C18.8254 8.97935 16.7805 10.1045 14.7273 11.1551C12.965 12.0568 11.3939 13.2067 9.85606 14.3898C8.01065 15.8127 6.53099 17.641 5.11784 19.4941C3.23918 21.9511 1.55171 24.5322 0.155184 27.3698V26.4929C0.155184 23.0183 0.146871 19.552 0.155184 16.0774C0.163496 13.7693 1.17764 12.0237 3.18099 10.8655C8.74216 7.66398 14.295 4.44586 19.8894 1.28566C22.0258 0.077828 24.0873 0.0447359 26.365 1.3932C28.0691 2.40248 29.7981 3.42004 31.5438 4.36314C33.2479 5.28969 34.8855 6.3817 36.5813 7.30825C38.6511 8.43335 40.6711 9.64117 42.7493 10.7497C44.9687 11.941 46.0161 13.8107 45.9912 16.3173C45.9746 18.0877 45.9746 19.8498 45.9995 21.6202C46.0078 22.0669 45.8914 22.3978 45.5506 22.6956C38.0609 29.256 29.8231 34.4761 20.0141 36.8669C17.4206 37.4957 14.7772 37.8266 12.1171 37.3385C8.92504 36.7511 6.09042 35.4523 4.29489 32.6147C2.48273 29.7441 2.83186 26.8155 4.18682 23.8125C4.65233 22.7866 5.24253 21.8353 5.73298 20.8343C6.06549 20.1476 6.63075 19.5685 7.11288 18.9729C8.76039 16.9751 10.7027 15.2374 12.8736 13.8189C16.7556 11.2792 20.8537 9.21927 25.4997 8.45817C27.8937 8.06107 30.2877 7.92043 32.6485 8.71462C35.5746 9.69081 36.8215 12.1065 35.9736 15.0516C35.4257 17.0456 34.2448 18.8099 32.607 20.0814C29.789 22.3234 26.4556 23.5229 22.9901 24.8135Z" fill="black"/>
<path d="M22.242 23.771V12.3215C19.1248 13.9016 16.099 15.4403 12.9983 17.0122C13.1812 17.1114 13.2228 17.1611 13.2643 17.1611C14.5777 17.2273 14.5694 17.2273 14.4946 18.5013C14.2369 22.5798 13.9959 26.6582 13.7298 30.7285C13.6633 31.7047 13.4555 32.6478 13.5137 33.6488C13.5553 34.4099 13.4971 34.5588 14.3949 34.3023C18.2436 33.1938 22.0674 32.0273 25.7666 30.4968C29.5073 28.9581 33.1316 27.1877 36.2073 24.4991C38.2854 22.6873 39.9812 20.6191 40.588 17.8395C41.4027 14.1167 39.8482 10.4022 36.6312 8.34229C33.6387 6.43127 30.3053 6.17481 26.8805 6.36509C24.6194 6.48918 22.4166 7.01864 20.2968 7.68874C18.1771 8.35883 16.1904 9.45084 14.187 10.4767C12.4746 11.3536 10.9451 12.4787 9.44883 13.6286C7.65329 15.0184 6.2152 16.7971 4.8353 18.6006C3.00652 20.9997 1.36061 23.5063 0.00564764 26.2694V25.4173C0.00564764 22.042 -0.00266502 18.6585 0.00564764 15.2832C0.0139603 13.0412 0.994856 11.337 2.94833 10.2119C8.35987 7.09309 13.7714 3.95771 19.2079 0.880228C21.2861 -0.294509 23.2977 -0.327601 25.5089 0.987773C27.1631 1.97224 28.8506 2.9567 30.5547 3.88325C32.2089 4.78499 33.8049 5.84391 35.4591 6.74564C37.4708 7.84592 39.4409 9.01239 41.4609 10.0961C43.6222 11.2543 44.6446 13.0743 44.6197 15.5148C44.6031 17.2355 44.6058 18.9563 44.628 20.677C44.6363 21.1072 44.5199 21.4298 44.1957 21.7194C36.9055 28.0977 28.8838 33.1855 19.3326 35.5184C16.8138 36.1306 14.2369 36.4532 11.6434 35.9734C8.53444 35.4026 5.77463 34.1369 4.02898 31.382C2.26669 28.5941 2.60751 25.74 3.92922 22.8114C4.37811 21.8104 4.95168 20.8921 5.43381 19.9159C5.75801 19.2458 6.30664 18.6833 6.78046 18.1042C8.38448 16.1595 10.2765 14.4691 12.3915 13.0909C16.1738 10.6173 20.1638 8.61612 24.6851 7.87157C27.021 7.49102 29.3485 7.35038 31.6428 8.11975C34.4857 9.07112 35.6994 11.4206 34.8847 14.2913C34.3523 16.2325 33.2034 17.9505 31.6095 19.1887C28.8664 21.3562 25.6161 22.5219 22.242 23.771Z" fill="#E7A257"/>
<path d="M43.2556 34.3105C42.9314 34.5008 42.5407 34.7242 42.1085 34.9724C42.0087 34.9641 41.884 35.0634 41.776 35.1213C40.7701 35.6507 39.7809 36.2133 38.7668 36.7179C33.9454 39.0591 26.6719 41.905 19.0575 42.3186C16.8744 42.3413 14.696 42.1137 12.5653 41.6402C7.62757 40.5151 3.37149 38.2236 0.104614 34.203C0.162803 36.3787 1.1437 38.0829 2.93092 39.1088C8.34246 42.2193 13.7706 45.3134 19.1655 48.4487C21.3185 49.7062 23.3967 49.6814 25.533 48.4322L30.6869 45.4623C31.2771 45.1479 31.8673 44.8253 32.4242 44.4613L35.9322 42.4344C37.8358 41.3424 39.7366 40.2477 41.6347 39.1501C43.7627 37.9009 44.6023 35.9816 44.5524 33.5164C44.0851 33.7198 43.6487 33.9871 43.2556 34.3105Z" fill="black"/>
</svg>
