<?xml version="1.0" encoding="UTF-8"?>
<!DOCTYPE svg PUBLIC "-//W3C//DTD SVG 1.1//EN" "http://www.w3.org/Graphics/SVG/1.1/DTD/svg11.dtd">
<!-- Creator: CorelDRAW -->
<svg xmlns="http://www.w3.org/2000/svg" xml:space="preserve" width="190.029mm" height="82.3383mm" version="1.1" style="shape-rendering:geometricPrecision; text-rendering:geometricPrecision; image-rendering:optimizeQuality; fill-rule:evenodd; clip-rule:evenodd"
viewBox="0 0 1205.09 522.16"
 xmlns:xlink="http://www.w3.org/1999/xlink"
 xmlns:xodm="http://www.corel.com/coreldraw/odm/2003">
 <defs>
  <style type="text/css">
   <![CDATA[
    .fil3 {fill:#FEFEFE}
    .fil0 {fill:black}
    .fil2 {fill:black}
    .fil1 {fill:#E7A257}
    .fil5 {fill:#FEFEFE;fill-rule:nonzero}
    .fil4 {fill:black;fill-rule:nonzero}
   ]]>
  </style>
 </defs>
 <g id="Слой_x0020_1">
  <metadata id="CorelCorpID_0Corel-Layer"/>
  <g id="_2039038103104">
   <g>
    <path class="fil0" d="M790.68 405.58l414.4 0 0 24.91 -414.4 0 0 -24.91zm-708.59 -22.45l0 -189.32 -69.22 0 0 -44.75 197.37 0 0 44.75 -69.22 0 0 189.32 -58.92 0zm427.72 47.36l-33.76 0 -38.04 0 -425.15 0 0 -24.91 406.52 0 -81.08 -108.41 -20.82 0 0 85.96 -58.6 0 0 -234.07 94.18 0c12.99,0 24.31,0.81 33.97,2.42 9.66,1.66 18.57,5.04 26.72,10.14 8.37,5.37 15.03,12.13 19.96,20.34 4.94,8.21 7.4,18.67 7.4,31.34 0,17.92 -4.03,32.41 -12.13,43.57 -8.1,11.16 -18.89,20.02 -32.46,26.62l113.29 147.01zm-129.23 -209.96c0,-5.9 -1.12,-10.95 -3.38,-15.19 -2.26,-4.24 -5.96,-7.57 -11.16,-9.87 -3.65,-1.56 -7.73,-2.52 -12.23,-2.95 -4.51,-0.43 -10.09,-0.64 -16.74,-0.64l-19.59 0 0 63.1 16.74 0c8.16,0 15.08,-0.48 20.77,-1.5 5.69,-0.97 10.52,-3.11 14.49,-6.39 3.76,-2.9 6.55,-6.44 8.37,-10.52 1.83,-4.08 2.74,-9.44 2.74,-16.04zm495.05 166.78c-17.87,0 -33.59,-1.72 -47.17,-5.2 -13.58,-3.44 -26.13,-7.73 -37.78,-12.88l0 -55.65 5.31 0c11.75,9.93 24.63,17.55 38.74,22.91 14.11,5.31 27.8,7.99 41.1,7.99 3.33,0 7.73,-0.37 13.2,-1.07 5.53,-0.75 9.93,-1.88 13.26,-3.49 4.08,-1.77 7.57,-4.24 10.36,-7.41 2.84,-3.22 4.24,-7.41 4.24,-12.61 0,-5.85 -2.31,-10.62 -6.92,-14.33 -4.56,-3.65 -10.09,-6.33 -16.47,-7.99 -7.94,-2.09 -16.42,-4.08 -25.49,-5.96 -9.07,-1.88 -17.49,-4.19 -25.33,-6.92 -18.14,-6.39 -31.07,-14.97 -38.96,-25.76 -7.83,-10.79 -11.75,-24.31 -11.75,-40.57 0,-21.89 9.28,-39.6 27.8,-53.18 18.57,-13.58 41.7,-20.34 69.44,-20.34 13.95,0 27.8,1.4 41.59,4.24 13.74,2.84 26.08,6.65 36.97,11.48l0 53.5 -5.15 0c-8.69,-7.41 -19.26,-13.63 -31.77,-18.73 -12.5,-5.1 -25.33,-7.67 -38.53,-7.67 -5.1,0 -9.71,0.37 -13.79,1.07 -4.08,0.75 -8.37,2.15 -12.88,4.24 -3.65,1.61 -6.82,4.08 -9.44,7.35 -2.68,3.27 -4.03,6.92 -4.03,11 0,5.96 2.09,10.68 6.33,14.22 4.24,3.49 12.45,6.65 24.58,9.5 7.83,1.77 15.4,3.49 22.7,5.15 7.24,1.72 15.03,3.97 23.29,6.92 16.21,5.85 28.28,13.74 36.17,23.66 7.89,9.87 11.86,22.97 11.86,39.17 0,23.29 -9.12,41.96 -27.42,56.13 -18.25,14.11 -42.93,21.19 -74.05,21.19zm201.31 -4.19l0 -189.32 -69.22 0 0 -44.75 197.37 0 0 44.75 -69.22 0 0 189.32 -58.92 0z"/>
    <path class="fil1" d="M777.82 395.83l414.4 0 0 24.91 -414.4 0 0 -24.91zm-708.59 -22.45l0 -189.32 -69.22 0 0 -44.75 197.37 0 0 44.75 -69.22 0 0 189.32 -58.92 0zm427.72 47.36l-33.76 0 -38.04 0 -425.15 0 0 -24.91 406.52 0 -81.08 -108.41 -20.82 0 0 85.96 -58.6 0 0 -234.07 94.18 0c12.99,0 24.31,0.81 33.97,2.42 9.66,1.66 18.57,5.04 26.72,10.14 8.37,5.37 15.03,12.13 19.96,20.34 4.94,8.21 7.4,18.67 7.4,31.34 0,17.92 -4.03,32.41 -12.13,43.57 -8.1,11.16 -18.89,20.02 -32.46,26.62l113.29 147.01zm-129.23 -209.96c0,-5.9 -1.13,-10.95 -3.38,-15.19 -2.26,-4.24 -5.96,-7.57 -11.16,-9.87 -3.65,-1.56 -7.73,-2.52 -12.23,-2.95 -4.51,-0.43 -10.09,-0.64 -16.74,-0.64l-19.59 0 0 63.1 16.74 0c8.16,0 15.08,-0.48 20.77,-1.5 5.69,-0.97 10.52,-3.11 14.49,-6.39 3.76,-2.9 6.55,-6.44 8.37,-10.52 1.83,-4.08 2.74,-9.44 2.74,-16.04zm495.05 166.78c-17.87,0 -33.59,-1.72 -47.17,-5.2 -13.58,-3.44 -26.13,-7.73 -37.78,-12.88l0 -55.65 5.31 0c11.75,9.93 24.63,17.55 38.74,22.91 14.11,5.31 27.8,8 41.1,8 3.33,0 7.73,-0.38 13.2,-1.07 5.53,-0.75 9.93,-1.88 13.26,-3.49 4.08,-1.77 7.57,-4.24 10.36,-7.41 2.84,-3.22 4.24,-7.41 4.24,-12.61 0,-5.85 -2.31,-10.62 -6.92,-14.33 -4.56,-3.65 -10.09,-6.33 -16.47,-7.99 -7.94,-2.09 -16.42,-4.08 -25.49,-5.96 -9.07,-1.88 -17.49,-4.19 -25.33,-6.92 -18.14,-6.39 -31.07,-14.97 -38.96,-25.76 -7.83,-10.79 -11.75,-24.31 -11.75,-40.57 0,-21.89 9.28,-39.6 27.8,-53.18 18.57,-13.58 41.7,-20.34 69.44,-20.34 13.95,0 27.8,1.4 41.59,4.24 13.74,2.84 26.08,6.65 36.97,11.48l0 53.5 -5.15 0c-8.69,-7.41 -19.26,-13.63 -31.77,-18.73 -12.5,-5.1 -25.33,-7.67 -38.53,-7.67 -5.1,0 -9.71,0.38 -13.79,1.07 -4.08,0.75 -8.37,2.15 -12.88,4.24 -3.65,1.61 -6.82,4.08 -9.44,7.35 -2.68,3.27 -4.03,6.92 -4.03,11 0,5.96 2.09,10.68 6.33,14.22 4.24,3.49 12.45,6.65 24.58,9.5 7.83,1.77 15.4,3.49 22.7,5.15 7.24,1.72 15.02,3.97 23.29,6.92 16.2,5.85 28.28,13.74 36.17,23.66 7.89,9.87 11.86,22.97 11.86,39.17 0,23.29 -9.12,41.96 -27.42,56.13 -18.25,14.11 -42.93,21.19 -74.05,21.19zm201.31 -4.19l0 -189.32 -69.22 0 0 -44.75 197.37 0 0 44.75 -69.22 0 0 189.32 -58.92 0z"/>
    <g>
     <path class="fil2" d="M640.15 40.15c37.83,8.8 79.44,-29.77 115.35,9.03 6.02,6.5 10.89,18 14,28.58 8.73,-2.11 17.49,-4.15 26.25,-6.12 -7.92,-26.28 -23.54,-49.59 -51.5,-58.25 -47.26,-14.64 -73.25,26.01 -104.11,26.76zm34.53 39.08c18.53,-1.64 35.57,-6.45 38.07,-16.84 -6.62,3.37 -40.2,4.03 -50.7,2.57 -34.26,-4.84 -56.12,-37.79 -87.86,-50.07 -24.45,-9.46 -48.61,-17.14 -72.59,-2.12 -41.81,26.17 -41.31,118.31 -19.77,164.25 1.98,-1.22 3.96,-2.43 5.96,-3.63 6.7,-4.03 13.54,-7.93 20.49,-11.71 -12.9,-31.02 -18.29,-68.91 -7.09,-100.22 8.44,-23.57 23.3,-27.44 44.68,-24.47 -35.58,13.48 -33.47,84.84 -16.78,113.88 5.78,-2.87 11.63,-5.67 17.53,-8.39 -9.99,-20.7 -15.12,-48.69 -7.22,-70.78 5.91,-16.51 16.69,-18.11 32.41,-15.3 33.35,8.21 69.99,48.8 102.88,22.82zm80.43 48.75l-64.7 -2.73 -5.9 67.06 69.21 -0.68 1.39 -63.65zm-241.71 63.23c3.09,0.85 32.55,1.17 69.61,1.25l-3.1 -35.23c-22.88,10.57 -44.74,20.97 -66.52,33.98zm43.59 186.25c1.37,19.36 4.96,16.43 14.62,21.75l49.95 25.86c10.72,5.55 10.06,7.87 21.28,1.97 8.82,-4.64 41.67,-18.65 57.96,-29.78 10.83,-7.4 9.08,-9.2 11.52,-21.05 1.49,-7.23 3.05,-15.06 3.03,-18.64 -57.06,14.05 -98.62,19.96 -158.36,19.89zm-8.55 -50.03c-0.96,4.08 2.01,15.04 2.13,21.92 -7.22,3.17 -25.18,7.94 -25.37,17.1 54,-1.36 157.51,-13.78 218.18,-26.99 -0.94,-11.11 -20.76,-4.97 -21.58,-12.59 -0.48,-4.44 2.87,-18.37 3.8,-23.59 -59.79,13.12 -106.06,22.79 -177.16,24.15zm-9.85 -49.56l2.83 20.16c-8.89,2.35 -27.32,10.02 -28.46,18.3l91.91 -12.01c-5.9,-7.6 -10.41,-17.49 -13.21,-28.62 -16.87,1.41 -36.24,2.29 -53.07,2.17zm129.53 18.01c43.09,-5.73 84.52,-11.35 86.84,-12.63 -1.05,-11.75 -21.39,-4.94 -22.49,-12.65 -0.6,-4.17 3.14,-15.94 3.71,-22.5 -6.33,-0.05 -44.65,11.56 -57.91,14.37 -1.5,12.45 -5.01,23.98 -10.15,33.4zm-136.49 -50.09c-6.59,4.25 -31.47,11.04 -30.62,21.04 1.58,0.16 40.16,-5.48 87.43,-12.57l-3.77 -42.89 -58.5 -0.06c-0.33,11.21 5.14,23.01 5.46,34.48zm148.65 -5.42c47.54,-7.25 85.97,-13.18 86.23,-13.32 -0.19,-5.27 -4.56,-6.45 -9.29,-7.44 -6.12,-1.28 -7.45,-1.97 -14.16,-2.4 -0.65,-3.69 0.21,-3.05 -1.37,-5.69l-58.86 -0.06 -2.54 28.9z"/>
     <path class="fil3" d="M629.71 35.84c37.83,8.8 79.44,-29.77 115.35,9.03 6.02,6.5 10.89,18 14,28.58 8.73,-2.11 17.49,-4.15 26.25,-6.12 -7.92,-26.28 -23.54,-49.59 -51.5,-58.25 -47.26,-14.64 -73.25,26.01 -104.11,26.76zm34.53 39.08c18.53,-1.64 35.57,-6.45 38.07,-16.84 -6.62,3.37 -40.2,4.03 -50.7,2.57 -34.26,-4.84 -56.12,-37.79 -87.86,-50.07 -24.45,-9.46 -48.61,-17.14 -72.59,-2.12 -41.81,26.17 -41.31,118.31 -19.77,164.25 1.98,-1.22 3.96,-2.43 5.96,-3.63 6.7,-4.03 13.54,-7.93 20.49,-11.71 -12.9,-31.02 -18.29,-68.91 -7.09,-100.22 8.44,-23.57 23.3,-27.44 44.68,-24.47 -35.58,13.48 -33.47,84.84 -16.78,113.88 5.78,-2.87 11.63,-5.67 17.53,-8.39 -9.99,-20.7 -15.12,-48.69 -7.22,-70.78 5.91,-16.51 16.69,-18.11 32.41,-15.3 33.35,8.21 69.99,48.8 102.88,22.82zm80.43 48.75l-64.7 -2.73 -5.9 67.06 69.21 -0.68 1.39 -63.65zm-241.71 63.23c3.09,0.85 32.55,1.17 69.61,1.25l-3.1 -35.23c-22.88,10.57 -44.74,20.97 -66.52,33.98zm43.59 186.25c1.37,19.36 4.96,16.43 14.62,21.75l49.95 25.86c10.72,5.55 10.06,7.87 21.28,1.97 8.82,-4.64 41.67,-18.65 57.96,-29.78 10.83,-7.41 9.08,-9.2 11.52,-21.05 1.49,-7.23 3.05,-15.06 3.03,-18.64 -57.06,14.05 -98.62,19.96 -158.36,19.89zm-8.55 -50.03c-0.96,4.08 2.01,15.04 2.13,21.92 -7.22,3.17 -25.18,7.94 -25.37,17.1 54,-1.36 157.51,-13.78 218.18,-26.99 -0.94,-11.11 -20.76,-4.97 -21.58,-12.59 -0.48,-4.44 2.87,-18.37 3.8,-23.59 -59.79,13.12 -106.06,22.79 -177.15,24.15zm-9.85 -49.56l2.83 20.16c-8.89,2.35 -27.32,10.02 -28.46,18.3l91.91 -12.01c-5.9,-7.6 -10.41,-17.49 -13.21,-28.62 -16.87,1.41 -36.24,2.29 -53.07,2.17zm129.53 18.01c43.09,-5.73 84.52,-11.35 86.84,-12.62 -1.05,-11.75 -21.39,-4.94 -22.49,-12.65 -0.6,-4.17 3.14,-15.94 3.71,-22.5 -6.33,-0.05 -44.66,11.56 -57.91,14.37 -1.5,12.45 -5.01,23.98 -10.15,33.4zm-136.49 -50.09c-6.59,4.25 -31.47,11.04 -30.62,21.04 1.58,0.16 40.16,-5.48 87.43,-12.57l-3.77 -42.89 -58.5 -0.06c-0.33,11.21 5.14,23.01 5.46,34.48zm148.65 -5.42c47.54,-7.25 85.97,-13.18 86.23,-13.32 -0.19,-5.27 -4.56,-6.45 -9.29,-7.44 -6.12,-1.28 -7.45,-1.97 -14.16,-2.4 -0.65,-3.69 0.21,-3.05 -1.37,-5.69l-58.86 -0.06 -2.54 28.9z"/>
    </g>
    <g>
     <path class="fil4" d="M323.37 512l21.98 0c3,0 5.31,-0.29 6.91,-0.89 1.61,-0.59 2.71,-1.5 3.31,-2.73 0.6,-1.24 0.9,-2.92 0.9,-5.06l0 -13.38c0,-3.05 -0.79,-5.25 -2.37,-6.62 -1.57,-1.37 -4.49,-2.06 -8.75,-2.06l-21.98 0 0 30.74zm-12.21 -40.89l39.41 0c3.17,0 5.9,0.34 8.15,1.03 2.27,0.68 4.13,1.78 5.58,3.25 1.46,1.48 2.54,3.38 3.25,5.72 0.72,2.33 1.09,5.21 1.13,8.62l0 13.52c0,4.45 -0.59,8.07 -1.76,10.84 -1.18,2.77 -3.09,4.81 -5.74,6.1 -2.65,1.31 -6.15,1.96 -10.53,1.96l-39.48 0 0 -51.04zm118.48 51.04l0 -51.04 52.16 0 0 9.63 -39.95 0 0 11.18 38.69 0 0 8.9 -38.69 0 0 11.69 39.95 0 0 9.63 -52.16 0zm113.18 0l0 -51.04 20.52 0 31.11 40.89 1.69 0 0 -40.89 12.21 0 0 51.04 -20.95 0 -30.68 -40.88 -1.69 0 0 40.88 -12.21 0zm124.79 -51.04l55.09 0 0 10.15 -21.54 0 0 40.89 -12.21 0 0 -40.89 -21.34 0 0 -10.15zm123.04 51.04l-14.26 0 27.07 -51.04 18.09 0 26.85 51.04 -14.34 0 -6.56 -12.87 -30.22 0 -6.63 12.87zm11.55 -22.51l20.38 0 -9.72 -18.98 -0.58 0 -10.09 18.98zm102.3 22.51l0 -51.04 12.21 0 0 40.89 31.57 0 0 10.15 -43.77 0z"/>
     <path class="fil5" d="M316.6 507.18l21.98 0c3,0 5.31,-0.29 6.91,-0.89 1.61,-0.59 2.71,-1.5 3.31,-2.73 0.6,-1.24 0.9,-2.92 0.9,-5.06l0 -13.38c0,-3.05 -0.78,-5.25 -2.37,-6.62 -1.57,-1.37 -4.49,-2.06 -8.75,-2.06l-21.98 0 0 30.74zm-12.21 -40.89l39.41 0c3.17,0 5.9,0.34 8.15,1.03 2.27,0.68 4.13,1.78 5.58,3.25 1.46,1.48 2.54,3.38 3.25,5.72 0.72,2.33 1.09,5.21 1.13,8.62l0 13.52c0,4.45 -0.59,8.07 -1.76,10.84 -1.18,2.77 -3.09,4.81 -5.74,6.1 -2.65,1.31 -6.15,1.96 -10.53,1.96l-39.48 0 0 -51.04zm118.48 51.04l0 -51.04 52.16 0 0 9.63 -39.95 0 0 11.18 38.69 0 0 8.9 -38.69 0 0 11.69 39.95 0 0 9.63 -52.16 0zm113.19 0l0 -51.04 20.52 0 31.11 40.89 1.69 0 0 -40.89 12.21 0 0 51.04 -20.95 0 -30.68 -40.88 -1.69 0 0 40.88 -12.21 0zm124.79 -51.04l55.09 0 0 10.15 -21.54 0 0 40.89 -12.21 0 0 -40.89 -21.34 0 0 -10.15zm123.04 51.04l-14.26 0 27.07 -51.04 18.09 0 26.85 51.04 -14.34 0 -6.56 -12.87 -30.22 0 -6.63 12.87zm11.55 -22.51l20.39 0 -9.72 -18.98 -0.58 0 -10.09 18.98zm102.3 22.51l0 -51.04 12.21 0 0 40.89 31.57 0 0 10.15 -43.77 0z"/>
    </g>
   </g>
   <g>
    <g>
     <polygon class="fil2" points="993.23,491.47 1103.59,491.47 1103.59,501.72 993.23,501.72 "/>
     <polygon class="fil2" points="128.36,491.47 238.72,491.47 238.72,501.72 128.36,501.72 "/>
    </g>
    <g>
     <polygon class="fil3" points="988.81,485.86 1099.17,485.86 1099.17,496.11 988.81,496.11 "/>
     <polygon class="fil3" points="123.94,485.86 234.3,485.86 234.3,496.11 123.94,496.11 "/>
    </g>
   </g>
  </g>
 </g>
</svg>
