<svg width="40" height="43" viewBox="0 0 40 43" fill="none" xmlns="http://www.w3.org/2000/svg">
<path d="M19.9905 21.5777V11.3478C17.2074 12.7578 14.5039 14.1319 11.7353 15.5347C11.8943 15.6282 11.9377 15.6642 11.9739 15.6714C13.1449 15.729 13.1449 15.7289 13.0726 16.8656C12.8485 20.5058 12.622 24.1484 12.3931 27.7934C12.3353 28.6639 12.1546 29.5128 12.1979 30.4048C12.2341 31.0882 12.1835 31.2177 12.9859 30.9875C16.4195 29.9948 19.8387 28.9516 23.1495 27.5919C26.4963 26.2107 29.7276 24.6352 32.4817 22.2324C34.3395 20.6137 35.8503 18.7648 36.3925 16.2829C37.1226 12.9592 35.7346 9.63559 32.8576 7.80111C30.183 6.08892 27.2048 5.86591 24.147 6.03137C22.1302 6.14648 20.1568 6.61409 18.2628 7.2112C16.3689 7.8083 14.5907 8.78669 12.8052 9.70034C11.2727 10.4845 9.90644 11.4845 8.56913 12.5132C6.96436 13.7506 5.67764 15.3405 4.44876 16.9519C2.81507 19.0886 1.34764 21.3331 0.133218 23.8007V23.0381C0.133218 20.0166 0.125989 17.0023 0.133218 13.9808C0.140446 11.9737 1.02235 10.4557 2.76447 9.44855C7.60048 6.66445 12.4293 3.86596 17.2942 1.11784C19.152 0.0675057 20.9447 0.0387287 22.9254 1.21136C24.4073 2.08903 25.9108 2.9739 27.4289 3.79402C28.9107 4.59976 30.3348 5.54937 31.8095 6.3551C33.6094 7.3335 35.366 8.38382 37.1732 9.34783C39.1032 10.3838 40.0141 12.0096 39.9924 14.1894C39.9779 15.729 39.9779 17.2613 39.9996 18.8008C40.0068 19.1893 39.9056 19.4771 39.6092 19.736C33.0962 25.4409 25.9325 29.9804 17.4026 32.0594C15.1473 32.6062 12.8485 32.894 10.5353 32.4695C7.75952 31.9587 5.29452 30.8293 3.73312 28.3617C2.15726 25.8654 2.46086 23.3187 3.63915 20.7072C4.04395 19.8152 4.55719 18.9879 4.98369 18.1174C5.27284 17.5203 5.76439 17.0167 6.18365 16.4987C7.61633 14.7614 9.30535 13.2503 11.1932 12.0168C14.569 9.80825 18.1327 8.01693 22.1729 7.35508C24.2547 7.00976 26.3366 6.88746 28.3896 7.57809C30.9341 8.42699 32.0184 10.5277 31.281 13.0887C30.8046 14.8227 29.7776 16.357 28.3534 17.4627C25.9029 19.4123 23.0042 20.4554 19.9905 21.5777Z" fill="black"/>
<path d="M19.34 20.6714V10.7148C16.6293 12.0889 13.998 13.427 11.3017 14.7938C11.4607 14.8802 11.4969 14.9233 11.533 14.9233C12.6752 14.9809 12.6679 14.9809 12.6029 16.0888C12.3788 19.6354 12.1691 23.1821 11.9378 26.7216C11.88 27.5705 11.6993 28.3906 11.7499 29.2611C11.786 29.9229 11.7354 30.0524 12.5161 29.8294C15.863 28.8654 19.1882 27.8511 22.405 26.5202C25.6579 25.1821 28.8096 23.6425 31.4843 21.3045C33.2915 19.729 34.7661 17.9305 35.2938 15.5133C36.0022 12.2759 34.6505 9.0458 31.8529 7.25448C29.2506 5.59266 26.3519 5.36964 23.3737 5.5351C21.4074 5.64301 19.4918 6.10343 17.6485 6.68615C15.8052 7.26887 14.0775 8.21849 12.3354 9.11055C10.8463 9.87312 9.5162 10.8515 8.21503 11.8515C6.65363 13.0601 5.40306 14.6068 4.2031 16.1751C2.61278 18.2614 1.18149 20.4412 0.00321276 22.844V22.103C0.00321276 19.1678 -0.00401595 16.2255 0.00321276 13.2903C0.0104415 11.3407 0.863432 9.85873 2.56218 8.88034C7.26807 6.16818 11.974 3.44164 16.7015 0.765449C18.5087 -0.256106 20.2581 -0.284883 22.1809 0.858971C23.6194 1.71506 25.0869 2.57116 26.5687 3.37689C28.0073 4.16104 29.3952 5.08188 30.8337 5.86603C32.583 6.82284 34.2962 7.8372 36.0528 8.77962C37.9323 9.78679 38.8214 11.3695 38.7997 13.4917C38.7853 14.9881 38.7877 16.4844 38.807 17.9808C38.8142 18.3549 38.713 18.6355 38.4311 18.8873C32.0915 24.4339 25.1158 28.8582 16.81 30.8869C14.6197 31.4193 12.3788 31.6999 10.1234 31.2826C7.41988 30.7862 5.01994 29.6855 3.50191 27.2899C1.96943 24.8655 2.2658 22.3836 3.41517 19.8369C3.80552 18.9664 4.3043 18.1679 4.72356 17.319C5.00548 16.7362 5.48258 16.247 5.89462 15.7435C7.28947 14.0524 8.93477 12.5824 10.774 11.3839C14.0631 9.23285 17.5329 7.49261 21.4646 6.84514C23.4958 6.51422 25.5199 6.39192 27.515 7.06096C29.9872 7.88828 31.0426 9.93139 30.3342 12.4277C29.8711 14.1159 28.8721 15.6098 27.4861 16.6866C25.1006 18.5714 22.2742 19.5851 19.34 20.6714Z" fill="#E7A257"/>
<path d="M37.6135 29.8361C37.3316 30.0016 36.9918 30.1958 36.6159 30.4117C36.5292 30.4045 36.4208 30.4908 36.3268 30.5412C35.4521 31.0016 34.5919 31.4908 33.71 31.9296C29.5173 33.9655 23.1922 36.4403 16.5707 36.8C14.6723 36.8197 12.778 36.6218 10.9251 36.2101C6.63122 35.2317 2.93012 33.2389 0.0892334 29.7426C0.139834 31.6346 0.992823 33.1166 2.547 34.0087C7.25289 36.7137 11.9732 39.4042 16.6647 42.1308C18.5369 43.2243 20.3441 43.2027 22.2019 42.1164L26.6837 39.5337C27.1969 39.2603 27.7102 38.9798 28.1945 38.6632L31.245 36.9007C32.9004 35.9511 34.5533 34.9991 36.2039 34.0447C38.0545 32.9584 38.7846 31.2893 38.7412 29.1455C38.3349 29.3224 37.9553 29.5549 37.6135 29.8361Z" fill="white"/>
</svg>
