<svg width="98" height="19" viewBox="0 0 98 19" fill="none" xmlns="http://www.w3.org/2000/svg">
<path d="M12.2985 14.206H9.99878L11.4374 5.31543H13.735L12.2985 14.206Z" fill="white"/>
<path d="M20.6338 5.53186C19.9755 5.27922 19.2759 5.1512 18.5708 5.15435C16.2997 5.15435 14.6938 6.36439 14.6938 8.09476C14.6755 9.37214 15.8386 10.0822 16.7078 10.5087C17.5771 10.9352 17.9097 11.227 17.9097 11.6106C17.8995 12.2064 17.1894 12.4819 16.5283 12.4819C15.7789 12.5071 15.0348 12.348 14.3612 12.0187L14.0572 11.8759L13.7368 13.8715C14.5538 14.1888 15.4233 14.3494 16.2997 14.3449C18.7137 14.3449 20.2828 13.1532 20.3012 11.3086C20.3012 10.2883 19.689 9.52109 18.3729 8.88649C17.5689 8.47838 17.0751 8.20699 17.0751 7.79073C17.0853 7.41119 17.4832 7.02349 18.3994 7.02349C18.9885 7.00667 19.5737 7.12316 20.1114 7.36425L20.3155 7.45812L20.6297 5.53797L20.6338 5.53186Z" fill="white"/>
<path d="M23.6885 11.0575C23.8782 10.5453 24.6067 8.56803 24.6067 8.56803C24.6067 8.56803 24.7944 8.04769 24.9087 7.71712L25.0699 8.48437C25.0699 8.48437 25.5045 10.6126 25.5984 11.0575H23.6885ZM26.5269 5.31543H24.7475C24.1986 5.31543 23.7823 5.47663 23.5456 6.05206L20.1318 14.2142H22.5437C22.5437 14.2142 22.9416 13.1164 23.0253 12.8817H25.978C26.0432 13.1939 26.2514 14.2142 26.2514 14.2142H28.3817L26.5269 5.32359V5.31543Z" fill="white"/>
<path d="M8.08046 5.31543L5.83588 11.3778L5.59101 10.1535C5.18291 8.72515 3.8688 7.19272 2.41187 6.42548L4.47484 14.2019H6.89083L10.5046 5.3195L8.08046 5.31543Z" fill="white"/>
<path d="M3.73825 5.31543H0.0387706L0 5.495C2.88531 6.23367 4.79729 8.01097 5.5829 10.1494L4.77893 6.06839C4.6463 5.50112 4.23818 5.33991 3.73825 5.32154V5.31543Z" fill="white"/>
<path d="M83.58 6.21918L81.5762 10.5635H81.3721V5.27441H78.5154V14.2262H80.9334C81.2442 14.2254 81.5484 14.1359 81.8101 13.9682C82.0718 13.8005 82.2802 13.5615 82.4108 13.2794L84.4166 8.93512H84.6206V14.2262H87.4774V5.27441H85.0594C84.7484 5.27463 84.444 5.36367 84.1819 5.53104C83.9198 5.69841 83.711 5.93715 83.58 6.21918Z" fill="white"/>
<path d="M72.8937 6.45025L71.7081 10.564H71.5041L70.3185 6.45025C70.2197 6.1115 70.0138 5.81388 69.7317 5.60199C69.4495 5.3901 69.1063 5.27534 68.7534 5.2749H65.9089V14.2267H68.7657V8.93561H68.9697L70.6022 14.2267H72.6427L74.2751 8.93561H74.4792V14.2267H77.3359V5.2749H74.4608C74.1079 5.27534 73.7647 5.3901 73.4826 5.60199C73.2004 5.81388 72.9945 6.1115 72.8957 6.45025" fill="white"/>
<path d="M88.6975 9.34339V14.2264H91.54V11.3696H94.6008C95.2319 11.3674 95.8469 11.1702 96.3616 10.8049C96.8763 10.4396 97.2655 9.92415 97.4759 9.3291L88.6975 9.34339Z" fill="white"/>
<path d="M94.5966 5.2745H88.2893C88.4796 6.30284 89.024 7.23205 89.828 7.90078C90.6321 8.5695 91.6449 8.9355 92.6907 8.93521H97.588C97.6284 8.73366 97.6489 8.52862 97.6492 8.32306C97.6465 7.51305 97.3229 6.73715 96.7491 6.16534C96.1754 5.59354 95.3984 5.27246 94.5884 5.27246" fill="white"/>
<path d="M54.8054 16.5841C54.9811 16.5148 55.1766 16.5148 55.3523 16.5841C55.3074 16.7106 55.2666 16.8392 55.2257 16.9657C55.1505 16.934 55.0697 16.9176 54.988 16.9176C54.9064 16.9176 54.8256 16.934 54.7503 16.9657C54.6889 17.0135 54.6403 17.0758 54.609 17.1471C54.5776 17.2183 54.5645 17.2962 54.5707 17.3738C54.5707 17.7288 54.5707 18.0839 54.5707 18.4389H54.1626C54.1626 17.8268 54.1626 17.1922 54.1626 16.5698H54.5707C54.5707 16.6433 54.5707 16.7167 54.5707 16.7902C54.6314 16.6989 54.7142 16.6244 54.8115 16.5739L54.8054 16.5841ZM52.4812 16.9494C52.3715 16.9935 52.2779 17.0701 52.213 17.1689C52.148 17.2678 52.1149 17.3841 52.118 17.5023C52.1114 17.6236 52.1428 17.7439 52.2079 17.8463C52.2731 17.9488 52.3686 18.0283 52.4812 18.0737C52.5858 18.1123 52.6992 18.1198 52.8079 18.0951C52.9166 18.0705 53.0158 18.0148 53.0934 17.9349C53.2009 17.8092 53.2565 17.6473 53.249 17.482C53.2414 17.3168 53.1712 17.1606 53.0526 17.0453C52.9749 16.9808 52.8817 16.9376 52.7822 16.9201C52.6827 16.9026 52.5804 16.9112 52.4853 16.9453L52.4812 16.9494ZM52.0568 16.7249C52.2236 16.5871 52.4365 16.5178 52.6525 16.531C52.8684 16.5443 53.0713 16.6391 53.2199 16.7963C53.2199 16.7229 53.2199 16.6514 53.2199 16.58H53.628V18.4512H53.2199C53.2199 18.3777 53.2199 18.3063 53.2199 18.2329C53.0672 18.3945 52.8573 18.4901 52.6351 18.4993C52.4128 18.5084 52.1958 18.4304 52.0303 18.2818C51.9222 18.1823 51.8364 18.0611 51.7786 17.9261C51.7207 17.791 51.6921 17.6453 51.6946 17.4984C51.6971 17.3516 51.7307 17.2069 51.7931 17.0739C51.8555 16.9409 51.9454 16.8227 52.0568 16.7269V16.7249ZM50.153 16.7535C50.284 16.6526 50.4358 16.582 50.5974 16.5467C50.759 16.5114 50.9264 16.5123 51.0876 16.5494C51.2373 16.5858 51.3768 16.6555 51.4957 16.7535C51.4277 16.8609 51.3596 16.9711 51.2916 17.084C51.1668 16.9946 51.0216 16.9378 50.8692 16.9187C50.7708 16.9064 50.6708 16.9203 50.5794 16.959C50.488 16.9977 50.4085 17.0598 50.3489 17.1391C50.2887 17.2303 50.2512 17.3346 50.2395 17.4432C50.2278 17.5518 50.2422 17.6616 50.2816 17.7635C50.3146 17.85 50.3697 17.9263 50.4412 17.985C50.5128 18.0436 50.5984 18.0827 50.6897 18.0982C50.7969 18.116 50.9066 18.1114 51.012 18.0847C51.1173 18.058 51.216 18.0098 51.3018 17.9431C51.3671 18.0553 51.4345 18.1635 51.5059 18.2757C51.3317 18.4145 51.1164 18.4913 50.8937 18.494C50.7341 18.5087 50.5733 18.4844 50.4251 18.4233C50.2769 18.3621 50.1457 18.266 50.0428 18.1431C49.8872 17.9373 49.8139 17.6808 49.8373 17.4238C49.8606 17.1668 49.9791 16.9278 50.1693 16.7535H50.153ZM49.1613 16.5821C49.3349 16.5168 49.5264 16.5168 49.7 16.5821C49.6612 16.7127 49.6184 16.8392 49.5735 16.9677C49.4245 16.9065 49.2573 16.9065 49.1082 16.9677C49.0476 17.0104 48.9989 17.0678 48.9668 17.1346C48.9347 17.2014 48.9201 17.2753 48.9246 17.3493C48.9246 17.7166 48.9246 18.0818 48.9246 18.4471H48.5165C48.5165 17.8349 48.5165 17.2003 48.5165 16.578H48.9246C48.9246 16.6494 48.9246 16.7208 48.9246 16.782C48.9871 16.6947 49.0706 16.6245 49.1674 16.578L49.1613 16.5821ZM46.8351 17.0493C46.7672 17.1358 46.721 17.2372 46.7004 17.3452C47.0269 17.3452 47.3513 17.3452 47.6778 17.3452C47.6578 17.2114 47.5939 17.0879 47.4962 16.9942C47.3988 16.9203 47.2775 16.8849 47.1555 16.8947C47.0336 16.9044 46.9195 16.9588 46.8351 17.0473V17.0493ZM46.4923 16.8555C46.5724 16.7614 46.6705 16.6844 46.7809 16.6289C46.8913 16.5734 47.0116 16.5406 47.1349 16.5324C47.2582 16.5242 47.3818 16.5408 47.4986 16.5813C47.6153 16.6217 47.7227 16.6851 47.8145 16.7678C47.9239 16.8887 48.0054 17.0321 48.0533 17.1879C48.1013 17.3438 48.1145 17.5082 48.0921 17.6697H46.6963C46.7086 17.7564 46.7417 17.8389 46.7929 17.9099C46.8441 17.981 46.9118 18.0386 46.9902 18.0778C47.1269 18.1273 47.2741 18.1402 47.4173 18.1151C47.5605 18.09 47.6947 18.0279 47.8064 17.9349C47.8737 18.037 47.939 18.139 48.0104 18.239C47.7659 18.4358 47.4535 18.5282 47.1412 18.4961C46.9825 18.4875 46.8289 18.4369 46.6962 18.3494C46.5635 18.2619 46.4565 18.1407 46.3862 17.9982C46.3001 17.8161 46.2649 17.6141 46.2843 17.4137C46.3037 17.2132 46.377 17.0218 46.4964 16.8596L46.4923 16.8555ZM42.8193 16.7086C43.0155 16.5697 43.2557 16.5073 43.4947 16.5331C43.7339 16.5378 43.9679 16.6039 44.1742 16.7249L43.9967 17.0555C43.778 16.9283 43.5232 16.8773 43.2723 16.9106C43.1703 16.9269 43.056 16.9963 43.056 17.1146C43.056 17.233 43.1724 17.2656 43.2601 17.282C43.5274 17.3309 43.8253 17.3289 44.0477 17.5085C44.101 17.5574 44.1435 17.6168 44.1726 17.6831C44.2016 17.7493 44.2167 17.8208 44.2167 17.8931C44.2167 17.9654 44.2016 18.0369 44.1726 18.1032C44.1435 18.1694 44.101 18.2288 44.0477 18.2777C43.8482 18.4369 43.5963 18.5155 43.3417 18.4981C43.0581 18.5007 42.7805 18.4167 42.5459 18.2573C42.6112 18.1512 42.6765 18.0533 42.7397 17.939C42.8612 18.0242 42.9989 18.0834 43.1443 18.1129C43.2896 18.1424 43.4395 18.1415 43.5845 18.1104C43.6845 18.09 43.7886 18.0125 43.7886 17.8962C43.7886 17.7798 43.6662 17.7554 43.5845 17.735C43.3193 17.6799 43.0214 17.686 42.801 17.5085C42.7452 17.4575 42.7009 17.3952 42.6711 17.3258C42.6414 17.2564 42.6267 17.1814 42.6283 17.1058C42.6298 17.0303 42.6475 16.956 42.6801 16.8878C42.7127 16.8196 42.7595 16.7592 42.8173 16.7106L42.8193 16.7086ZM41.0073 16.9514C40.5992 17.1024 40.5299 17.7329 40.8665 17.9961C40.967 18.0739 41.0905 18.1161 41.2175 18.1161C41.3446 18.1161 41.468 18.0739 41.5685 17.9961C41.6325 17.9377 41.6841 17.8669 41.7201 17.788C41.7561 17.7091 41.7758 17.6238 41.7781 17.5371C41.7804 17.4505 41.7652 17.3642 41.7334 17.2836C41.7016 17.2029 41.6538 17.1295 41.593 17.0677C41.5144 16.9982 41.4184 16.9514 41.3152 16.9323C41.212 16.9133 41.1056 16.9227 41.0073 16.9596V16.9514ZM40.587 16.729C40.7539 16.5891 40.968 16.5183 41.1854 16.5312C41.4028 16.5441 41.607 16.6397 41.7562 16.7984C41.7562 16.7249 41.7562 16.6514 41.7562 16.58H42.1643C42.1643 17.1922 42.1643 17.8268 42.1643 18.4491H41.7562C41.7562 18.3757 41.7562 18.3022 41.7562 18.2288C41.4481 18.6124 40.8155 18.5614 40.4972 18.2165C40.4043 18.1135 40.3329 17.993 40.287 17.8621C40.2412 17.7312 40.2219 17.5924 40.2302 17.4539C40.2386 17.3155 40.2744 17.18 40.3357 17.0556C40.397 16.9311 40.4824 16.8201 40.587 16.729ZM37.3119 16.8024C37.383 16.7131 37.4742 16.642 37.5781 16.5948C37.682 16.5477 37.7957 16.5259 37.9096 16.5313C38.0236 16.5367 38.1347 16.5691 38.2337 16.6258C38.3327 16.6825 38.4168 16.7619 38.4791 16.8575C38.544 16.7705 38.6255 16.6973 38.719 16.6421C38.8125 16.587 38.9161 16.5511 39.0236 16.5364C39.1311 16.5218 39.2405 16.5288 39.3454 16.5569C39.4502 16.5851 39.5483 16.6339 39.6341 16.7004C39.7122 16.7718 39.7739 16.8593 39.8147 16.9569C39.8556 17.0545 39.8747 17.1599 39.8708 17.2656C39.8708 17.6615 39.8708 18.0553 39.8708 18.4491H39.4627V17.3534C39.468 17.2751 39.4518 17.1968 39.4158 17.127C39.3798 17.0572 39.3255 16.9986 39.2586 16.9575C39.1601 16.9108 39.0484 16.9001 38.9429 16.9273C38.8373 16.9545 38.7447 17.0179 38.6811 17.1065C38.6194 17.2185 38.5918 17.3462 38.6016 17.4738C38.6016 17.8003 38.6016 18.1247 38.6016 18.4491H38.1935V17.384C38.2011 17.2982 38.1843 17.2121 38.1449 17.1355C38.1055 17.0589 38.0452 16.9951 37.971 16.9514C37.8748 16.9091 37.767 16.9008 37.6654 16.9278C37.5638 16.9549 37.4744 17.0158 37.4119 17.1004C37.3384 17.2444 37.3092 17.407 37.3283 17.5676C37.3283 17.8615 37.3283 18.1553 37.3283 18.4491H36.9202C36.9202 17.8247 36.9202 17.2017 36.9202 16.58H37.3283C37.3283 16.6535 37.3283 16.7269 37.3283 16.8024H37.3119ZM44.8619 16.0128H45.27C45.27 16.2025 45.27 16.3902 45.27 16.58H45.9332V16.9514H45.268C45.268 17.2452 45.268 17.5391 45.268 17.8349C45.2637 17.8878 45.2762 17.9407 45.3037 17.9861C45.3311 18.0315 45.3722 18.0672 45.421 18.088C45.5849 18.1198 45.7547 18.0885 45.8965 18.0002C45.9352 18.1186 45.976 18.2349 46.0148 18.3512C45.8897 18.4275 45.749 18.4748 45.6032 18.4896C45.4573 18.5045 45.31 18.4865 45.1721 18.4369C45.0721 18.3867 44.9889 18.3084 44.9327 18.2116C44.8766 18.1149 44.8498 18.0038 44.8558 17.8921C44.8558 17.5778 44.8558 17.2636 44.8558 16.9494H44.4722V16.578H44.8558C44.8558 16.3882 44.8558 16.1984 44.8558 16.0107L44.8619 16.0128ZM56.2481 16.9494C56.1616 16.9887 56.0851 17.0472 56.0245 17.1204C55.9639 17.1936 55.9207 17.2796 55.8981 17.372C55.8755 17.4643 55.8741 17.5605 55.8941 17.6534C55.9141 17.7463 55.9549 17.8335 56.0134 17.9084C56.1095 18.0223 56.2462 18.0941 56.3945 18.1086C56.5428 18.1231 56.6909 18.0791 56.8072 17.9859C56.8737 17.9257 56.9269 17.8522 56.9633 17.7701C56.9997 17.688 57.0185 17.5992 57.0185 17.5095C57.0185 17.4197 56.9997 17.3309 56.9633 17.2489C56.9269 17.1668 56.8737 17.0933 56.8072 17.033C56.7298 16.9746 56.6391 16.9363 56.5433 16.9217C56.4475 16.9071 56.3495 16.9166 56.2583 16.9494H56.2481ZM56.9847 15.8291H57.3928V18.4512H56.9847C56.9847 18.3777 56.9847 18.3063 56.9847 18.2349C56.6908 18.5961 56.1011 18.5675 55.7767 18.2655C55.6728 18.1652 55.591 18.0444 55.5364 17.9108C55.4817 17.7771 55.4555 17.6336 55.4593 17.4893C55.4632 17.345 55.497 17.203 55.5587 17.0725C55.6203 16.9419 55.7085 16.8256 55.8175 16.731C55.9835 16.5913 56.1965 16.5203 56.413 16.5325C56.6296 16.5446 56.8334 16.639 56.9827 16.7963C56.9827 16.4739 56.9827 16.1535 56.9827 15.8311L56.9847 15.8291ZM58.2294 18.1716C58.2622 18.1721 58.2944 18.1805 58.3233 18.1961C58.3531 18.2121 58.3779 18.2361 58.3947 18.2655C58.4106 18.295 58.419 18.3279 58.4192 18.3614C58.4193 18.3943 58.4109 18.4266 58.3947 18.4553C58.3794 18.4856 58.3552 18.5105 58.3253 18.5267C58.2958 18.5426 58.2629 18.551 58.2294 18.5512C58.1966 18.5507 58.1644 18.5423 58.1355 18.5267C58.1057 18.5105 58.0815 18.4856 58.0662 18.4553C58.0484 18.4272 58.0392 18.3946 58.0396 18.3614C58.0395 18.3276 58.0487 18.2944 58.0662 18.2655C58.083 18.2361 58.1077 18.2121 58.1376 18.1961C58.1658 18.1808 58.1973 18.1725 58.2294 18.1716ZM58.2294 18.2022C58.2024 18.2032 58.1759 18.2102 58.1519 18.2227C58.1274 18.237 58.107 18.2573 58.0927 18.2818C58.0793 18.3062 58.0723 18.3336 58.0723 18.3614C58.072 18.3893 58.0791 18.4167 58.0927 18.441C58.1065 18.4653 58.127 18.4852 58.1519 18.4981C58.1753 18.5123 58.202 18.5201 58.2294 18.5206C58.2575 18.5203 58.285 18.5126 58.309 18.4981C58.3338 18.4852 58.3544 18.4653 58.3682 18.441C58.3818 18.4167 58.3889 18.3893 58.3886 18.3614C58.3886 18.3336 58.3816 18.3062 58.3682 18.2818C58.3538 18.2573 58.3335 18.237 58.309 18.2227C58.2843 18.2102 58.2571 18.2032 58.2294 18.2022ZM58.1478 18.4655V18.2614H58.2172C58.2348 18.2587 58.2527 18.2587 58.2702 18.2614C58.2805 18.2651 58.2892 18.2724 58.2947 18.2818C58.3013 18.2907 58.3049 18.3014 58.3049 18.3124C58.3044 18.3269 58.2986 18.3407 58.2886 18.3512C58.2768 18.3621 58.2617 18.3686 58.2457 18.3696C58.2527 18.3712 58.259 18.3747 58.2641 18.3798C58.2755 18.3925 58.2857 18.4061 58.2947 18.4206L58.3192 18.4593H58.2784L58.26 18.4287C58.2509 18.4108 58.2392 18.3943 58.2253 18.3798C58.2167 18.3772 58.2075 18.3772 58.1988 18.3798H58.1804V18.4655H58.1478ZM58.1804 18.3512H58.2192C58.2325 18.3554 58.2467 18.3554 58.26 18.3512C58.2627 18.3439 58.2627 18.336 58.26 18.3288C58.2621 18.3235 58.2621 18.3177 58.26 18.3124C58.2553 18.3111 58.2504 18.3111 58.2457 18.3124H58.2131H58.1764V18.3736L58.1804 18.3512Z" fill="white"/>
<path fill-rule="evenodd" clip-rule="evenodd" d="M42.7849 0.947754C43.7077 0.947754 44.6214 1.12954 45.4739 1.48273C46.3264 1.83593 47.101 2.35361 47.7534 3.00621C48.4059 3.6588 48.9233 4.43354 49.2762 5.28616C49.6292 6.13877 49.8107 7.05256 49.8104 7.97534C49.8107 8.89812 49.6292 9.81192 49.2762 10.6645C48.9233 11.5171 48.4059 12.2919 47.7534 12.9445C47.101 13.5971 46.3264 14.1147 45.4739 14.4679C44.6214 14.8211 43.7077 15.0029 42.7849 15.0029C40.9211 15.0029 39.1336 14.2625 37.8157 12.9446C36.4977 11.6267 35.7573 9.83917 35.7573 7.97534C35.7573 6.11151 36.4977 4.32401 37.8157 3.00608C39.1336 1.68815 40.9211 0.947754 42.7849 0.947754Z" fill="white"/>
<path fill-rule="evenodd" clip-rule="evenodd" d="M51.5061 0.947754C53.3699 0.947754 55.1574 1.68815 56.4754 3.00608C57.7933 4.32401 58.5337 6.11151 58.5337 7.97534C58.5337 9.83917 57.7933 11.6267 56.4754 12.9446C55.1574 14.2625 53.3699 15.0029 51.5061 15.0029C49.6423 15.0029 47.8548 14.2625 46.5368 12.9446C45.2189 11.6267 44.4785 9.83917 44.4785 7.97534C44.4785 6.11151 45.2189 4.32401 46.5368 3.00608C47.8548 1.68815 49.6423 0.947754 51.5061 0.947754Z" fill="white"/>
<path d="M50.0603 7.97134C50.0607 6.87326 49.8122 5.78938 49.3335 4.80116C48.8547 3.8129 48.1581 2.94601 47.2962 2.26567L47.1414 2.14351L46.9865 2.26557C46.1239 2.9455 45.4268 3.81226 44.9476 4.80061C44.4685 5.78891 44.2198 6.87303 44.2202 7.97136M50.0603 7.97134C50.0609 9.06947 49.8124 10.1534 49.3337 11.1417C48.8549 12.13 48.1582 12.9969 47.2961 13.6771L47.1414 13.7992L46.9865 13.6772C46.1238 12.9974 45.4266 12.1306 44.9474 11.1423C44.4682 10.1539 44.2196 9.06972 44.2202 7.97136M50.0603 7.97134C50.0603 7.97131 50.0603 7.97128 50.0603 7.97125L49.8103 7.97138L50.0603 7.97147C50.0603 7.97143 50.0603 7.97139 50.0603 7.97134ZM44.2202 7.97136C44.2202 7.9714 44.2202 7.97144 44.2202 7.97149L44.4702 7.97138L44.2202 7.97123C44.2202 7.97128 44.2202 7.97132 44.2202 7.97136Z" fill="white" stroke="#969696" stroke-width="0.5"/>
<path d="M58.0359 11.64V11.4359H57.9502V11.3951H58.1828V11.4359H58.0951V11.64H58.0359ZM58.2195 11.64V11.3931H58.3073L58.3603 11.5604L58.4134 11.3931H58.5011V11.64H58.444V11.4359L58.3869 11.64H58.3297L58.2726 11.4359V11.64H58.2195Z" fill="white"/>
</svg>
