<svg width="34" height="37" viewBox="0 0 34 37" fill="none" xmlns="http://www.w3.org/2000/svg">
<path d="M22.9685 17.6441C23.1418 17.4259 23.2988 17.1952 23.4385 16.9541L23.8784 16.2341C25.3684 13.6541 26.6584 13.2341 27.8784 13.0841C31.3184 12.5041 32.7384 9.46414 31.8784 6.28414C31.4261 4.69835 30.3757 3.35022 28.9485 2.52413C27.524 1.69956 25.8331 1.46618 24.2385 1.8741C21.0185 2.6941 19.1084 5.45409 20.3684 8.73409C20.8084 9.87409 21.1585 11.1841 19.6685 13.7341C19.6085 13.8341 19.4386 14.1541 19.2686 14.4741C19.1319 14.7173 19.0083 14.9677 18.8984 15.2241" stroke="#565353" stroke-width="2" stroke-linecap="round" stroke-linejoin="round"/>
<path d="M23.3977 21.4741L23.8379 20.8741C23.9437 20.7045 24.0134 20.5149 24.043 20.3172C24.0725 20.1195 24.0611 19.918 24.0095 19.7248C23.958 19.5317 23.8673 19.3512 23.7432 19.1946C23.619 19.0379 23.4641 18.9084 23.2878 18.8141L17.7178 15.5941C17.3673 15.4143 16.9626 15.371 16.582 15.4726C16.2014 15.5743 15.872 15.8136 15.6577 16.1441L15.2178 16.7541" stroke="#565353" stroke-width="2" stroke-linecap="round" stroke-linejoin="round"/>
<path d="M5.96777 18.294L8.05786 14.8441C8.25849 14.5011 8.58599 14.2511 8.96973 14.1482C9.35347 14.0452 9.76233 14.0976 10.1077 14.294L28.2078 24.7341C28.5534 24.9348 28.8054 25.2643 28.9084 25.6505C29.0115 26.0366 28.9574 26.4478 28.7578 26.794L26.6777 30.2541L5.96777 18.2541V18.294Z" stroke="#565353" stroke-width="2" stroke-linecap="round" stroke-linejoin="round"/>
<path d="M13.1279 29.6041C19.5279 29.6041 24.708 30.9741 24.708 32.6041C24.708 34.2341 19.5279 35.6041 13.1279 35.6041C6.72793 35.6041 1.53809 34.2441 1.53809 32.6041C1.53809 30.9641 6.72793 29.6041 13.1279 29.6041Z" stroke="#565353" stroke-width="2" stroke-linecap="round" stroke-linejoin="round"/>
</svg>
