<svg width="38" height="39" viewBox="0 0 38 39" fill="none" xmlns="http://www.w3.org/2000/svg">
<path d="M23.9602 17.25L29.5302 17.1801C30.6152 17.3341 31.607 17.8779 32.3202 18.71L35.1801 22.71C36.0443 23.9413 36.5151 25.4057 36.5302 26.91V31.38C36.5275 31.785 36.3656 32.1726 36.0792 32.459C35.7929 32.7453 35.4051 32.9074 35.0001 32.91H31.6902M24.8502 32.91H15.0502M7.38013 32.91H4.99011C4.58514 32.9074 4.1975 32.7453 3.91113 32.459C3.62477 32.1726 3.46283 31.785 3.46021 31.38V22.86M20.6902 9.71997H22.4302C22.8351 9.72259 23.2228 9.88466 23.5092 10.171C23.7955 10.4574 23.9576 10.845 23.9602 11.25V24.4399C23.955 24.8441 23.7922 25.2303 23.5063 25.5161C23.2205 25.8019 22.8343 25.9648 22.4302 25.97H4.99011C4.58514 25.9673 4.1975 25.8053 3.91113 25.5189C3.62477 25.2326 3.46283 24.8449 3.46021 24.4399V17.51M36.4601 25.78H29.4602C29.0552 25.7774 28.6676 25.6153 28.3812 25.329C28.0949 25.0426 27.9328 24.655 27.9302 24.25V17.37M28.2701 30.27C28.9485 30.27 29.6117 30.4711 30.1758 30.848C30.7398 31.2249 31.1795 31.7607 31.4391 32.3875C31.6987 33.0142 31.7666 33.7038 31.6343 34.3691C31.5019 35.0345 31.1753 35.6457 30.6956 36.1254C30.2159 36.6051 29.6047 36.9317 28.9393 37.0641C28.274 37.1964 27.5843 37.1285 26.9575 36.8689C26.3308 36.6093 25.7951 36.1697 25.4182 35.6056C25.0413 35.0415 24.8402 34.3783 24.8402 33.7C24.8389 33.2491 24.9266 32.8026 25.0985 32.3859C25.2704 31.9691 25.523 31.5905 25.8418 31.2717C26.1606 30.953 26.5393 30.7003 26.9561 30.5284C27.3728 30.3565 27.8193 30.2687 28.2701 30.27ZM11.0502 30.27C11.7286 30.27 12.3917 30.4711 12.9558 30.848C13.5199 31.2249 13.9595 31.7607 14.2191 32.3875C14.4787 33.0142 14.5467 33.7038 14.4143 34.3691C14.282 35.0345 13.9553 35.6457 13.4756 36.1254C12.9959 36.6051 12.3847 36.9317 11.7194 37.0641C11.054 37.1964 10.3643 37.1285 9.73755 36.8689C9.1108 36.6093 8.57514 36.1697 8.19824 35.6056C7.82135 35.0415 7.62012 34.3783 7.62012 33.7C7.62012 33.2495 7.70885 32.8036 7.88123 32.3875C8.0536 31.9713 8.30625 31.5932 8.62476 31.2747C8.94326 30.9562 9.3214 30.7035 9.73755 30.5311C10.1537 30.3588 10.5997 30.27 11.0502 30.27Z" stroke="#565656" stroke-width="2" stroke-linecap="round" stroke-linejoin="round"/>
<path d="M15.13 6.60999L11.99 9.75M5.01002 5.39001L9.37 9.75M11.0501 32.9399C11.1925 32.9399 11.3317 32.9823 11.4501 33.0614C11.5685 33.1405 11.6607 33.253 11.7152 33.3845C11.7697 33.5161 11.784 33.6607 11.7562 33.8004C11.7284 33.9401 11.6599 34.0684 11.5592 34.1691C11.4585 34.2698 11.3302 34.3384 11.1906 34.3662C11.0509 34.394 10.9061 34.3797 10.7745 34.3252C10.643 34.2707 10.5305 34.1785 10.4514 34.0601C10.3723 33.9417 10.3301 33.8024 10.3301 33.66C10.3301 33.4691 10.4059 33.2859 10.5409 33.1509C10.6759 33.0159 10.8591 32.9399 11.0501 32.9399ZM28.27 32.9399C28.371 32.928 28.4734 32.9375 28.5704 32.968C28.6675 32.9985 28.757 33.0493 28.833 33.1168C28.909 33.1844 28.9698 33.2672 29.0115 33.36C29.0532 33.4528 29.0747 33.5533 29.0747 33.655C29.0747 33.7567 29.0532 33.8573 29.0115 33.9501C28.9698 34.0428 28.909 34.1257 28.833 34.1932C28.757 34.2608 28.6675 34.3115 28.5704 34.3419C28.4734 34.3724 28.371 34.382 28.27 34.37C28.169 34.382 28.0666 34.3724 27.9696 34.3419C27.8726 34.3115 27.7832 34.2608 27.7072 34.1932C27.6311 34.1257 27.5702 34.0428 27.5286 33.9501C27.4869 33.8573 27.4653 33.7567 27.4653 33.655C27.4653 33.5533 27.4869 33.4528 27.5286 33.36C27.5702 33.2672 27.6311 33.1844 27.7072 33.1168C27.7832 33.0493 27.8726 32.9985 27.9696 32.968C28.0666 32.9375 28.169 32.928 28.27 32.9399ZM10.76 1C12.6908 1 14.5782 1.57262 16.1835 2.64551C17.7887 3.71839 19.0397 5.24335 19.7781 7.02734C20.5165 8.81133 20.7092 10.7742 20.3318 12.6677C19.9544 14.5613 19.0238 16.3004 17.6578 17.6649C16.2919 19.0295 14.5519 19.9583 12.658 20.3337C10.7641 20.7092 8.8013 20.5144 7.01807 19.7742C5.23484 19.0339 3.71126 17.7814 2.64002 16.175C1.56878 14.5687 0.998027 12.6808 1.00001 10.75C1.00266 8.16322 2.03212 5.6833 3.86219 3.8551C5.69226 2.02691 8.17323 0.999999 10.76 1ZM10.76 9.16003C10.4427 9.15806 10.1321 9.25049 9.86744 9.42554C9.60279 9.60058 9.39615 9.8503 9.27381 10.1431C9.15147 10.4358 9.11889 10.7584 9.1803 11.0697C9.24172 11.381 9.39429 11.667 9.61866 11.8914C9.84302 12.1157 10.1291 12.2683 10.4404 12.3297C10.7517 12.3911 11.0742 12.3585 11.3669 12.2362C11.6597 12.1139 11.9096 11.9073 12.0846 11.6427C12.2596 11.3781 12.3521 11.0673 12.3501 10.75C12.3501 10.3283 12.1826 9.92392 11.8844 9.62573C11.5862 9.32755 11.1817 9.16003 10.76 9.16003Z" stroke="#565656" stroke-width="2" stroke-linecap="round" stroke-linejoin="round"/>
<path d="M10.7601 1.66003V3.14001M1.67017 10.75H3.14014M10.7601 19.85V18.37M19.8601 10.75H18.3801" stroke="#565656" stroke-width="2" stroke-linecap="round" stroke-linejoin="round"/>
</svg>
