<svg width="35" height="35" viewBox="0 0 35 35" fill="none" xmlns="http://www.w3.org/2000/svg">
<path d="M18.5374 24.3211L22.9373 21.9811C23.9373 21.4311 25.9973 20.591 26.0073 22.661L26.7473 22.1511C28.8373 20.7211 30.4275 21.7311 29.6475 23.7111C33.3475 21.0111 34.6473 24.4311 33.0073 25.2611L24.8074 30.4511L21.2874 32.6411C18.8274 34.2011 15.5772 34.2211 14.6672 33.6411C9.47724 32.3011 7.97727 31.0211 3.44727 31.6411" stroke="#565353" stroke-width="2" stroke-linecap="round" stroke-linejoin="round"/>
<path d="M1.28809 22.411L6.64819 20.231C7.19349 19.9784 7.78723 19.8477 8.38818 19.8477C8.98914 19.8477 9.58288 19.9784 10.1282 20.231L13.0381 22.381C17.0381 25.381 17.3982 24.631 22.1582 24.911C23.2082 24.971 23.8982 26.6711 22.1582 27.3411C17.7182 29.3411 14.978 28.4611 10.938 26.3911" stroke="#565353" stroke-width="2" stroke-linecap="round" stroke-linejoin="round"/>
<path d="M17.5078 4.04102V5.90102" stroke="#565353" stroke-width="2" stroke-linecap="round" stroke-linejoin="round"/>
<path d="M17.5078 14.0011V15.8611" stroke="#565353" stroke-width="2" stroke-linecap="round" stroke-linejoin="round"/>
<path d="M17.5076 1.29102C19.2208 1.29102 20.8955 1.7992 22.3198 2.75122C23.7442 3.70324 24.8541 5.05635 25.5093 6.63934C26.1644 8.22233 26.3355 9.96408 26.0005 11.6442C25.6655 13.3244 24.8398 14.8674 23.6277 16.0781C22.4156 17.2888 20.8715 18.1128 19.1909 18.4459C17.5104 18.7789 15.7688 18.606 14.1865 17.949C12.6043 17.292 11.2526 16.1804 10.3023 14.755C9.35188 13.3296 8.84568 11.6543 8.84766 9.94104C8.85031 7.646 9.76392 5.44588 11.3877 3.82397C13.0115 2.20207 15.2125 1.29101 17.5076 1.29102Z" stroke="#565353" stroke-width="2" stroke-linecap="round" stroke-linejoin="round"/>
<path d="M20.2081 6.86102C19.4276 6.56927 18.6205 6.35496 17.7982 6.22107C13.6282 5.75107 13.0882 9.96104 17.5382 9.94104C21.9881 9.92104 21.4481 14.141 17.2581 13.671C16.4423 13.537 15.6418 13.3227 14.8682 13.0311" stroke="#565353" stroke-width="2" stroke-linecap="round" stroke-linejoin="round"/>
</svg>
