<svg width="36" height="36" viewBox="0 0 36 36" fill="none" xmlns="http://www.w3.org/2000/svg">
<path d="M23.6001 17.61C24.7868 17.61 25.9468 17.9619 26.9335 18.6212C27.9202 19.2804 28.6892 20.2175 29.1433 21.3139C29.5974 22.4102 29.7163 23.6166 29.4847 24.7805C29.2532 25.9444 28.6818 27.0135 27.8427 27.8526C27.0035 28.6917 25.9345 29.2632 24.7706 29.4947C23.6067 29.7262 22.4003 29.6074 21.304 29.1533C20.2076 28.6991 19.2705 27.9301 18.6112 26.9434C17.9519 25.9567 17.6001 24.7967 17.6001 23.61C17.6001 22.0187 18.2322 20.4926 19.3574 19.3673C20.4826 18.2421 22.0088 17.61 23.6001 17.61Z" stroke="#565656" stroke-width="2" stroke-miterlimit="22.93"/>
<path d="M34.4 9V23.29C34.3877 23.6122 34.2542 23.918 34.0261 24.146C33.7981 24.3741 33.4923 24.5076 33.17 24.52L30.17 24.65M34.4 9H27.63C27.3038 9 26.9909 8.87041 26.7603 8.63974C26.5296 8.40907 26.4 8.09621 26.4 7.76999V1M34.4 9L26.4 1M17.0801 24.65L2.2301 24.52C1.90549 24.5148 1.59553 24.3836 1.36597 24.154C1.1364 23.9245 1.00515 23.6146 1 23.29V2.22998C1 1.90376 1.12968 1.5909 1.36035 1.36023C1.59102 1.12956 1.90389 1 2.2301 1H26.4M5.30005 6.34H22.0701M5.30005 10.18H22.0701M5.30005 14.01H22.0701" stroke="#565656" stroke-width="2" stroke-linecap="round" stroke-linejoin="round"/>
<path d="M23.6 20.79C24.1696 20.79 24.7263 20.9589 25.2 21.2754C25.6736 21.5918 26.0428 22.0416 26.2607 22.5679C26.4787 23.0941 26.5357 23.6732 26.4246 24.2318C26.3134 24.7905 26.0391 25.3037 25.6364 25.7065C25.2336 26.1092 24.7204 26.3835 24.1617 26.4947C23.6031 26.6058 23.0241 26.5487 22.4978 26.3307C21.9716 26.1128 21.5218 25.7436 21.2053 25.27C20.8889 24.7964 20.72 24.2396 20.72 23.67C20.72 22.9062 21.0234 22.1736 21.5635 21.6335C22.1036 21.0934 22.8362 20.79 23.6 20.79Z" stroke="#565656" stroke-width="2" stroke-miterlimit="22.93"/>
<path d="M18.3801 26.7L15.5801 31.79L20.8601 34.36L23.6601 30.01L26.4501 34.36L31.8101 31.81L28.9801 26.41" stroke="#565656" stroke-width="2" stroke-linecap="round" stroke-linejoin="round"/>
</svg>
