<svg width="32" height="38" viewBox="0 0 32 38" fill="none" xmlns="http://www.w3.org/2000/svg">
<path d="M15.8848 15.4409V17.5409" stroke="#565353" stroke-width="2" stroke-linecap="round" stroke-linejoin="round"/>
<path d="M15.8848 26.6909V28.7909" stroke="#565353" stroke-width="2" stroke-linecap="round" stroke-linejoin="round"/>
<path d="M18.9338 18.6409C18.0585 18.3034 17.1502 18.0587 16.2239 17.9109C11.5039 17.3809 10.9038 22.1309 15.9138 22.1209C20.9238 22.1109 20.334 26.8609 15.614 26.3209C14.6883 26.1745 13.7803 25.9332 12.904 25.6009" stroke="#565353" stroke-width="2" stroke-linecap="round" stroke-linejoin="round"/>
<path d="M15.894 8.20093C18.6467 8.20291 21.3369 9.02095 23.6248 10.5517C25.9126 12.0825 27.6953 14.2572 28.7473 16.8009C29.7994 19.3446 30.0734 22.1432 29.5352 24.8427C28.9969 27.5423 27.6705 30.0216 25.7234 31.9674C23.7762 33.9131 21.2959 35.2379 18.5959 35.7742C15.896 36.3105 13.0977 36.0342 10.5547 34.9804C8.01172 33.9265 5.83819 32.1423 4.30908 29.8534C2.77997 27.5645 1.96387 24.8736 1.96387 22.1209C1.96387 20.2921 2.32424 18.4811 3.02441 16.7916C3.72458 15.1021 4.75078 13.5672 6.04443 12.2745C7.33808 10.9818 8.87396 9.95659 10.564 9.25763C12.254 8.55868 14.0652 8.19962 15.894 8.20093Z" stroke="#565353" stroke-width="2" stroke-linecap="round" stroke-linejoin="round"/>
<path d="M14.2637 8.19089V5.04089" stroke="#565353" stroke-width="2" stroke-linecap="round" stroke-linejoin="round"/>
<path d="M17.5137 5.04089V8.19089" stroke="#565353" stroke-width="2" stroke-linecap="round" stroke-linejoin="round"/>
<path d="M24.8242 11.1409L28.3242 7.64087L30.3642 9.68087L26.8642 13.1809" stroke="#565353" stroke-width="2" stroke-linecap="round" stroke-linejoin="round"/>
<path d="M12.2539 1.28094H19.5339C19.7002 1.28352 19.859 1.35073 19.9766 1.46832C20.0942 1.58592 20.1612 1.74467 20.1638 1.91095V4.05096C20.1638 4.21805 20.0976 4.37831 19.9795 4.49646C19.8613 4.61461 19.701 4.68097 19.5339 4.68097H12.2539C12.0868 4.68097 11.9265 4.61461 11.8083 4.49646C11.6902 4.37831 11.624 4.21805 11.624 4.05096V1.87097C11.624 1.70389 11.6902 1.54362 11.8083 1.42548C11.9265 1.30733 12.0868 1.24097 12.2539 1.24097V1.28094Z" stroke="#565353" stroke-width="2" stroke-linecap="round" stroke-linejoin="round"/>
<path d="M15.8943 11.0509C18.082 11.0588 20.2183 11.7148 22.0334 12.936C23.8486 14.1572 25.2613 15.8888 26.093 17.9122C26.9247 19.9357 27.1382 22.1603 26.7065 24.305C26.2749 26.4497 25.2175 28.4184 23.6677 29.9626C22.118 31.5068 20.1455 32.5571 17.9993 32.981C15.853 33.4049 13.6291 33.1834 11.6086 32.3444C9.58819 31.5053 7.8616 30.0865 6.64697 28.2669C5.43234 26.4473 4.78419 24.3086 4.78418 22.1209C4.78418 19.185 5.95058 16.3692 8.02661 14.2932C10.1026 12.2172 12.9183 11.0509 15.8542 11.0509H15.8943Z" stroke="#565353" stroke-width="2" stroke-linecap="round" stroke-linejoin="round"/>
</svg>
