<svg width="37" height="31" viewBox="0 0 37 31" fill="none" xmlns="http://www.w3.org/2000/svg">
<path d="M14.131 12.545H14.871C15.2839 12.5477 15.6792 12.7129 15.9712 13.0049C16.2632 13.2969 16.4284 13.6921 16.431 14.105V16.335C16.431 16.7487 16.2667 17.1456 15.9741 17.4381C15.6816 17.7307 15.2847 17.895 14.871 17.895H14.131C13.7172 17.895 13.3205 17.7307 13.028 17.4381C12.7354 17.1456 12.571 16.7487 12.571 16.335V14.105C12.5737 13.6921 12.7389 13.2969 13.0309 13.0049C13.3229 12.7129 13.7181 12.5477 14.131 12.545ZM22.731 20.2051H23.4711C23.8848 20.2051 24.2815 20.3694 24.5741 20.662C24.8667 20.9545 25.031 21.3513 25.031 21.765V23.995C25.031 24.4087 24.8667 24.8056 24.5741 25.0981C24.2815 25.3907 23.8848 25.5551 23.4711 25.5551H22.731C22.3172 25.5551 21.9205 25.3907 21.6279 25.0981C21.3354 24.8056 21.171 24.4087 21.171 23.995V21.765C21.171 21.3513 21.3354 20.9545 21.6279 20.662C21.9205 20.3694 22.3172 20.2051 22.731 20.2051Z" stroke="#565656" stroke-width="2" stroke-linecap="round" stroke-linejoin="round"/>
<path d="M22.371 12.115L15.231 25.985M33.821 14.465C34.5712 13.441 35.013 12.2241 35.0946 10.9573C35.1762 9.69057 34.894 8.42685 34.2814 7.3151C33.6688 6.20335 32.7512 5.28986 31.6367 4.68216C30.5223 4.07447 29.2573 3.79788 27.991 3.88505L27.391 2.48502C27.1356 1.88895 26.6543 1.41848 26.0526 1.17667C25.4509 0.934863 24.7779 0.94153 24.181 1.1951L7.33105 8.41507M7.94104 8.92508H28.791C29.4408 8.92508 30.064 9.18315 30.5234 9.64261C30.9829 10.1021 31.241 10.7253 31.241 11.375V12.8951C32.5424 13.3542 33.6694 14.2058 34.4666 15.3323C35.2637 16.4589 35.6918 17.805 35.6918 19.1851C35.6918 20.5652 35.2637 21.9112 34.4666 23.0378C33.6694 24.1643 32.5424 25.0158 31.241 25.475V27.005C31.2383 27.6531 30.9791 28.2737 30.5199 28.731C30.0607 29.1883 29.4391 29.4451 28.791 29.4451H7.91101C7.59059 29.4451 7.27333 29.3819 6.97729 29.2593C6.68126 29.1367 6.41224 28.957 6.18567 28.7304C5.95909 28.5038 5.77936 28.2348 5.65674 27.9388C5.53412 27.6427 5.47107 27.3255 5.47107 27.005V25.475C4.16503 25.0205 3.03275 24.1707 2.23157 23.0436C1.43038 21.9165 1 20.568 1 19.1851C1 17.8022 1.43038 16.4536 2.23157 15.3265C3.03275 14.1993 4.16503 13.3496 5.47107 12.8951V11.375C5.47106 10.727 5.72776 10.1053 6.18506 9.64615C6.64236 9.18698 7.26296 8.92773 7.91101 8.92508H7.94104Z" stroke="#565656" stroke-width="2" stroke-linecap="round" stroke-linejoin="round"/>
</svg>
