<svg width="35" height="35" viewBox="0 0 35 35" fill="none" xmlns="http://www.w3.org/2000/svg">
<path d="M20.9655 1.76596C23.1655 2.60596 21.9655 4.85601 23.7155 5.68601C25.4655 6.51601 26.7156 4.54599 28.3856 5.79599C29.8656 7.62599 27.7455 9.0059 28.8055 10.5759C29.8655 12.1459 31.9255 11.056 32.8055 13.006C33.1755 15.336 30.6555 15.4559 30.8055 17.3559C30.9555 19.2559 33.2655 19.356 33.0455 21.446C32.1955 23.646 29.9456 22.446 29.1156 24.196C28.2856 25.946 30.2556 27.1359 29.0056 28.8659C27.1756 30.3459 25.8056 28.226 24.2256 29.286C22.6456 30.346 23.7455 32.406 21.7955 33.286C19.4755 33.656 19.3455 31.136 17.4555 31.286C15.5655 31.436 15.4556 33.746 13.3556 33.516C11.1556 32.676 12.3556 30.4259 10.6056 29.5959C8.85556 28.7659 7.66552 30.7359 5.93552 29.4859C4.45552 27.6559 6.57561 26.2759 5.52561 24.7059C4.47561 23.1359 2.39561 24.226 1.52561 22.276C1.15561 19.946 3.68561 19.826 3.52561 17.926C3.36561 16.026 1.05562 15.9259 1.28562 13.8359C2.12562 11.6359 4.37555 12.7859 5.21555 11.0859C6.05555 9.38591 4.06553 8.08599 5.32553 6.41599C7.15553 4.93599 8.52556 7.05594 10.1056 5.99594C11.6856 4.93595 10.5756 2.87594 12.5256 1.99594C14.8556 1.62594 14.9856 4.14594 16.8756 3.99594C18.7656 3.84594 18.8755 1.53596 20.9655 1.76596Z" stroke="#565353" stroke-width="2" stroke-linecap="round" stroke-linejoin="round"/>
<path d="M17.1455 10.696C18.6901 10.7013 20.1699 11.3172 21.2621 12.4094C22.3543 13.5016 22.9702 14.9814 22.9755 16.526V18.7159C22.9702 20.2605 22.3543 21.7404 21.2621 22.8326C20.1699 23.9248 18.6901 24.5407 17.1455 24.546C15.6001 24.5434 14.1188 23.9282 13.026 22.8354C11.9332 21.7427 11.3181 20.2613 11.3154 18.7159V16.526C11.3181 14.9806 11.9332 13.4993 13.026 12.4065C14.1188 11.3137 15.6001 10.6987 17.1455 10.696Z" stroke="#565353" stroke-width="2" stroke-linecap="round" stroke-linejoin="round"/>
<path d="M18.9053 20.3459L24.2153 24.6859" stroke="#565353" stroke-width="2" stroke-linecap="round" stroke-linejoin="round"/>
</svg>
