<svg width="37" height="34" viewBox="0 0 37 34" fill="none" xmlns="http://www.w3.org/2000/svg">
<path d="M31.4595 19.3207L33.6895 17.0906C37.5295 13.2606 35.6895 8.09065 32.5395 4.75065C31.554 3.67448 30.411 2.75403 29.1495 2.02067C27.5795 1.14067 22.6495 -0.14933 19.4295 3.02067L12.7396 9.67069C10.9296 11.4707 15.4896 13.2107 17.7396 10.9407L19.4295 9.28068C21.9195 7.02068 25.0495 11.5406 28.9495 8.47062M5.45953 18.2707L3.22955 16.0407C-4.19045 8.64069 8.65955 -4.07935 16.2296 3.25065L17.7296 4.74064M23.1096 10.8606L31.7195 19.8606C33.4795 21.7006 30.8696 25.2106 28.6096 22.8606L24.6096 18.7007M21.0895 21.5107L25.5295 26.0707C27.2995 27.8907 30.8996 25.1906 28.6396 22.8606L24.2995 18.3907M19.7396 26.5507L21.9495 28.7807C23.7495 30.5907 27.2295 28.0107 24.9495 25.6607" stroke="#565656" stroke-width="2" stroke-linecap="round" stroke-linejoin="round"/>
<path d="M10.7396 16.4407L10.9796 16.6707C11.3631 17.0598 11.5781 17.5842 11.5781 18.1306C11.5781 18.677 11.3631 19.2014 10.9796 19.5906L7.90955 22.6506C7.52336 23.036 7.00013 23.2523 6.45459 23.2523C5.90905 23.2523 5.38582 23.036 4.99963 22.6506L4.75964 22.4207C4.37612 22.0315 4.16113 21.507 4.16113 20.9606C4.16113 20.4142 4.37612 19.8898 4.75964 19.5006L7.82959 16.4407C8.01655 16.2424 8.24211 16.0844 8.49231 15.9764C8.74251 15.8685 9.01205 15.8129 9.28455 15.8129C9.55705 15.8129 9.8267 15.8685 10.0769 15.9764C10.3271 16.0844 10.5527 16.2424 10.7396 16.4407ZM15.8995 17.8406L16.1396 18.0807C16.525 18.4669 16.7413 18.9901 16.7413 19.5356C16.7413 20.0812 16.525 20.6044 16.1396 20.9906L11.2496 25.8706C10.8634 26.2559 10.3401 26.4724 9.79456 26.4724C9.24901 26.4724 8.72579 26.2559 8.3396 25.8706L8.09961 25.6406C7.71609 25.2515 7.5011 24.7271 7.5011 24.1807C7.5011 23.6343 7.71609 23.1097 8.09961 22.7206L12.9896 17.8406C13.3758 17.4553 13.899 17.2389 14.4446 17.2389C14.9901 17.2389 15.5133 17.4553 15.8995 17.8406ZM17.8995 22.4006L18.1296 22.6406C18.515 23.0268 18.7313 23.55 18.7313 24.0956C18.7313 24.6411 18.515 25.1645 18.1296 25.5507L14.7896 28.9006C14.4004 29.2842 13.876 29.4991 13.3296 29.4991C12.7832 29.4991 12.2588 29.2842 11.8696 28.9006L11.6296 28.6707C11.2461 28.2815 11.0311 27.757 11.0311 27.2106C11.0311 26.6642 11.2461 26.1398 11.6296 25.7506L14.9796 22.4006C15.3688 22.0171 15.8932 21.8021 16.4396 21.8021C16.986 21.8021 17.5104 22.0171 17.8995 22.4006ZM20.0496 26.7606L20.2896 27.0006C20.6749 27.3868 20.8914 27.9101 20.8914 28.4557C20.8914 29.0012 20.6749 29.5245 20.2896 29.9106L18.2296 31.9706C17.8434 32.3559 17.3201 32.5724 16.7745 32.5724C16.229 32.5724 15.7058 32.3559 15.3196 31.9706L15.0796 31.7306C14.6943 31.3444 14.4779 30.8212 14.4779 30.2756C14.4779 29.7301 14.6943 29.2069 15.0796 28.8207L17.1396 26.7606C17.5258 26.3753 18.0491 26.1589 18.5946 26.1589C19.1401 26.1589 19.6634 26.3753 20.0496 26.7606Z" stroke="#565656" stroke-width="2" stroke-linecap="round" stroke-linejoin="round"/>
</svg>
