<svg width="31" height="39" viewBox="0 0 31 39" fill="none" xmlns="http://www.w3.org/2000/svg">
<path d="M5.58746 5.18027H4.33691V6.64167H5.58746C5.79852 6.6576 6.00808 6.59551 6.17638 6.46718C6.30726 6.35085 6.37269 6.1618 6.37269 5.90006C6.37269 5.63831 6.30726 5.45533 6.17638 5.35112C6.00707 5.22508 5.79794 5.16442 5.58746 5.18027Z" fill="#C55C8A"/>
<path d="M21.0158 4.08116V0.548828H4.53565C3.42835 0.55063 2.36088 0.962121 1.53888 1.70403C0.716878 2.44593 0.198482 3.46577 0.0835635 4.56709C0.0690222 4.71735 0.0605469 4.87003 0.0605469 5.02393V29.2268C0.659165 29.2873 1.27233 29.3285 1.90972 29.3479V13.2313H28.2053V23.0891C28.8306 22.7926 29.447 22.4877 30.0545 22.1742V10.0128H26.9414C25.3698 10.0096 23.8635 9.38345 22.7528 8.27157C21.642 7.15969 21.0174 5.65279 21.0158 4.08116ZM6.52538 9.48447C6.45573 9.29534 6.41488 9.09682 6.4042 8.89555C6.38966 8.66774 6.36786 8.44963 6.33877 8.2412C6.32366 8.02171 6.23874 7.81279 6.09642 7.645C5.97039 7.51898 5.76438 7.45596 5.4784 7.45596H4.33692V9.48447H3.19542V4.29322H5.99826C6.21319 4.28999 6.42672 4.32826 6.62716 4.40593C6.80768 4.47565 6.97247 4.58069 7.11187 4.71492C7.24382 4.84379 7.34778 4.99848 7.41724 5.16934C7.48848 5.34604 7.5243 5.53503 7.52267 5.72555C7.52982 6.00213 7.46333 6.27562 7.33 6.51804C7.18486 6.75473 6.96285 6.93441 6.70109 7.027V7.04154C6.82932 7.07397 6.9486 7.13485 7.05009 7.21967C7.14206 7.29948 7.21847 7.39562 7.27548 7.50322C7.33334 7.61786 7.37416 7.74033 7.39665 7.86675C7.42313 7.99634 7.44134 8.12747 7.45118 8.25937C7.45602 8.34015 7.46087 8.4371 7.46572 8.5502C7.47057 8.6633 7.47904 8.77721 7.49116 8.89193C7.50243 9.00347 7.52189 9.11404 7.54934 9.22274C7.5723 9.31817 7.61344 9.40827 7.67052 9.48811L6.52538 9.48447ZM11.7893 9.48447L11.3967 8.32845H9.45789L9.05072 9.48447H7.90196L9.86504 4.29322H11.0356L12.9745 9.48447H11.7893ZM16.7576 9.48447C16.688 9.29534 16.6471 9.09682 16.6365 8.89555C16.6219 8.66774 16.6001 8.44963 16.571 8.2412C16.5559 8.02171 16.471 7.81279 16.3287 7.645C16.2026 7.51898 15.9966 7.45596 15.7107 7.45596H14.5692V9.48447H13.4277V4.29322H16.2269C16.4418 4.28999 16.6553 4.32826 16.8558 4.40593C17.0363 4.47565 17.2011 4.58069 17.3405 4.71492C17.4724 4.84379 17.5764 4.99848 17.6459 5.16934C17.7171 5.34604 17.7529 5.53503 17.7513 5.72555C17.7584 6.00213 17.6919 6.27562 17.5586 6.51804C17.4135 6.75473 17.1915 6.93441 16.9297 7.027V7.04154C17.0579 7.07397 17.1772 7.13485 17.2787 7.21967C17.3707 7.29948 17.4471 7.39562 17.5041 7.50322C17.5619 7.61786 17.6028 7.74033 17.6253 7.86675C17.6517 7.99634 17.67 8.12747 17.6798 8.25937C17.6846 8.34015 17.6895 8.4371 17.6943 8.5502C17.6992 8.6633 17.7077 8.77721 17.7198 8.89193C17.7311 9.00347 17.7505 9.11404 17.7779 9.22274C17.8009 9.31817 17.842 9.40827 17.8991 9.48811L16.7576 9.48447Z" fill="#C55C8A"/>
<path d="M15.8137 5.18027H14.5631V6.64167H15.8137C16.0247 6.6576 16.2343 6.59551 16.4026 6.46718C16.5335 6.35085 16.5989 6.1618 16.5989 5.90006C16.5989 5.63831 16.5335 5.45533 16.4026 5.35112C16.2333 5.22508 16.0241 5.16442 15.8137 5.18027Z" fill="#C55C8A"/>
<path d="M10.4285 5.57288L9.75232 7.47779H11.0974L10.443 5.57288H10.4285Z" fill="#C55C8A"/>
<path d="M28.2089 33.8582C28.2089 34.203 28.141 34.5445 28.009 34.8631C27.8771 35.1817 27.6836 35.4711 27.4398 35.715C27.196 35.9588 26.9065 36.1522 26.5879 36.2842C26.2693 36.4162 25.9278 36.4841 25.583 36.4841H4.53321C3.83677 36.4841 3.16886 36.2074 2.6764 35.715C2.18394 35.2225 1.90728 34.5546 1.90728 33.8582V29.3516C1.27473 29.3286 0.656724 29.2874 0.0581055 29.2304V33.8618C0.0603475 35.048 0.532556 36.1849 1.37131 37.0237C2.21007 37.8625 3.34703 38.3347 4.53321 38.3369H25.583C26.6903 38.3351 27.7578 37.9236 28.5798 37.1817C29.4018 36.4398 29.9201 35.42 30.0351 34.3187C30.0507 34.1669 30.0584 34.0144 30.0581 33.8618V22.1694C29.4506 22.482 28.8342 22.787 28.2089 23.0843V33.8582Z" fill="#AB5B81"/>
<path d="M26.9451 8.55626H30.0581L22.47 0.548828V4.08116C22.4722 5.26734 22.9444 6.4043 23.7832 7.24306C24.6219 8.08181 25.7589 8.55402 26.9451 8.55626Z" fill="#2F3132"/>
<path d="M20.9346 19.1569H9.1804C8.61154 19.1569 8.15039 19.618 8.15039 20.1869V20.8739C8.15039 21.4428 8.61154 21.904 9.1804 21.904H20.9346C21.5035 21.904 21.9647 21.4428 21.9647 20.8739V20.1869C21.9647 19.618 21.5035 19.1569 20.9346 19.1569Z" fill="#2F3132"/>
<path d="M9.18162 27.8333C8.90833 27.8336 8.64635 27.9424 8.45322 28.1357C8.26009 28.3291 8.15161 28.5912 8.15161 28.8645V29.0511C10.3867 28.7761 12.604 28.3715 14.7921 27.8393L9.18162 27.8333Z" fill="#2F3132"/>
<path d="M21.5586 26.03C21.5292 26.0528 21.4985 26.0739 21.4666 26.093C21.4986 26.0741 21.5294 26.0531 21.5586 26.03Z" fill="#2F3132"/>
<path d="M9.18158 26.2422H20.3299C20.8284 26.0766 21.3252 25.9053 21.8204 25.7284C21.7987 25.7657 21.7748 25.8017 21.7489 25.8362C21.8863 25.6572 21.9608 25.4378 21.961 25.2122V24.5263C21.961 24.2528 21.8523 23.9905 21.6589 23.7971C21.4656 23.6037 21.2033 23.4951 20.9298 23.4951H9.17552C8.90223 23.4954 8.64025 23.6042 8.44712 23.7975C8.25399 23.9909 8.14551 24.253 8.14551 24.5263V25.2122C8.14567 25.3479 8.17263 25.4822 8.22482 25.6075C8.27702 25.7328 8.35344 25.8466 8.44969 25.9423C8.54595 26.038 8.66015 26.1137 8.78574 26.1652C8.91134 26.2166 9.04586 26.2428 9.18158 26.2422Z" fill="#2F3132"/>
<path d="M9.18152 30.5803H20.9358C21.209 30.5803 21.4712 30.4719 21.6645 30.2787C21.8579 30.0856 21.9667 29.8236 21.967 29.5503V28.8645C21.967 28.591 21.8583 28.3287 21.6649 28.1353C21.4716 27.9419 21.2093 27.8333 20.9358 27.8333H14.7933C12.6051 28.3655 10.3878 28.7701 8.15272 29.045V29.5443C8.15208 29.6799 8.1782 29.8143 8.22958 29.9398C8.28097 30.0654 8.35661 30.1795 8.45217 30.2757C8.54774 30.372 8.66136 30.4484 8.78651 30.5007C8.91166 30.553 9.04589 30.58 9.18152 30.5803Z" fill="#000301"/>
<path d="M20.3348 26.2421H20.9407C20.9812 26.2416 21.0217 26.2387 21.0619 26.2337H21.097L21.1891 26.2143L21.2206 26.2058C21.3004 26.1833 21.3769 26.1507 21.4485 26.1088L21.4666 26.0979C21.4985 26.0788 21.5293 26.0577 21.5587 26.0349L21.5696 26.0276C21.6373 25.9741 21.6983 25.9127 21.7514 25.8447C21.7773 25.8101 21.8012 25.7741 21.8229 25.7368C21.3293 25.9081 20.8333 26.0765 20.3348 26.2421Z" fill="#000301"/>
</svg>
