<svg width="31" height="39" viewBox="0 0 31 39" fill="none" xmlns="http://www.w3.org/2000/svg">
<path d="M21.6657 4.09093V0.558594H5.18555C4.07846 0.560694 3.01129 0.972315 2.18955 1.71419C1.3678 2.45607 0.84958 3.47574 0.734684 4.57686C0.718661 4.72861 0.710572 4.8811 0.710449 5.0337V29.6631C1.30786 29.7358 1.92223 29.7843 2.55962 29.8218V13.2386H28.8588V23.8029C29.4833 23.5121 30.0997 23.2136 30.708 22.9074V10.0202H27.595C26.0231 10.0179 24.5163 9.39252 23.4048 8.28106C22.2934 7.1696 21.668 5.66277 21.6657 4.09093ZM7.6915 7.86198C7.6899 8.04968 7.67288 8.23692 7.64061 8.42183C7.60608 8.6269 7.52663 8.82181 7.40795 8.99258C7.27284 9.18146 7.09297 9.33384 6.88446 9.43608C6.59507 9.56758 6.27863 9.62864 5.96109 9.61423C5.74694 9.6148 5.53386 9.58419 5.32854 9.52334C5.12999 9.46537 4.94473 9.36902 4.78324 9.23978C4.61918 9.10611 4.48745 8.9371 4.39789 8.74538C4.29559 8.51697 4.24589 8.2685 4.25248 8.01831V7.56753H5.28491V7.80018C5.28415 7.91715 5.29388 8.03395 5.314 8.14918C5.32962 8.24588 5.36421 8.33854 5.41578 8.42183C5.46538 8.49795 5.53441 8.55945 5.61573 8.59997C5.71935 8.6474 5.83267 8.66981 5.94654 8.66539C6.06811 8.67242 6.18916 8.64469 6.29554 8.58543C6.37456 8.53603 6.43669 8.46375 6.47367 8.3782C6.51074 8.2904 6.53285 8.19701 6.5391 8.10191C6.54637 8.00255 6.55001 7.90682 6.55001 7.81472V4.30663H7.6915V7.86198ZM12.7337 6.58599C12.6697 6.78477 12.563 6.96714 12.4211 7.12038C12.2652 7.28425 12.0754 7.41206 11.8649 7.49483C11.6005 7.59588 11.3189 7.64404 11.036 7.6366H9.83635V9.49788H8.69486V4.30663H11.036C11.3189 4.29918 11.6005 4.34736 11.8649 4.44841C12.0754 4.53118 12.2652 4.65898 12.4211 4.82285C12.5624 4.97512 12.6691 5.15619 12.7337 5.35361C12.7993 5.55304 12.8324 5.76169 12.8319 5.97161C12.8318 6.1803 12.7987 6.38768 12.7337 6.58599ZM18.1395 9.49426H17.4124L17.2912 8.90532C17.1169 9.14356 16.884 9.33267 16.615 9.45426C16.3785 9.55628 16.1238 9.60946 15.8662 9.61059C15.4982 9.61627 15.1331 9.54572 14.7937 9.40338C14.4879 9.27334 14.2138 9.07863 13.9903 8.83262C13.7684 8.58375 13.5979 8.29341 13.4887 7.97833C13.3702 7.63833 13.3111 7.28046 13.3142 6.92043C13.3108 6.55325 13.3698 6.18817 13.4887 5.84075C13.5977 5.52124 13.7681 5.22609 13.9903 4.9719C14.2125 4.72174 14.4867 4.52321 14.7937 4.39024C15.1324 4.24541 15.4978 4.17357 15.8662 4.17939C16.129 4.1792 16.3903 4.22008 16.6405 4.30057C16.8847 4.37775 17.1136 4.49709 17.3167 4.6532C17.5191 4.80978 17.6884 5.00502 17.8147 5.22758C17.9507 5.469 18.0333 5.73675 18.0571 6.01281H16.9665C16.9187 5.75453 16.7792 5.52218 16.5738 5.35846C16.3694 5.20965 16.1213 5.13292 15.8686 5.14034C15.6413 5.1334 15.4161 5.1847 15.2142 5.28938C15.0386 5.38539 14.8889 5.52262 14.778 5.68927C14.6639 5.8636 14.5818 6.05687 14.5356 6.26002C14.4843 6.4768 14.4587 6.69887 14.4593 6.92164C14.4588 7.13602 14.4845 7.34965 14.5356 7.55783C14.5828 7.75613 14.6649 7.94447 14.778 8.11404C14.8897 8.27906 15.0393 8.41492 15.2142 8.51028C15.4161 8.61496 15.6413 8.66628 15.8686 8.65934C16.2467 8.65934 16.5387 8.56361 16.7447 8.37215C16.9661 8.15017 17.0959 7.85297 17.1082 7.53966H15.9595V6.69142H18.1407L18.1395 9.49426Z" fill="#C55C8A"/>
<path d="M11.4213 5.3354C11.323 5.27743 11.2143 5.23917 11.1014 5.22271C10.9763 5.20302 10.8499 5.19328 10.7233 5.19361H9.8363V6.74955H10.7233C10.8499 6.74988 10.9763 6.74015 11.1014 6.72046C11.2143 6.70401 11.323 6.66572 11.4213 6.60776C11.5159 6.5486 11.5925 6.46482 11.6431 6.36541C11.7038 6.24116 11.7326 6.10369 11.7267 5.96551C11.7326 5.82733 11.7038 5.68988 11.6431 5.56564C11.5908 5.47067 11.5142 5.39123 11.4213 5.3354Z" fill="#C55C8A"/>
<path d="M28.8588 33.874C28.8588 34.5704 28.5822 35.2383 28.0897 35.7308C27.5973 36.2232 26.9293 36.4999 26.2329 36.4999H5.18311C4.48667 36.4999 3.81875 36.2232 3.32629 35.7308C2.83384 35.2383 2.55718 34.5704 2.55718 33.874V29.8279C1.92342 29.7939 1.30541 29.7418 0.708008 29.6691V33.874C0.71025 35.0602 1.18245 36.1971 2.02121 37.0359C2.85997 37.8746 3.99693 38.3468 5.18311 38.3491H26.2329C27.3402 38.3473 28.4077 37.9358 29.2297 37.1939C30.0517 36.452 30.5701 35.4321 30.685 34.3308C30.6994 34.179 30.7059 34.0265 30.7044 33.874V22.9135C30.0961 23.2204 29.4797 23.5189 28.8552 23.8089L28.8588 33.874Z" fill="#B45B83"/>
<path d="M27.5949 8.56604H30.7044L23.1162 0.558594V4.09093C23.1185 5.27774 23.5912 6.41525 24.4307 7.25411C25.2702 8.09298 26.4081 8.56475 27.5949 8.56604Z" fill="#2F3132"/>
<path d="M10.767 24.3301C11.2111 24.3301 11.6371 24.1536 11.9511 23.8396C12.2652 23.5255 12.4416 23.0995 12.4416 22.6554C12.4416 22.2111 12.2652 21.785 11.9512 21.4708C11.6372 21.1565 11.2112 20.9798 10.767 20.9795C10.3227 20.9798 9.89674 21.1565 9.58271 21.4708C9.26869 21.785 9.09229 22.2111 9.09229 22.6554C9.09229 23.0995 9.26872 23.5255 9.58279 23.8396C9.89685 24.1536 10.3228 24.3301 10.767 24.3301Z" fill="#2F3132"/>
<path d="M19.8238 27.2565L19.7257 27.1596L16.8525 24.3337L13.9818 27.1596L13.7855 27.3511L14.2412 27.7934L15.8419 29.3481L15.0082 28.5374C16.6017 28.1787 18.2146 27.7485 19.8238 27.2565ZM15.0337 26.9003L16.7604 25.2038C16.8174 25.1471 16.8945 25.1153 16.9749 25.1153C17.0553 25.1153 17.1324 25.1471 17.1894 25.2038C17.2461 25.2608 17.2779 25.3379 17.2779 25.4183C17.2779 25.4987 17.2461 25.5758 17.1894 25.6328L15.4626 27.3293C15.4058 27.3853 15.3292 27.4166 15.2493 27.4165C15.2092 27.4165 15.1694 27.4084 15.1323 27.3928C15.0953 27.3772 15.0617 27.3544 15.0337 27.3256C14.9781 27.2688 14.9469 27.1924 14.9469 27.1129C14.9469 27.0334 14.9781 26.9571 15.0337 26.9003Z" fill="#2F3132"/>
<path d="M10.4907 29.3808C10.4712 29.3264 10.4678 29.2675 10.4809 29.2112C10.494 29.1549 10.5231 29.1035 10.5646 29.0633L11.7873 27.8758C11.8441 27.8192 11.921 27.7874 12.0012 27.7874C12.0814 27.7874 12.1583 27.8192 12.2151 27.8758C12.271 27.9336 12.3017 28.0111 12.3006 28.0915C12.2994 28.1719 12.2665 28.2486 12.209 28.3047L11.2214 29.2645C12.1254 29.1199 13.0399 28.951 13.9649 28.7579L13.6207 28.4247L12.02 26.8688L10.418 28.4247L8.81726 29.9794L9.27289 29.5371C9.6752 29.4927 10.0811 29.4406 10.4907 29.3808Z" fill="#2F3132"/>
<path d="M19.8239 27.2565L22.5976 29.9842L19.8239 27.2565Z" fill="#000301"/>
<path d="M15.0057 28.5422L15.8394 29.3529L16.4962 29.9903H22.5987L19.8238 27.2614C18.2145 27.7485 16.6016 28.1787 15.0057 28.5422Z" fill="#000301"/>
<path d="M13.9636 28.7639L15.2214 29.9842L13.9636 28.7639Z" fill="#000301"/>
<path d="M10.9863 29.4971L11.2202 29.2693L10.9863 29.4971Z" fill="#000301"/>
<path d="M10.4907 29.3807C10.4966 29.4006 10.5056 29.4194 10.5174 29.4365C10.5062 29.4191 10.4972 29.4004 10.4907 29.3807Z" fill="#000301"/>
<path d="M11.2214 29.2692L10.9863 29.4958C10.9302 29.5513 10.8544 29.5822 10.7755 29.5819C10.735 29.582 10.6949 29.5739 10.6576 29.5581C10.6203 29.5422 10.5866 29.519 10.5586 29.4898C10.5432 29.4738 10.5294 29.4564 10.5174 29.4377C10.5056 29.4206 10.4966 29.4018 10.4907 29.3819C10.0811 29.4417 9.6752 29.4958 9.27289 29.5443L8.81726 29.9866H15.2215L13.9649 28.7651C13.0415 28.9574 12.127 29.1254 11.2214 29.2692Z" fill="#000301"/>
<path d="M7.84781 18.7134H23.5682V25.9962C24.0529 25.8177 24.5376 25.6339 25.0223 25.4448V17.2593H6.39368V29.8012C6.87193 29.7729 7.35664 29.737 7.84781 29.6933V18.7134Z" fill="#2F3132"/>
<path d="M25.0223 25.4449C24.5376 25.634 24.0529 25.8178 23.5682 25.9963V30.9985H7.84781V29.6934C7.35664 29.7371 6.87193 29.773 6.39368 29.8013V32.4527H25.0223V25.4449Z" fill="#000301"/>
</svg>
