<svg width="31" height="38" viewBox="0 0 31 38" fill="none" xmlns="http://www.w3.org/2000/svg">
<path d="M8.24256 24.6308C8.26373 24.6097 8.28885 24.5929 8.3165 24.5815C8.34416 24.5701 8.37379 24.5642 8.40372 24.5642H15.2539V17.7128C15.2539 17.6524 15.2779 17.5944 15.3206 17.5517C15.3634 17.509 15.4213 17.485 15.4817 17.485C17.4185 17.4872 19.2754 18.2577 20.6448 19.6274C22.0142 20.997 22.7844 22.854 22.7863 24.7908C22.7841 26.7274 22.0138 28.5841 20.6444 29.9535C19.275 31.3228 17.4183 32.0932 15.4817 32.0954C13.545 32.0932 11.6882 31.3229 10.3186 29.9535C8.94905 28.5842 8.17847 26.7275 8.1759 24.7908C8.17618 24.7308 8.20014 24.6733 8.24256 24.6308Z" fill="#2F3132"/>
<path d="M9.15137 28.4286C9.79119 29.5423 10.7132 30.4676 11.8246 31.1113C12.9359 31.7551 14.1974 32.0945 15.4817 32.0955C17.4012 32.0928 19.2428 31.3356 20.6089 29.9871C21.975 28.6387 22.7562 26.8072 22.7839 24.8878C18.2458 26.5819 13.5392 27.8094 9.15137 28.4286Z" fill="#000301"/>
<path d="M13.9705 22.371V16.838C13.9703 16.7848 13.9489 16.7338 13.9111 16.6962C13.8927 16.6777 13.8708 16.6631 13.8467 16.6531C13.8225 16.6431 13.7967 16.638 13.7706 16.6381C12.0631 16.64 10.4262 17.3192 9.21893 18.5267C8.01169 19.7341 7.33278 21.3712 7.33118 23.0787C7.33118 23.1317 7.35224 23.1826 7.38974 23.2201C7.42724 23.2575 7.47809 23.2786 7.53112 23.2786H13.9705V22.371ZM12.3395 18.4182C11.5693 18.6538 10.8698 19.077 10.3036 19.6498C9.73743 20.2225 9.3223 20.9269 9.09552 21.6997C9.07328 21.775 9.02726 21.841 8.96436 21.888C8.90145 21.9349 8.82503 21.9603 8.74653 21.9602C8.71158 21.9603 8.67684 21.955 8.64353 21.9444C8.55186 21.9164 8.47498 21.8533 8.42959 21.7689C8.3842 21.6845 8.37398 21.5856 8.40117 21.4937C8.66203 20.6059 9.13913 19.7968 9.78967 19.1389C10.4402 18.4809 11.2439 17.9947 12.1286 17.7238C12.1744 17.7098 12.2224 17.705 12.27 17.7096C12.3177 17.7142 12.3639 17.7281 12.4061 17.7506C12.4484 17.7732 12.4857 17.8038 12.5161 17.8408C12.5464 17.8778 12.5692 17.9204 12.583 17.9662C12.6105 18.0584 12.6003 18.1578 12.5547 18.2425C12.509 18.3272 12.4316 18.3904 12.3395 18.4182Z" fill="#2F3132"/>
<path d="M11.3494 4.83173C11.2511 4.77377 11.1424 4.73549 11.0295 4.71903C10.9045 4.69934 10.778 4.68962 10.6514 4.68995H9.7644V6.24587H10.6514C10.778 6.2462 10.9045 6.23648 11.0295 6.21679C11.1424 6.20033 11.2511 6.16206 11.3494 6.1041C11.444 6.04494 11.5206 5.96116 11.5712 5.86174C11.6319 5.7375 11.6607 5.60003 11.6548 5.46185C11.6607 5.32367 11.6319 5.18621 11.5712 5.06196C11.5189 4.96699 11.4424 4.88757 11.3494 4.83173Z" fill="#D26344"/>
<path d="M21.0158 3.58969V0.0537109H4.53564C3.42855 0.0558115 2.36138 0.467432 1.53964 1.20931C0.717889 1.95119 0.199673 2.97086 0.0847765 4.07197C0.0687531 4.22373 0.0606694 4.37622 0.0605469 4.52882V28.7305C0.659166 28.7923 1.27233 28.8335 1.90972 28.8516V12.735H28.2053V22.5928C28.829 22.2955 29.4454 21.9905 30.0545 21.6779V9.51649H26.9439C25.3726 9.51392 23.8665 8.88871 22.7554 7.77781C21.6442 6.66691 21.0187 5.1609 21.0158 3.58969ZM7.80744 6.08231C7.7434 6.28109 7.6367 6.46348 7.49481 6.61671C7.33892 6.78058 7.14909 6.90838 6.9386 6.99114C6.67426 7.0922 6.39264 7.14038 6.10974 7.13293H4.91009V8.99422H3.76859V3.80295H6.10974C6.39264 3.7955 6.67426 3.84367 6.9386 3.94473C7.14909 4.0275 7.33892 4.15529 7.49481 4.31917C7.63612 4.47143 7.74278 4.65251 7.80744 4.84993C7.87299 5.04936 7.90614 5.25802 7.9056 5.46795C7.90713 5.67638 7.87564 5.88373 7.81229 6.08231H7.80744ZM12.6546 6.08231C12.5905 6.28109 12.4838 6.46348 12.3419 6.61671C12.186 6.78058 11.9962 6.90838 11.7857 6.99114C11.5214 7.0922 11.2398 7.14038 10.9569 7.13293H9.7572V8.99422H8.6157V3.80295H10.9569C11.2398 3.7955 11.5214 3.84367 11.7857 3.94473C11.9962 4.0275 12.186 4.15529 12.3419 4.31917C12.4832 4.47143 12.5899 4.65251 12.6546 4.84993C12.7201 5.04936 12.7533 5.25802 12.7527 5.46795C12.755 5.67625 12.7244 5.8836 12.6618 6.08231H12.6546ZM17.3114 4.76268H15.7555V8.99422H14.614V4.76268H13.0581V3.80295H17.3114V4.76268Z" fill="#D26344"/>
<path d="M6.49993 4.83173C6.40162 4.77377 6.29296 4.73549 6.18002 4.71903C6.05497 4.69934 5.92854 4.68962 5.80195 4.68995H4.91492V6.24587H5.80195C5.92854 6.2462 6.05497 6.23648 6.18002 6.21679C6.29296 6.20033 6.40162 6.16206 6.49993 6.1041C6.59448 6.04494 6.67113 5.96116 6.72168 5.86174C6.78243 5.7375 6.81118 5.60003 6.8053 5.46185C6.81118 5.32367 6.78243 5.18621 6.72168 5.06196C6.66938 4.96699 6.59287 4.88757 6.49993 4.83173Z" fill="#D26344"/>
<path d="M28.2089 33.3679C28.2089 34.0644 27.9323 34.7323 27.4398 35.2248C26.9474 35.7172 26.2795 35.9939 25.583 35.9939H4.53321C3.83677 35.9939 3.16884 35.7172 2.67639 35.2248C2.18393 34.7323 1.90728 34.0644 1.90728 33.3679V28.8613C1.27473 28.8383 0.656724 28.7971 0.0581055 28.7402V33.3728C0.0603475 34.559 0.532556 35.6959 1.37131 36.5347C2.21007 37.3734 3.34703 37.8456 4.53321 37.8479H25.583C26.6903 37.8461 27.7578 37.4346 28.5798 36.6927C29.4018 35.9508 29.9202 34.9309 30.0351 33.8296C30.0496 33.6794 30.0581 33.5267 30.0581 33.3728V21.6852C29.4498 21.9986 28.8334 22.3036 28.2089 22.6001V33.3679Z" fill="#B76245"/>
<path d="M26.9439 8.06478H30.0569L22.47 0.0537109V3.58484C22.4709 4.77165 22.9424 5.90967 23.781 6.74944C24.6197 7.58921 25.7571 8.06221 26.9439 8.06478Z" fill="#2F3132"/>
</svg>
