<svg width="31" height="39" viewBox="0 0 31 39" fill="none" xmlns="http://www.w3.org/2000/svg">
<path d="M6.97879 5.32569C6.88038 5.26793 6.77176 5.22966 6.65888 5.21299C6.53382 5.1933 6.4074 5.18358 6.28081 5.18391H5.39258V6.73984H6.28081C6.4074 6.74017 6.53382 6.73045 6.65888 6.71076C6.77176 6.69409 6.88038 6.65582 6.97879 6.59806C7.07306 6.53857 7.14964 6.45487 7.20054 6.3557C7.26129 6.23145 7.29004 6.09399 7.28416 5.95581C7.29004 5.81763 7.26129 5.68018 7.20054 5.55593C7.14791 5.4612 7.07148 5.38184 6.97879 5.32569Z" fill="#C74C44"/>
<path d="M21.6656 4.08116V0.548828H5.18541C4.07812 0.55063 3.01066 0.962121 2.18866 1.70403C1.36666 2.44593 0.848262 3.46577 0.733344 4.56709C0.718802 4.71735 0.710327 4.87003 0.710327 5.02393V29.2268C1.30895 29.2873 1.92211 29.3286 2.5595 29.3479V13.2313H28.8551V23.0891C29.4787 22.7926 30.0951 22.4877 30.7042 22.1742V10.0128H27.5936C26.0216 10.0103 24.5147 9.38437 23.4034 8.27242C22.2922 7.16047 21.6672 5.65321 21.6656 4.08116ZM8.2912 6.57258C8.22673 6.77144 8.11962 6.9538 7.97735 7.10697C7.82215 7.27109 7.63266 7.39895 7.42237 7.48142C7.15799 7.58235 6.87639 7.63051 6.5935 7.62319H5.39264V9.48448H4.25235V4.29322H6.5935C6.87639 4.2859 7.15799 4.33407 7.42237 4.43501C7.63266 4.51747 7.82215 4.64532 7.97735 4.80944C8.11905 4.96164 8.22611 5.14271 8.2912 5.3402C8.35675 5.53963 8.3899 5.74828 8.38936 5.95821C8.38933 6.1669 8.35619 6.37427 8.2912 6.57258ZM13.5515 7.90554C13.4623 8.20867 13.3127 8.4906 13.1117 8.73439C12.9112 8.97021 12.6602 9.15784 12.3773 9.28333C12.0502 9.42315 11.6969 9.49133 11.3412 9.48328H9.10067V4.29201H11.3412C11.6597 4.28935 11.9761 4.34353 12.2755 4.45197C12.5579 4.55627 12.8136 4.7218 13.0244 4.93669C13.2445 5.16482 13.4131 5.43756 13.5188 5.73646C13.6435 6.09881 13.7034 6.48028 13.6957 6.8634C13.6991 7.21637 13.6505 7.56793 13.5515 7.90675V7.90554ZM18.1381 5.25174H15.6309V6.45141H17.8037V7.33842H15.6309V9.48328H14.4882V4.29201H18.1417L18.1381 5.25174Z" fill="#C74C44"/>
<path d="M12.2285 5.71816C12.1072 5.56442 11.9476 5.44532 11.7656 5.37281C11.54 5.28636 11.2995 5.24518 11.058 5.25163H10.2424V8.52343H11.2603C11.4252 8.52399 11.589 8.49696 11.745 8.44345C11.9021 8.38884 12.0441 8.29792 12.1595 8.17808C12.2895 8.03882 12.3886 7.87364 12.4503 7.69337C12.5281 7.4591 12.5646 7.21308 12.5581 6.9663C12.5611 6.72787 12.5359 6.48992 12.483 6.2574C12.4375 6.06161 12.3507 5.87778 12.2285 5.71816Z" fill="#C74C44"/>
<path d="M28.8588 33.8581C28.8588 34.5546 28.5822 35.2225 28.0897 35.7149C27.5972 36.2074 26.9293 36.484 26.2329 36.484H5.18311C4.48667 36.484 3.81874 36.2074 3.32629 35.7149C2.83383 35.2225 2.55718 34.5546 2.55718 33.8581V29.3515C1.92463 29.3285 1.30663 29.2873 0.708008 29.2303V33.8618C0.71025 35.0479 1.18246 36.1849 2.02122 37.0236C2.85997 37.8624 3.99693 38.3346 5.18311 38.3368H26.2329C27.3402 38.335 28.4076 37.9236 29.2296 37.1817C30.0516 36.4398 30.57 35.4199 30.685 34.3186C30.6995 34.1695 30.708 34.0169 30.708 33.8618V22.1693C30.0997 22.482 29.4833 22.7869 28.8588 23.0842V33.8581Z" fill="#AC4E44"/>
<path d="M23.1199 4.08116C23.1221 5.26734 23.5943 6.4043 24.4331 7.24306C25.2718 8.08181 26.4088 8.55402 27.595 8.55626H30.708L23.1199 0.548828V4.08116Z" fill="#2F3132"/>
<path d="M25.4123 17.5973H17.1722V23.4005H25.4123V17.5973ZM19.7606 19.0514H18.6264V19.9081C18.6264 19.9885 18.5945 20.0656 18.5377 20.1224C18.4808 20.1792 18.4038 20.2111 18.3234 20.2111C18.2431 20.2111 18.166 20.1792 18.1092 20.1224C18.0524 20.0656 18.0205 19.9885 18.0205 19.9081V18.7485C18.0205 18.6681 18.0524 18.5911 18.1092 18.5343C18.166 18.4774 18.2431 18.4455 18.3234 18.4455H19.7618C19.8422 18.4455 19.9192 18.4774 19.976 18.5343C20.0328 18.5911 20.0648 18.6681 20.0648 18.7485C20.0649 18.7888 20.057 18.8287 20.0416 18.8659C20.0261 18.9031 20.0034 18.9369 19.9747 18.9652C19.9461 18.9935 19.9121 19.0159 19.8747 19.0309C19.8373 19.0459 19.7972 19.0533 19.757 19.0526L19.7606 19.0514ZM24.5641 22.242C24.5641 22.3224 24.5322 22.3994 24.4754 22.4562C24.4185 22.5131 24.3415 22.545 24.2611 22.545H22.8215C22.7412 22.545 22.6641 22.5131 22.6073 22.4562C22.5505 22.3994 22.5186 22.3224 22.5186 22.242C22.5186 22.1617 22.5505 22.0846 22.6073 22.0278C22.6641 21.971 22.7412 21.9391 22.8215 21.9391H23.9582V21.0787C23.9582 20.9984 23.9901 20.9213 24.0469 20.8645C24.1037 20.8077 24.1808 20.7758 24.2611 20.7758C24.3415 20.7758 24.4185 20.8077 24.4754 20.8645C24.5322 20.9213 24.5641 20.9984 24.5641 21.0787V22.242Z" fill="#2F3132"/>
<path d="M25.45 30.6338H5.93188V32.0843H25.45V30.6338Z" fill="#000301"/>
<path d="M15.1656 21.9502H5.93188V23.4007H15.1656V21.9502Z" fill="#2F3132"/>
<path d="M15.1656 17.5973H5.93188V19.0478H15.1656V17.5973Z" fill="#2F3132"/>
<path d="M20.8344 26.2894H5.92957V27.7435H15.8104C17.4814 27.3291 19.1634 26.8432 20.8344 26.2894Z" fill="#2F3132"/>
<path d="M25.4501 27.7435V26.2894H20.8345C19.1634 26.8407 17.4815 27.3266 15.8129 27.7435H25.4501Z" fill="#000301"/>
</svg>
