<svg width="31" height="38" viewBox="0 0 31 38" fill="none" xmlns="http://www.w3.org/2000/svg">
<path d="M21.6657 3.59825V0.065918H5.18555C4.07825 0.0677196 3.01079 0.479211 2.18878 1.22112C1.36678 1.96302 0.848392 2.98286 0.733473 4.08418C0.718932 4.23444 0.710449 4.38713 0.710449 4.54102V28.7439C1.30907 28.8045 1.92223 28.8457 2.55962 28.865V12.7484H28.8589V22.6062C29.4833 22.3097 30.0997 22.0048 30.708 21.6913V9.52992H27.595C26.0227 9.52767 24.5155 8.90192 23.404 7.78994C22.2925 6.67796 21.6673 5.17052 21.6657 3.59825ZM7.89509 9.00521L6.76086 7.20936L5.60482 9.00521H4.32519L6.13558 6.28599L4.46333 3.81396H5.78659L6.80449 5.47166L7.85873 3.81396H9.10929L7.4443 6.29689L9.2547 9.00885L7.89509 9.00521ZM13.3844 9.00521H9.71276V3.81396H10.853V8.04549H13.3832L13.3844 9.00521ZM17.9286 8.12546C17.8341 8.3308 17.693 8.51128 17.5166 8.65258C17.3158 8.81058 17.0861 8.9279 16.8404 8.99795C16.5367 9.08426 16.2219 9.1251 15.9062 9.11912C15.6253 9.1197 15.3455 9.08427 15.0737 9.0137C14.8174 8.94937 14.5756 8.83711 14.3611 8.68287C14.1549 8.53236 13.9869 8.33565 13.8704 8.10849C13.7435 7.85129 13.6838 7.56613 13.6971 7.27964H14.801C14.7964 7.43293 14.8288 7.58508 14.8955 7.72315C14.9547 7.84011 15.0412 7.9411 15.1476 8.01761C15.2571 8.09581 15.3805 8.15256 15.5111 8.18483C15.6532 8.22151 15.7994 8.23985 15.9461 8.23937C16.0561 8.23878 16.1658 8.23027 16.2745 8.21391C16.3879 8.19767 16.4981 8.16459 16.6017 8.11577C16.7004 8.06944 16.787 8.00102 16.855 7.91582C16.9254 7.82306 16.9614 7.70867 16.9568 7.59227C16.9593 7.5291 16.9486 7.4661 16.9255 7.40727C16.9023 7.34843 16.8672 7.29507 16.8223 7.25056C16.7204 7.15576 16.601 7.08167 16.4708 7.03243C16.3099 6.96964 16.1447 6.91863 15.9764 6.87976C15.7914 6.83614 15.6048 6.78766 15.4166 6.73434C15.2241 6.68668 15.0347 6.62719 14.8495 6.55621C14.6721 6.49034 14.5055 6.39845 14.3551 6.28356C14.2086 6.17147 14.0882 6.0288 14.0024 5.86549C13.9072 5.67807 13.8605 5.46974 13.8667 5.2596C13.8607 5.01705 13.9197 4.77731 14.0376 4.56525C14.1502 4.37312 14.3032 4.20774 14.4859 4.08054C14.6749 3.94698 14.8862 3.84849 15.11 3.78973C15.3379 3.72738 15.573 3.69559 15.8092 3.6952C16.072 3.69431 16.334 3.72482 16.5896 3.78609C16.8279 3.84138 17.0537 3.94129 17.2549 4.08054C17.4477 4.21527 17.6062 4.39332 17.7178 4.6004C17.8369 4.83812 17.8951 5.10167 17.8874 5.36745H16.7908C16.7856 5.23336 16.7518 5.10195 16.6914 4.98211C16.6397 4.88347 16.5633 4.79995 16.4696 4.73976C16.3728 4.68071 16.266 4.63966 16.1546 4.61858C16.0264 4.59356 15.8961 4.58138 15.7656 4.58222C15.6727 4.58217 15.5801 4.59192 15.4893 4.6113C15.3997 4.62928 15.3142 4.66381 15.2372 4.7131C15.1635 4.76019 15.1004 4.82209 15.0519 4.89487C15.0004 4.97757 14.9751 5.07383 14.9791 5.17114C14.976 5.25588 14.9966 5.33981 15.0385 5.4135C15.0963 5.49264 15.1759 5.55328 15.2675 5.588C15.4197 5.6549 15.5775 5.70841 15.7389 5.74795C15.9401 5.80127 16.2034 5.86913 16.529 5.95153C16.6251 5.97092 16.7596 6.00606 16.9325 6.05696C17.1139 6.1123 17.2862 6.19395 17.4439 6.29931C17.6198 6.41648 17.7695 6.5687 17.8838 6.74645C18.0157 6.96131 18.0803 7.21074 18.0692 7.46262C18.07 7.69105 18.0221 7.91704 17.9286 8.12546Z" fill="#659C5D"/>
<path d="M28.8588 33.3752C28.8588 34.0717 28.5822 34.7396 28.0897 35.232C27.5973 35.7245 26.9293 36.0011 26.2329 36.0011H5.1831C4.48667 36.0011 3.81875 35.7245 3.3263 35.232C2.83384 34.7396 2.55718 34.0717 2.55718 33.3752V28.8686C1.92463 28.8456 1.30663 28.8044 0.708008 28.7474V33.3788C0.71025 34.565 1.18245 35.702 2.02121 36.5407C2.85997 37.3795 3.99692 37.8517 5.1831 37.8539H26.2329C27.3402 37.8521 28.4077 37.4407 29.2297 36.6988C30.0517 35.9569 30.5701 34.937 30.685 33.8357C30.6995 33.6866 30.708 33.534 30.708 33.3788V21.6864C30.0997 21.999 29.4833 22.304 28.8588 22.6013V33.3752Z" fill="#5E8B58"/>
<path d="M27.595 8.07336H30.708L23.1199 0.065918V3.59826C23.1221 4.78444 23.5943 5.92139 24.4331 6.76015C25.2718 7.59891 26.4088 8.07112 27.595 8.07336Z" fill="#2F3132"/>
<path d="M14.4799 22.9467C14.4799 22.9047 14.4881 22.8631 14.5042 22.8243C14.5203 22.7855 14.5439 22.7502 14.5736 22.7205C14.6033 22.6908 14.6385 22.6672 14.6774 22.6512C14.7162 22.6351 14.7578 22.6268 14.7998 22.6268C14.8847 22.6268 14.9662 22.6605 15.0264 22.7204C15.0866 22.7804 15.1206 22.8618 15.1209 22.9467V27.4303C15.9788 27.2283 16.8404 27.0066 17.7056 26.765V21.5435C17.7072 21.3605 17.6728 21.179 17.6042 21.0093C17.5356 20.8396 17.4343 20.6851 17.306 20.5545C17.1778 20.424 17.025 20.32 16.8566 20.2485C16.6881 20.177 16.5072 20.1394 16.3242 20.1378H15.0942C14.7247 20.1413 14.3718 20.2913 14.1127 20.5549C13.8537 20.8184 13.7099 21.174 13.7128 21.5435V27.7454C13.9697 27.6908 14.2254 27.6351 14.4823 27.5769L14.4799 22.9467Z" fill="#2F3132"/>
<path d="M8.92141 25.0795C8.92173 24.9945 8.95571 24.9132 9.01589 24.8532C9.07608 24.7932 9.15758 24.7596 9.24253 24.7596C9.28454 24.7596 9.32614 24.7678 9.36495 24.7839C9.40377 24.8 9.43904 24.8236 9.46874 24.8533C9.49845 24.883 9.52201 24.9182 9.53809 24.9571C9.55417 24.9959 9.56244 25.0375 9.56244 25.0795V28.4725C10.4131 28.3561 11.2747 28.2176 12.1472 28.0568V24.373C12.1492 24.1895 12.1152 24.0074 12.0469 23.8371C11.9786 23.6668 11.8774 23.5116 11.7491 23.3804C11.6208 23.2492 11.468 23.1446 11.2992 23.0724C11.1305 23.0003 10.9492 22.9621 10.7657 22.9601H9.53336C9.16289 22.9646 8.80935 23.1159 8.55035 23.3808C8.29134 23.6457 8.14805 24.0026 8.15193 24.373V28.6445C8.40762 28.6179 8.66451 28.5876 8.92141 28.5561V25.0795Z" fill="#2F3132"/>
<path d="M20.0382 20.9848C20.0381 20.9427 20.0462 20.901 20.0623 20.8621C20.0783 20.8231 20.1018 20.7877 20.1315 20.7579C20.1612 20.728 20.1966 20.7044 20.2355 20.6882C20.2743 20.6721 20.316 20.6637 20.3582 20.6637C20.4003 20.6637 20.4421 20.672 20.481 20.6882C20.52 20.7043 20.5554 20.728 20.5852 20.7578C20.615 20.7876 20.6387 20.823 20.6548 20.862C20.671 20.9009 20.6793 20.9427 20.6793 20.9848V25.861C21.5445 25.5775 22.4061 25.2766 23.264 24.9583V19.4277C23.2679 19.0574 23.1245 18.7006 22.8655 18.4359C22.6065 18.1712 22.2529 18.0201 21.8826 18.016H20.6502C20.4668 18.0179 20.2855 18.0559 20.1168 18.1279C19.9481 18.1999 19.7952 18.3044 19.6669 18.4356C19.5386 18.5667 19.4374 18.7218 19.3691 18.892C19.3008 19.0623 19.2667 19.2443 19.2688 19.4277V26.3058C19.5257 26.227 19.7826 26.1482 20.0382 26.0634V20.9848Z" fill="#2F3132"/>
<path d="M15.0943 30.7251H16.3267C16.6964 30.7216 17.0496 30.5714 17.3086 30.3076C17.5676 30.0438 17.7113 29.6879 17.7081 29.3182V26.7614C16.8445 27.0037 15.9829 27.2255 15.1234 27.4266V28.8808C15.123 28.9657 15.0891 29.0471 15.0289 29.107C14.9687 29.167 14.8872 29.2007 14.8023 29.2007C14.7174 29.2007 14.636 29.167 14.576 29.107C14.516 29.047 14.4823 28.9656 14.4823 28.8808V27.5708C14.2254 27.629 13.9698 27.6847 13.7129 27.7393V29.3146C13.7108 29.4979 13.7449 29.6799 13.8132 29.8501C13.8815 30.0203 13.9828 30.1753 14.1111 30.3063C14.2394 30.4373 14.3923 30.5417 14.561 30.6136C14.7297 30.6855 14.9109 30.7233 15.0943 30.7251Z" fill="#000301"/>
<path d="M9.53336 30.7252H10.7657C11.1361 30.7211 11.4896 30.57 11.7487 30.3053C12.0077 30.0406 12.151 29.6838 12.1472 29.3135V28.0544C11.2747 28.216 10.4131 28.3546 9.56244 28.4701V28.9257C9.56244 29.0106 9.52874 29.0919 9.46874 29.1519C9.40875 29.2119 9.32738 29.2456 9.24253 29.2456C9.15758 29.2456 9.07608 29.212 9.01589 29.152C8.95571 29.092 8.92173 29.0107 8.92141 28.9257V28.5537C8.66451 28.5852 8.40762 28.6155 8.15193 28.6422V29.3135C8.14805 29.6838 8.29138 30.0406 8.55042 30.3053C8.80946 30.57 9.163 30.7211 9.53336 30.7252Z" fill="#000301"/>
<path d="M20.6502 30.7251H21.8802C22.2506 30.721 22.6041 30.5699 22.8631 30.3052C23.1222 30.0405 23.2655 29.6837 23.2616 29.3134V24.9583C22.4053 25.2757 21.5437 25.5767 20.6769 25.861V28.7984C20.6766 28.8833 20.6426 28.9647 20.5824 29.0247C20.5222 29.0846 20.4407 29.1183 20.3558 29.1183C20.2709 29.1183 20.1896 29.0846 20.1296 29.0246C20.0696 28.9646 20.0359 28.8832 20.0359 28.7984V26.067C19.7802 26.1482 19.5233 26.227 19.2664 26.3094V29.317C19.2635 29.6872 19.4076 30.0433 19.667 30.3073C19.9265 30.5713 20.2801 30.7216 20.6502 30.7251Z" fill="#000301"/>
</svg>
