<svg width="31" height="39" viewBox="0 0 31 39" fill="none" xmlns="http://www.w3.org/2000/svg">
<path d="M5.85649 5.33539C5.75808 5.27763 5.64947 5.23936 5.53658 5.22269C5.41152 5.203 5.2851 5.19328 5.1585 5.19361H4.27148V6.74954H5.1585C5.2851 6.74988 5.41152 6.74015 5.53658 6.72046C5.64947 6.7038 5.75808 6.66553 5.85649 6.60776C5.95103 6.5486 6.02769 6.46482 6.07824 6.36541C6.13899 6.24116 6.16773 6.10369 6.16185 5.96551C6.16773 5.82733 6.13899 5.68988 6.07824 5.56564C6.02593 5.47067 5.94943 5.39123 5.85649 5.33539Z" fill="#DA7A44"/>
<path d="M21.0158 4.09093V0.558594H4.53564C3.42835 0.560395 2.36088 0.971887 1.53888 1.71379C0.716878 2.4557 0.198489 3.47553 0.0835709 4.57685C0.0690296 4.72711 0.0605469 4.8798 0.0605469 5.03369V29.2365C0.659165 29.2971 1.27556 29.3375 1.90972 29.3577V13.2411H28.2089V23.0989C28.8326 22.8024 29.449 22.4974 30.0581 22.184V10.0226H26.945C25.3728 10.0203 23.8656 9.39459 22.7541 8.28261C21.6425 7.17063 21.0174 5.66319 21.0158 4.09093ZM7.16883 6.58597C7.10479 6.78475 6.99809 6.96714 6.8562 7.12037C6.70031 7.28424 6.51047 7.41204 6.29999 7.49481C6.03561 7.59574 5.75403 7.64391 5.47113 7.63659H4.27148V9.49788H3.12998V4.30663H5.47113C5.75403 4.29931 6.03561 4.34748 6.29999 4.44841C6.51047 4.53118 6.70031 4.65897 6.8562 4.82285C6.99751 4.97511 7.10417 5.15619 7.16883 5.35361C7.23438 5.55303 7.26753 5.76168 7.26699 5.97161C7.26695 6.1803 7.23382 6.38766 7.16883 6.58597ZM12.3637 9.49424H11.2222L9.06284 6.01887H9.0483V9.49424H7.9783V4.30299H9.11374L11.2755 7.78928H11.2901V4.30663H12.3661L12.3637 9.49424ZM17.9621 9.49424H17.2351L17.1139 8.90532C16.9401 9.14402 16.707 9.33324 16.4377 9.45426C16.2016 9.55637 15.9473 9.60955 15.6901 9.61058C15.3221 9.61651 14.9569 9.54594 14.6176 9.40336C14.3118 9.27332 14.0377 9.07862 13.8142 8.83261C13.5918 8.58405 13.4213 8.29362 13.3125 7.97832C13.1941 7.63833 13.135 7.28046 13.1381 6.92043C13.1347 6.55325 13.1937 6.18817 13.3125 5.84074C13.423 5.52054 13.5955 5.22528 13.8203 4.97189C14.0425 4.72174 14.3167 4.52321 14.6237 4.39023C14.9623 4.24527 15.3278 4.17342 15.6961 4.17939C15.959 4.17928 16.2202 4.22016 16.4704 4.30056C16.7147 4.37774 16.9435 4.49709 17.1466 4.65319C17.349 4.80977 17.5183 5.00501 17.6447 5.22758C17.7806 5.469 17.8633 5.73675 17.887 6.01281H16.7964C16.7486 5.75452 16.6092 5.52216 16.4038 5.35844C16.1994 5.20963 15.9513 5.13292 15.6985 5.14033C15.4713 5.13339 15.246 5.1847 15.0442 5.28938C14.8685 5.38538 14.7188 5.52262 14.6079 5.68927C14.4939 5.8636 14.4118 6.05687 14.3656 6.26001C14.3143 6.4768 14.2887 6.69886 14.2892 6.92164C14.2888 7.13601 14.3144 7.34964 14.3656 7.55782C14.4128 7.75612 14.4948 7.94447 14.6079 8.11404C14.7196 8.27905 14.8692 8.41491 15.0442 8.51028C15.246 8.61495 15.4713 8.66628 15.6985 8.65934C16.0766 8.65934 16.3674 8.56361 16.5747 8.37215C16.7956 8.14983 16.9253 7.85282 16.9382 7.53964H15.7894V6.6914H17.9706L17.9621 9.49424Z" fill="#DA7A44"/>
<path d="M28.2089 33.8679C28.2089 34.5643 27.9323 35.2322 27.4398 35.7247C26.9473 36.2171 26.2794 36.4938 25.583 36.4938H4.5332C4.18836 36.4938 3.8469 36.4259 3.52831 36.2939C3.20971 36.162 2.92023 35.9685 2.67639 35.7247C2.43255 35.4809 2.23913 35.1914 2.10717 34.8728C1.9752 34.5542 1.90728 34.2127 1.90728 33.8679V29.3613C1.27392 29.3387 0.657531 29.2983 0.0581055 29.2401V33.8715C0.0603475 35.0577 0.53255 36.1947 1.37131 37.0334C2.21007 37.8722 3.34702 38.3444 4.5332 38.3466H25.583C26.6903 38.3448 27.7577 37.9333 28.5798 37.1914C29.4018 36.4495 29.9201 35.4297 30.0351 34.3284C30.0496 34.1793 30.0581 34.0266 30.0581 33.8715V22.1791C29.4498 22.4917 28.8334 22.7967 28.2089 23.094V33.8679Z" fill="#BB7447"/>
<path d="M26.9451 8.56603H30.0581L22.47 0.558594V4.09093C22.4722 5.27711 22.9444 6.41406 23.7832 7.25282C24.6219 8.09158 25.7589 8.56379 26.9451 8.56603Z" fill="#2F3132"/>
<path d="M8.98037 18.7837H7.2439V20.5202H8.98037V18.7837Z" fill="#2F3132"/>
<path d="M10.7167 20.5214H8.98022V22.2578H10.7167V20.5214Z" fill="#2F3132"/>
<path d="M12.4532 18.7837H10.7167V20.5202H12.4532V18.7837Z" fill="#2F3132"/>
<path d="M14.1884 20.5214H12.4519V22.2578H14.1884V20.5214Z" fill="#2F3132"/>
<path d="M8.98013 22.2592H7.24365V23.9956H8.98013V22.2592Z" fill="#2F3132"/>
<path d="M10.7167 23.9979H8.98022V25.7344H10.7167V23.9979Z" fill="#2F3132"/>
<path d="M12.4532 22.2592H10.7167V23.9956H12.4532V22.2592Z" fill="#2F3132"/>
<path d="M14.1884 23.9979H12.4519V25.7344H14.1884V23.9979Z" fill="#2F3132"/>
<path d="M8.98013 25.7345H7.24365V27.471H8.98013V25.7345Z" fill="#2F3132"/>
<path d="M10.7167 27.4722H8.98022V29.2086H10.7167V27.4722Z" fill="#2F3132"/>
<path d="M12.4532 25.7345H10.7167V27.471H12.4532V25.7345Z" fill="#2F3132"/>
<path d="M14.1884 27.4722H12.4519V29.2086H14.1884V27.4722Z" fill="#2F3132"/>
<path d="M8.98013 29.2098H7.24365V30.9463H8.98013V29.2098Z" fill="#000301"/>
<path d="M12.4532 29.2098H10.7167V30.9463H12.4532V29.2098Z" fill="#000301"/>
<path d="M15.9261 18.7837H14.1896V20.5202H15.9261V18.7837Z" fill="#2F3132"/>
<path d="M17.6625 20.5214H15.926V22.2578H17.6625V20.5214Z" fill="#2F3132"/>
<path d="M19.3979 18.7837H17.6614V20.5202H19.3979V18.7837Z" fill="#2F3132"/>
<path d="M21.1343 20.5214H19.3978V22.2578H21.1343V20.5214Z" fill="#2F3132"/>
<path d="M15.9261 22.2592H14.1896V23.9956H15.9261V22.2592Z" fill="#2F3132"/>
<path d="M17.6625 23.9979H15.926V25.7344H17.6625V23.9979Z" fill="#2F3132"/>
<path d="M19.3979 22.2592H17.6614V23.9956H19.3979V22.2592Z" fill="#2F3132"/>
<path d="M21.1343 23.9979H19.3978V25.7344H21.1343V23.9979Z" fill="#2F3132"/>
<path d="M15.9261 25.7345H14.1896V27.471H15.9261V25.7345Z" fill="#2F3132"/>
<path d="M17.6625 27.4722H15.926V29.2086H17.6625V27.4722Z" fill="#2F3132"/>
<path d="M19.3979 25.7345H17.6614V27.471H19.3979V25.7345Z" fill="#2F3132"/>
<path d="M21.1343 27.4722H19.3978V29.2086H21.1343V27.4722Z" fill="#000301"/>
<path d="M15.9261 29.2098H14.1896V30.9463H15.9261V29.2098Z" fill="#000301"/>
<path d="M19.3979 29.2098H17.6614V30.9463H19.3979V29.2098Z" fill="#000301"/>
<path d="M22.8708 18.7837H21.1343V20.5202H22.8708V18.7837Z" fill="#2F3132"/>
<path d="M22.8708 22.2592H21.1343V23.9956H22.8708V22.2592Z" fill="#2F3132"/>
<path d="M22.8708 25.7345H21.1343V27.471H22.8708V25.7345Z" fill="#2F3132"/>
<path d="M8.98022 28.9531V29.21H10.7167V28.6853C10.1334 28.7863 9.55461 28.8756 8.98022 28.9531Z" fill="#000301"/>
<path d="M14.1896 27.9861C13.6079 28.1202 13.0287 28.2454 12.4519 28.3617V29.21H14.1896V27.9861Z" fill="#000301"/>
<path d="M15.926 29.2075H17.6625V27.4698H16.2508L15.926 27.5559V29.2075Z" fill="#000301"/>
<path d="M17.6614 27.0821V27.4711H19.3942V26.5562C18.8182 26.7395 18.2406 26.9148 17.6614 27.0821Z" fill="#000301"/>
<path d="M21.1343 27.4711H22.872V25.7346H21.8347C21.602 25.8182 21.3682 25.8994 21.1343 25.977V27.4711Z" fill="#000301"/>
<path d="M22.8708 29.2098H21.1343V30.9463H22.8708V29.2098Z" fill="#000301"/>
</svg>
