<svg width="31" height="38" viewBox="0 0 31 38" fill="none" xmlns="http://www.w3.org/2000/svg">
<path d="M6.49063 5.23161C6.36976 5.07792 6.21052 4.9588 6.02894 4.88626C5.8029 4.79971 5.56202 4.75853 5.32006 4.76508H4.50574V8.03688H5.52363C5.68855 8.03767 5.85242 8.01063 6.00834 7.9569C6.16545 7.90229 6.30744 7.81137 6.42277 7.69152C6.55325 7.5526 6.65242 7.38732 6.7136 7.20681C6.79189 6.97263 6.82879 6.7266 6.82266 6.47975C6.8252 6.24127 6.79957 6.00333 6.74631 5.77086C6.70041 5.57497 6.61325 5.39112 6.49063 5.23161Z" fill="#556BAD"/>
<path d="M12.1739 5.19165C12.063 5.025 11.9133 4.88776 11.7376 4.79176C11.5358 4.68708 11.3105 4.63577 11.0833 4.64271C10.856 4.63577 10.6307 4.68708 10.4289 4.79176C10.2532 4.88776 10.1035 5.025 9.99266 5.19165C9.87859 5.36598 9.79652 5.55925 9.7503 5.76239C9.699 5.97918 9.67337 6.20124 9.67396 6.42402C9.67351 6.63839 9.69915 6.85202 9.7503 7.0602C9.79748 7.2585 9.87954 7.44685 9.99266 7.61642C10.1044 7.78143 10.2539 7.9173 10.4289 8.01267C10.6307 8.11735 10.856 8.16866 11.0833 8.16172C11.3105 8.16866 11.5358 8.11735 11.7376 8.01267C11.9126 7.9173 12.0622 7.78143 12.1739 7.61642C12.287 7.44685 12.369 7.2585 12.4162 7.0602C12.4674 6.85202 12.493 6.63839 12.4926 6.42402C12.4931 6.20124 12.4675 5.97918 12.4162 5.76239C12.37 5.55925 12.2879 5.36598 12.1739 5.19165Z" fill="#556BAD"/>
<path d="M21.6657 3.58968V0.0537109H5.18554C4.07825 0.0555126 3.01078 0.467004 2.18878 1.20891C1.36678 1.95081 0.848391 2.97065 0.733473 4.07197C0.718932 4.22223 0.710449 4.37492 0.710449 4.52881V28.7304C1.30907 28.7922 1.92223 28.8334 2.55962 28.8516V12.735H28.8588V22.5928C29.4833 22.2955 30.0997 21.9905 30.708 21.6779V9.51648H27.5949C26.0235 9.51424 24.5171 8.88917 23.4057 7.77823C22.2943 6.66729 21.6686 5.1611 21.6657 3.58968ZM7.82359 7.42011C7.73541 7.72366 7.58568 8.0058 7.38371 8.24896C7.18327 8.48478 6.93228 8.67241 6.64937 8.7979C6.32231 8.93794 5.96899 9.00613 5.6133 8.99785H3.36909V3.81022H5.60845C5.92692 3.80746 6.24332 3.86162 6.54274 3.97017C6.82523 4.07417 7.08105 4.23974 7.29161 4.45488C7.51175 4.68302 7.68035 4.95577 7.78602 5.25467C7.91169 5.6168 7.972 5.99837 7.96415 6.38161C7.96825 6.73278 7.92089 7.08267 7.82359 7.42011ZM13.4656 7.48191C13.3557 7.79485 13.1852 8.08308 12.9639 8.33016C12.7415 8.57574 12.4687 8.77041 12.1642 8.9009C11.8238 9.04405 11.4573 9.11462 11.0881 9.10811C10.7202 9.11379 10.355 9.04325 10.0157 8.9009C9.70984 8.77087 9.43575 8.57616 9.21229 8.33016C8.991 8.08308 8.82053 7.79485 8.71061 7.48191C8.59212 7.14192 8.53309 6.78405 8.53611 6.42402C8.53275 6.05684 8.59175 5.69176 8.71061 5.34434C8.81968 5.02483 8.9901 4.72968 9.21229 4.47549C9.43446 4.22533 9.70868 4.0268 10.0157 3.89383C10.3544 3.749 10.7198 3.67716 11.0881 3.68298C11.4577 3.67643 11.8244 3.74829 12.1642 3.89383C12.4697 4.02749 12.7426 4.22596 12.9639 4.47549C13.1861 4.72968 13.3565 5.02483 13.4656 5.34434C13.5845 5.69176 13.6435 6.05684 13.6401 6.42402C13.6416 6.78433 13.5809 7.14221 13.4608 7.48191H13.4656ZM18.7974 7.87815C18.6816 8.13091 18.5168 8.35825 18.3127 8.54706C18.1108 8.73318 17.8734 8.87661 17.6147 8.96875C17.3323 9.06838 17.0345 9.11761 16.735 9.11417C16.3671 9.11986 16.0019 9.04931 15.6626 8.90697C15.3567 8.77693 15.0826 8.58221 14.8592 8.33621C14.6379 8.08913 14.4674 7.8009 14.3575 7.48796C14.239 7.14797 14.18 6.79012 14.183 6.43008C14.1796 6.0629 14.2386 5.69781 14.3575 5.35039C14.4666 5.03088 14.637 4.73575 14.8592 4.48155C15.0813 4.2314 15.3556 4.03287 15.6626 3.89989C16.0013 3.75507 16.3667 3.68322 16.735 3.68904C17.0099 3.68657 17.2835 3.72746 17.5457 3.81022C17.7932 3.88994 18.0246 4.01304 18.2291 4.17375C18.4324 4.33378 18.6017 4.53276 18.7272 4.75904C18.8609 5.00662 18.9433 5.27865 18.9695 5.55882H17.8644C17.8466 5.42983 17.802 5.30599 17.7335 5.19529C17.6654 5.08596 17.5794 4.98887 17.479 4.9081C17.3756 4.82479 17.2589 4.75963 17.1337 4.71542C17.0042 4.66918 16.8676 4.64582 16.7302 4.64635C16.5029 4.63941 16.2776 4.69072 16.0758 4.7954C15.9001 4.8914 15.7504 5.02864 15.6396 5.19529C15.5255 5.36962 15.4434 5.56289 15.3972 5.76603C15.3459 5.98282 15.3203 6.20488 15.3209 6.42766C15.3204 6.64203 15.346 6.85566 15.3972 7.06384C15.4444 7.26214 15.5264 7.45047 15.6396 7.62004C15.7512 7.78506 15.9008 7.92093 16.0758 8.0163C16.2776 8.12097 16.5029 8.17228 16.7302 8.16534C16.8815 8.17379 17.0328 8.1496 17.1739 8.0944C17.3151 8.0392 17.4427 7.9543 17.5481 7.84545C17.7566 7.60869 17.884 7.31148 17.9116 6.9972H19.0168C18.9951 7.30132 18.9209 7.59937 18.7974 7.87815Z" fill="#556BAD"/>
<path d="M28.8588 33.3679C28.8588 34.0644 28.5821 34.7323 28.0897 35.2247C27.5972 35.7172 26.9293 35.9938 26.2329 35.9938H5.1831C4.48666 35.9938 3.81875 35.7172 3.32629 35.2247C2.83384 34.7323 2.55717 34.0644 2.55717 33.3679V28.8613C1.92463 28.8383 1.30663 28.7971 0.708008 28.7401V33.3728C0.71025 34.5589 1.18245 35.6959 2.02121 36.5347C2.85997 37.3734 3.99692 37.8456 5.1831 37.8479H26.2329C27.3402 37.8461 28.4076 37.4346 29.2296 36.6927C30.0516 35.9508 30.57 34.9309 30.685 33.8296C30.6995 33.6794 30.708 33.5267 30.708 33.3728V21.6852C30.0997 21.9986 29.4833 22.3036 28.8588 22.6001V33.3679Z" fill="#53689E"/>
<path d="M27.595 8.06477H30.708L23.1199 0.0537109V3.58483C23.1208 4.77185 23.5925 5.91006 24.4314 6.74986C25.2703 7.58967 26.4079 8.06252 27.595 8.06477Z" fill="#2F3132"/>
<path d="M25.4671 17.1385H5.94897V18.589H25.4671V17.1385Z" fill="#2F3132"/>
<path d="M15.7074 25.8221H5.94897V27.2726H15.7074V25.8221Z" fill="#2F3132"/>
<path d="M15.7074 30.1433H5.94897V31.5938H15.7074V30.1433Z" fill="#000301"/>
<path d="M25.4671 21.4803H5.94897V22.9308H25.4671V21.4803Z" fill="#2F3132"/>
<path d="M19.8675 29.9035L18.9126 26.3748H17.4052L17.5397 26.7989C18.0001 26.672 18.4606 26.54 18.9211 26.4026L19.8675 29.9035Z" fill="#2F3132"/>
<path d="M17.5396 26.7988L19.0531 31.572L17.5396 26.7988Z" fill="#000301"/>
<path d="M23.0447 29.8938H23.0241L22.1395 26.3796H20.752L19.888 29.9083H19.8674L18.921 26.4075C18.4605 26.544 18 26.6761 17.5396 26.8037L19.0543 31.5769H20.5314L21.416 28.0882H21.4354L22.3649 31.5721H23.8323L25.4706 26.3748H23.9995L23.0447 29.8938Z" fill="#000301"/>
</svg>
