<svg width="45" height="35" viewBox="0 0 45 35" fill="none" xmlns="http://www.w3.org/2000/svg">
<path d="M37.3299 30.4319C37.6682 30.2979 38.0446 30.2979 38.3829 30.4319C38.2965 30.6762 38.2179 30.9245 38.1393 31.1688C37.9944 31.1076 37.8388 31.0761 37.6815 31.0761C37.5243 31.0761 37.3687 31.1076 37.2238 31.1688C37.1055 31.2612 37.012 31.3815 36.9516 31.5191C36.8913 31.6567 36.866 31.8072 36.878 31.9571C36.878 32.6428 36.878 33.3286 36.878 34.0143H36.0922C36.0922 32.832 36.0922 31.6063 36.0922 30.4043H36.878C36.878 30.5461 36.878 30.688 36.878 30.8299C36.9948 30.6535 37.1543 30.5097 37.3417 30.4121L37.3299 30.4319ZM32.8545 31.1373C32.6432 31.2225 32.4629 31.3705 32.3379 31.5614C32.2129 31.7523 32.1491 31.977 32.1551 32.2054C32.1422 32.4395 32.2028 32.6718 32.3282 32.8697C32.4536 33.0676 32.6377 33.2212 32.8545 33.3089C33.0557 33.3835 33.2742 33.3979 33.4835 33.3503C33.6927 33.3027 33.8837 33.1952 34.0333 33.0409C34.2403 32.7981 34.3474 32.4853 34.3328 32.1661C34.3182 31.8469 34.183 31.5453 33.9547 31.3225C33.805 31.198 33.6256 31.1147 33.434 31.0808C33.2425 31.047 33.0455 31.0637 32.8623 31.1294L32.8545 31.1373ZM32.0372 30.7038C32.3583 30.4376 32.7683 30.3037 33.1842 30.3293C33.6 30.3549 33.9906 30.5381 34.2769 30.8417C34.2769 30.6998 34.2769 30.5619 34.2769 30.424H35.0627V34.038H34.2769C34.2769 33.8961 34.2769 33.7582 34.2769 33.6163C33.9827 33.9285 33.5786 34.1131 33.1507 34.1308C32.7227 34.1485 32.3049 33.9978 31.9861 33.7109C31.778 33.5187 31.6128 33.2845 31.5014 33.0237C31.39 32.763 31.3349 32.4815 31.3397 32.1978C31.3445 31.9141 31.4092 31.6347 31.5294 31.3778C31.6496 31.121 31.8227 30.8927 32.0372 30.7077V30.7038ZM28.3712 30.759C28.6236 30.5641 28.9158 30.4277 29.227 30.3596C29.5381 30.2914 29.8605 30.2932 30.1708 30.3649C30.4591 30.435 30.7277 30.5698 30.9567 30.759C30.8257 30.9665 30.6947 31.1794 30.5637 31.3974C30.3233 31.2248 30.0438 31.115 29.7504 31.0782C29.5608 31.0543 29.3683 31.0811 29.1923 31.1558C29.0164 31.2306 28.8633 31.3506 28.7484 31.5038C28.6326 31.6799 28.5604 31.8813 28.5378 32.0911C28.5153 32.3008 28.543 32.513 28.6188 32.7098C28.6825 32.8768 28.7885 33.0242 28.9263 33.1375C29.0641 33.2508 29.2289 33.3262 29.4046 33.3562C29.6111 33.3905 29.8224 33.3816 30.0252 33.3301C30.2281 33.2785 30.4181 33.1854 30.5834 33.0566C30.7091 33.2734 30.8388 33.4823 30.9763 33.699C30.641 33.9671 30.2263 34.1154 29.7975 34.1207C29.4901 34.149 29.1805 34.1021 28.8951 33.984C28.6098 33.866 28.3572 33.6803 28.1591 33.4429C27.8593 33.0454 27.7182 32.55 27.7632 32.0536C27.8083 31.5573 28.0363 31.0957 28.4027 30.759H28.3712ZM26.4616 30.4279C26.796 30.3018 27.1646 30.3018 27.4989 30.4279C27.4243 30.6801 27.3418 30.9245 27.2553 31.1728C26.9683 31.0545 26.6464 31.0545 26.3595 31.1728C26.2428 31.2552 26.149 31.3662 26.0871 31.4952C26.0252 31.6242 25.9972 31.7669 26.0058 31.9098C26.0058 32.6192 26.0058 33.3246 26.0058 34.0301H25.22C25.22 32.8478 25.22 31.6221 25.22 30.42H26.0058C26.0058 30.558 26.0058 30.6959 26.0058 30.8141C26.1262 30.6454 26.287 30.5099 26.4734 30.42L26.4616 30.4279ZM21.9823 31.3304C21.8515 31.4974 21.7626 31.6933 21.723 31.9019C22.3516 31.9019 22.9764 31.9019 23.6051 31.9019C23.5664 31.6434 23.4434 31.405 23.2554 31.224C23.0677 31.0812 22.8341 31.0128 22.5993 31.0317C22.3645 31.0506 22.1449 31.1555 21.9823 31.3265V31.3304ZM21.3222 30.956C21.4764 30.7744 21.6654 30.6255 21.8779 30.5184C22.0904 30.4112 22.3222 30.3478 22.5596 30.332C22.7969 30.3162 23.035 30.3483 23.2598 30.4264C23.4846 30.5044 23.6915 30.6269 23.8683 30.7866C24.0788 31.0202 24.2358 31.2972 24.3281 31.5981C24.4204 31.8991 24.4459 32.2166 24.4027 32.5285H21.7151C21.7387 32.6961 21.8025 32.8553 21.9011 32.9926C21.9997 33.1299 22.13 33.2412 22.2809 33.3167C22.5441 33.4124 22.8277 33.4373 23.1034 33.3889C23.3791 33.3405 23.6374 33.2205 23.8526 33.0409C23.9823 33.2379 24.108 33.435 24.2455 33.6281C23.7746 34.0083 23.173 34.1868 22.5717 34.1247C22.2661 34.1082 21.9704 34.0104 21.7149 33.8414C21.4594 33.6724 21.2533 33.4383 21.1178 33.163C20.9521 32.8114 20.8844 32.4213 20.9217 32.0341C20.9591 31.647 21.1002 31.2772 21.33 30.9639L21.3222 30.956ZM14.2495 30.6723C14.6274 30.404 15.0899 30.2834 15.5501 30.3333C16.0107 30.3425 16.4612 30.47 16.8586 30.7038L16.5167 31.3422C16.0955 31.0966 15.6049 30.9982 15.1219 31.0624C14.9254 31.0939 14.7054 31.2279 14.7054 31.4565C14.7054 31.6851 14.9293 31.7482 15.0983 31.7797C15.613 31.8743 16.1867 31.8704 16.615 32.2172C16.7175 32.3117 16.7993 32.4265 16.8553 32.5544C16.9113 32.6823 16.9402 32.8204 16.9402 32.9601C16.9402 33.0997 16.9113 33.2379 16.8553 33.3658C16.7993 33.4937 16.7175 33.6085 16.615 33.703C16.2308 34.0104 15.7457 34.1623 15.2554 34.1286C14.7094 34.1336 14.1748 33.9714 13.723 33.6636C13.8488 33.4586 13.9745 33.2695 14.0963 33.0488C14.3301 33.2133 14.5953 33.3276 14.8752 33.3846C15.1551 33.4415 15.4438 33.4399 15.723 33.3798C15.9155 33.3404 16.1159 33.1906 16.1159 32.966C16.1159 32.7413 15.8802 32.6941 15.723 32.6546C15.2122 32.5482 14.6386 32.5601 14.2142 32.2172C14.1068 32.1188 14.0215 31.9985 13.9642 31.8644C13.9068 31.7303 13.8787 31.5854 13.8817 31.4395C13.8847 31.2937 13.9187 31.1501 13.9814 31.0184C14.0442 30.8868 14.1343 30.7701 14.2456 30.6762L14.2495 30.6723ZM10.7604 31.1412C9.97454 31.4329 9.84094 32.6507 10.4893 33.1591C10.6827 33.3093 10.9205 33.3908 11.1651 33.3908C11.4098 33.3908 11.6475 33.3093 11.8409 33.1591C11.9642 33.0461 12.0635 32.9094 12.1328 32.7571C12.2022 32.6047 12.2402 32.44 12.2446 32.2726C12.249 32.1052 12.2197 31.9386 12.1584 31.7828C12.0972 31.627 12.0052 31.4852 11.8881 31.3659C11.7368 31.2316 11.5518 31.1412 11.3532 31.1044C11.1545 31.0676 10.9495 31.0858 10.7604 31.157V31.1412ZM9.95096 30.7117C10.2724 30.4415 10.6846 30.3048 11.1033 30.3298C11.5219 30.3547 11.9151 30.5393 12.2024 30.8457C12.2024 30.7038 12.2024 30.5619 12.2024 30.424H12.9883C12.9883 31.6063 12.9883 32.832 12.9883 34.034H12.2024C12.2024 33.8922 12.2024 33.7503 12.2024 33.6084C11.6091 34.3493 10.391 34.2508 9.77807 33.5847C9.59919 33.3858 9.46159 33.1531 9.37333 32.9002C9.28506 32.6473 9.2479 32.3793 9.26399 32.1119C9.28009 31.8444 9.34913 31.5829 9.46707 31.3425C9.58502 31.1021 9.74951 30.8876 9.95096 30.7117ZM3.64454 30.8536C3.78132 30.6811 3.95699 30.5436 4.15709 30.4526C4.35719 30.3616 4.57597 30.3195 4.79545 30.3299C5.01492 30.3403 5.22881 30.4028 5.41946 30.5124C5.61012 30.6219 5.77209 30.7753 5.89205 30.96C6.01693 30.7919 6.17397 30.6504 6.354 30.5439C6.53402 30.4375 6.73342 30.3681 6.94051 30.3398C7.14759 30.3116 7.35822 30.325 7.56006 30.3794C7.7619 30.4338 7.95091 30.528 8.11602 30.6565C8.26649 30.7943 8.38521 30.9634 8.46392 31.1519C8.54264 31.3405 8.57944 31.5439 8.5718 31.7482C8.5718 32.5128 8.5718 33.2734 8.5718 34.034H7.78595V31.9177C7.79616 31.7664 7.76496 31.6152 7.6957 31.4804C7.62645 31.3457 7.52178 31.2325 7.39303 31.1531C7.20343 31.0628 6.98828 31.0421 6.78505 31.0947C6.58183 31.1473 6.40346 31.2698 6.28107 31.4408C6.16222 31.6572 6.10895 31.9038 6.12782 32.1502C6.12782 32.7807 6.12782 33.4074 6.12782 34.034H5.34198V31.9768C5.35671 31.8111 5.32428 31.6447 5.24847 31.4968C5.17266 31.3489 5.05656 31.2256 4.91368 31.1412C4.72832 31.0595 4.52075 31.0435 4.32508 31.0958C4.12942 31.148 3.95732 31.2656 3.83707 31.429C3.69541 31.7071 3.63935 32.0213 3.67598 32.3315C3.67598 32.899 3.67598 33.4665 3.67598 34.034H2.89014C2.89014 32.8281 2.89014 31.6247 2.89014 30.424H3.67598C3.67598 30.5658 3.67598 30.7077 3.67598 30.8536H3.64454ZM18.1827 29.3283H18.9686C18.9686 29.6949 18.9686 30.0574 18.9686 30.424H20.2456V31.1412H18.9646C18.9646 31.7088 18.9646 32.2763 18.9646 32.8478C18.9565 32.9499 18.9805 33.0521 19.0334 33.1398C19.0863 33.2275 19.1653 33.2963 19.2593 33.3365C19.5749 33.3979 19.9019 33.3374 20.1748 33.167C20.2495 33.3956 20.3281 33.6202 20.4027 33.8448C20.1617 33.9922 19.8909 34.0836 19.6101 34.1123C19.3292 34.1409 19.0456 34.1061 18.78 34.0104C18.5874 33.9134 18.4273 33.7622 18.3191 33.5753C18.211 33.3884 18.1594 33.1739 18.1709 32.9581C18.1709 32.3512 18.1709 31.7442 18.1709 31.1373H17.4322V30.42H18.1709C18.1709 30.0535 18.1709 29.687 18.1709 29.3244L18.1827 29.3283ZM40.1078 31.1373C39.9413 31.2134 39.7941 31.3264 39.6774 31.4677C39.5606 31.6091 39.4774 31.7752 39.4339 31.9535C39.3904 32.1318 39.3878 32.3177 39.4263 32.4972C39.4647 32.6766 39.5433 32.845 39.656 32.9896C39.841 33.2096 40.1043 33.3483 40.3899 33.3763C40.6754 33.4042 40.9605 33.3192 41.1845 33.1394C41.3126 33.023 41.415 32.881 41.4851 32.7225C41.5552 32.564 41.5914 32.3925 41.5914 32.2191C41.5914 32.0457 41.5552 31.8743 41.4851 31.7158C41.415 31.5573 41.3126 31.4153 41.1845 31.2989C41.0355 31.186 40.8609 31.1122 40.6764 31.0839C40.4918 31.0557 40.3032 31.0741 40.1275 31.1373H40.1078ZM41.5263 28.9736H42.3121V34.038H41.5263C41.5263 33.8961 41.5263 33.7582 41.5263 33.6202C40.9605 34.3178 39.8249 34.2626 39.2002 33.6793C39.0002 33.4856 38.8426 33.2523 38.7374 32.9942C38.6322 32.7361 38.5817 32.4589 38.5891 32.1801C38.5965 31.9014 38.6616 31.6272 38.7804 31.3751C38.8991 31.123 39.0688 30.8984 39.2788 30.7156C39.5983 30.4458 40.0085 30.3087 40.4255 30.3321C40.8425 30.3556 41.2349 30.5378 41.5224 30.8417C41.5224 30.219 41.5224 29.6003 41.5224 28.9776L41.5263 28.9736ZM43.9231 33.498C43.9863 33.499 44.0483 33.5152 44.1039 33.5453C44.1614 33.5761 44.2091 33.6225 44.2414 33.6793C44.272 33.7363 44.2882 33.7999 44.2886 33.8646C44.2888 33.9281 44.2725 33.9905 44.2414 34.0458C44.2119 34.1044 44.1653 34.1525 44.1078 34.1838C44.0511 34.2145 43.9876 34.2308 43.9231 34.2311C43.86 34.2301 43.798 34.2139 43.7424 34.1838C43.6849 34.1525 43.6384 34.1044 43.6088 34.0458C43.5746 33.9917 43.5569 33.9287 43.5577 33.8646C43.5574 33.7993 43.5751 33.7352 43.6088 33.6793C43.6411 33.6225 43.6888 33.5761 43.7463 33.5453C43.8007 33.5158 43.8613 33.4996 43.9231 33.498ZM43.9231 33.5572C43.8711 33.5591 43.8201 33.5726 43.7738 33.5966C43.7267 33.6242 43.6875 33.6636 43.6599 33.7109C43.6341 33.758 43.6206 33.8108 43.6206 33.8646C43.62 33.9184 43.6336 33.9714 43.6599 34.0183C43.6864 34.0653 43.726 34.1036 43.7738 34.1286C43.8189 34.156 43.8704 34.171 43.9231 34.172C43.9772 34.1715 44.0301 34.1565 44.0764 34.1286C44.1242 34.1036 44.1638 34.0653 44.1903 34.0183C44.2166 33.9714 44.2302 33.9184 44.2296 33.8646C44.2296 33.8108 44.2161 33.758 44.1903 33.7109C44.1628 33.6636 44.1235 33.6242 44.0764 33.5966C44.0287 33.5725 43.9765 33.559 43.9231 33.5572ZM43.766 34.0655V33.6714H43.8996C43.9334 33.6661 43.9679 33.6661 44.0017 33.6714C44.0216 33.6787 44.0382 33.6926 44.0489 33.7109C44.0616 33.7279 44.0685 33.7486 44.0685 33.77C44.0675 33.7979 44.0564 33.8246 44.0371 33.8448C44.0145 33.8659 43.9853 33.8784 43.9546 33.8803C43.968 33.8835 43.9802 33.8903 43.9899 33.9C44.0118 33.9246 44.0315 33.9509 44.0489 33.9789L44.096 34.0537H44.0174L43.9821 33.9946C43.9646 33.96 43.9421 33.9281 43.9153 33.9C43.8986 33.8951 43.8809 33.8951 43.8642 33.9H43.8288V34.0655H43.766ZM43.8288 33.8448H43.9035C43.9291 33.853 43.9565 33.853 43.9821 33.8448C43.9872 33.8308 43.9872 33.8155 43.9821 33.8015C43.986 33.7914 43.986 33.7801 43.9821 33.77C43.9731 33.7674 43.9636 33.7674 43.9546 33.77H43.8917H43.821V33.8882L43.8288 33.8448Z" fill="black"/>
<path fill-rule="evenodd" clip-rule="evenodd" d="M14.1827 0.230957C15.9596 0.230957 17.7191 0.582059 19.3607 1.26422C21.0023 1.94639 22.4938 2.94625 23.7501 4.20669C25.0063 5.46713 26.0027 6.96348 26.6824 8.61023C27.362 10.257 27.7115 12.0219 27.711 13.8042C27.7115 15.5864 27.362 17.3514 26.6824 18.9981C26.0027 20.6449 25.0063 22.1412 23.7501 23.4016C22.4938 24.6621 21.0023 25.6619 19.3607 26.3441C17.7191 27.0263 15.9596 27.3774 14.1827 27.3774C10.5937 27.3774 7.15169 25.9473 4.6139 23.4019C2.0761 20.8564 0.650391 17.404 0.650391 13.8042C0.650391 10.2043 2.0761 6.75192 4.6139 4.20645C7.15169 1.66098 10.5937 0.230957 14.1827 0.230957Z" fill="#EA001B"/>
<path fill-rule="evenodd" clip-rule="evenodd" d="M30.9761 0.230957C34.5651 0.230957 38.0071 1.66098 40.5449 4.20645C43.0827 6.75192 44.5084 10.2043 44.5084 13.8042C44.5084 17.404 43.0827 20.8564 40.5449 23.4019C38.0071 25.9473 34.5651 27.3774 30.9761 27.3774C27.3871 27.3774 23.9451 25.9473 21.4074 23.4019C18.8696 20.8564 17.4438 17.404 17.4438 13.8042C17.4438 10.2043 18.8696 6.75192 21.4074 4.20645C23.9451 1.66098 27.3871 0.230957 30.9761 0.230957Z" fill="#F79F1A"/>
<path fill-rule="evenodd" clip-rule="evenodd" d="M22.5716 3.15527C24.1743 4.42407 25.4694 6.04076 26.3596 7.88382C27.2497 9.72688 27.7118 11.7483 27.711 13.7963C27.7121 15.8443 27.2502 17.8659 26.36 19.709C25.4698 21.5521 24.1745 23.1687 22.5716 24.4373C20.9675 23.1695 19.6712 21.5531 18.7803 19.7099C17.8893 17.8667 17.4271 15.8447 17.4282 13.7963C17.4273 11.7479 17.8897 9.72605 18.7807 7.88288C19.6716 6.03971 20.9677 4.42328 22.5716 3.15527Z" fill="#FF5F01"/>
<path d="M43.5498 20.8826V20.4885H43.3848V20.4097H43.8327V20.4885H43.6637V20.8826H43.5498ZM43.9034 20.8826V20.4058H44.0724L44.1745 20.7289L44.2767 20.4058H44.4457V20.8826H44.3356V20.4885L44.2256 20.8826H44.1156L44.0056 20.4885V20.8826H43.9034Z" fill="#F79F1A"/>
</svg>
