<svg width="62" height="18" viewBox="0 0 62 18" fill="none" xmlns="http://www.w3.org/2000/svg">
<path d="M34.5585 2.52396L30.7 10.9146H30.3071V0.699219H24.8062V17.9889H29.4623C30.0609 17.9874 30.6465 17.8145 31.1505 17.4905C31.6544 17.1666 32.0557 16.7051 32.3071 16.1602L36.1695 7.76958H36.5624V17.9889H42.0634V0.699219H37.4072C36.8084 0.699636 36.2222 0.871602 35.7175 1.19487C35.2129 1.51813 34.8108 1.97924 34.5585 2.52396Z" fill="#20AA4D"/>
<path d="M13.981 2.96931L11.6981 10.9146H11.3052L9.02233 2.96931C8.83208 2.31505 8.4356 1.74022 7.89228 1.33097C7.34897 0.921714 6.68807 0.700071 6.00861 0.699219H0.53125V17.9889H6.03218V7.76958H6.4251L9.56849 17.9889H13.4977L16.6411 7.76958H17.034V17.9889H22.535V0.699219H16.9987C16.3192 0.700071 15.6583 0.921714 15.115 1.33097C14.5717 1.74022 14.1752 2.31505 13.9849 2.96931" fill="#20AA4D"/>
<path d="M44.4126 8.55786V17.9889H49.886V12.4714H55.7799C56.9952 12.4671 58.1795 12.0862 59.1706 11.3807C60.1617 10.6751 60.9111 9.67956 61.3162 8.53027L44.4126 8.55786Z" fill="#20AA4D"/>
<path d="M55.7722 0.699257H43.627C43.9933 2.6854 45.0417 4.4801 46.5899 5.77169C48.1382 7.06328 50.0886 7.77017 52.1023 7.76962H61.5325C61.6103 7.38033 61.6497 6.98432 61.6504 6.58728C61.6452 5.02283 61.0219 3.52423 59.9172 2.41984C58.8124 1.31544 57.3163 0.695304 55.7565 0.695313" fill="url(#paint0_linear_0_695)"/>
<defs>
<linearGradient id="paint0_linear_0_695" x1="43.627" y1="4.23444" x2="61.6504" y2="4.23444" gradientUnits="userSpaceOnUse">
<stop offset="0.01" stop-color="#00A7E3"/>
<stop offset="0.34" stop-color="#009EDC"/>
<stop offset="0.87" stop-color="#0085C9"/>
<stop offset="1" stop-color="#007EC4"/>
</linearGradient>
</defs>
</svg>
