<svg width="55" height="19" viewBox="0 0 55 19" fill="none" xmlns="http://www.w3.org/2000/svg">
<path d="M23.8793 18.001H19.451L22.2212 0.829529H26.6455L23.8793 18.001Z" fill="#00579F"/>
<path d="M39.9263 1.2473C38.6587 0.759347 37.3116 0.512094 35.9539 0.518176C31.5806 0.518176 28.4883 2.85527 28.4883 6.19734C28.453 8.66447 30.6926 10.036 32.3665 10.8597C34.0403 11.6834 34.6808 12.2469 34.6808 12.9879C34.6612 14.1387 33.2938 14.6707 32.0207 14.6707C30.5777 14.7194 29.1449 14.4122 27.8479 13.7761L27.2624 13.5002L26.6455 17.3546C28.2187 17.9676 29.8929 18.2777 31.5806 18.269C36.2289 18.269 39.2505 15.9674 39.2859 12.4046C39.2859 10.434 38.1071 8.95218 35.5727 7.72649C34.0246 6.93827 33.0737 6.4141 33.0737 5.61011C33.0934 4.87707 33.8596 4.12825 35.6238 4.12825C36.7581 4.09577 37.885 4.32076 38.9204 4.78641L39.3134 4.96771L39.9185 1.25911L39.9263 1.2473Z" fill="#00579F"/>
<path d="M45.8084 11.9198C46.1738 10.9306 47.5765 7.11167 47.5765 7.11167C47.5765 7.11167 47.938 6.10667 48.158 5.46821L48.4685 6.95007C48.4685 6.95007 49.3054 11.0606 49.4861 11.9198H45.8084ZM51.2739 0.829529H47.8476C46.7907 0.829529 45.9891 1.14087 45.5333 2.25227L38.9597 18.0167H43.6041C43.6041 18.0167 44.3703 15.8964 44.5314 15.4432H50.217C50.3427 16.0462 50.7435 18.0167 50.7435 18.0167H54.8456L51.2739 0.845285V0.829529Z" fill="#00579F"/>
<path d="M15.7537 0.829529L11.4315 12.5386L10.96 10.1739C10.1742 7.41512 7.64373 4.45536 4.83826 2.9735L8.81071 17.9931H13.4629L20.4216 0.837395L15.7537 0.829529Z" fill="#00579F"/>
<path d="M7.39221 0.829529H0.268504L0.193848 1.17635C5.74979 2.60303 9.4315 6.03574 10.9443 10.166L9.39613 2.2838C9.14073 1.18817 8.35487 0.87681 7.39221 0.84134V0.829529Z" fill="#FAA61A"/>
</svg>
